<?xml version="1.0" encoding="UTF-8"?>
<svg version="1.1" xmlns="http://www.w3.org/2000/svg" width="309" height="90">
<path d="M0 0 C101.97 0 203.94 0 309 0 C309 29.7 309 59.4 309 90 C207.03 90 105.06 90 0 90 C0 60.3 0 30.6 0 0 Z " fill="#FDFDFC" transform="translate(0,0)"/>
<path d="M0 0 C1.79206547 0.14084796 3.58364917 0.28783701 5.375 0.4375 C6.87160156 0.55931641 6.87160156 0.55931641 8.3984375 0.68359375 C11 1 11 1 13 2 C15.27837576 2.03789283 17.55791956 2.01240479 19.8359375 1.95703125 C21.22394399 1.93463938 22.61196585 1.91318437 24 1.89257812 C26.18824693 1.85550168 28.37571209 1.8124807 30.56347656 1.75317383 C32.67524478 1.69859201 34.78613924 1.66956518 36.8984375 1.64453125 C38.16349121 1.61721924 39.42854492 1.58990723 40.73193359 1.56176758 C44 2 44 2 46.41650391 3.79956055 C48.69848091 6.97061493 48.48450032 9.19321173 48 13 C46.5 14.9375 46.5 14.9375 45 16 C45.66 17.98 46.32 19.96 47 22 C48.32 22 49.64 22 51 22 C51.2475 20.72125 51.495 19.4425 51.75 18.125 C52.91164561 12.830253 54.86340266 7.96810741 57 3 C59.97 3 62.94 3 66 3 C66.25394531 3.88042969 66.50789063 4.76085937 66.76953125 5.66796875 C67.11371094 6.82941406 67.45789063 7.99085937 67.8125 9.1875 C68.14894531 10.33605469 68.48539062 11.48460937 68.83203125 12.66796875 C70.01870987 16.41250778 70.01870987 16.41250778 73 21 C73.33 15.06 73.66 9.12 74 3 C87.86996644 2.71979866 87.86996644 2.71979866 92 5 C93.09506492 8.28519475 93.09960608 10.73663415 93.0625 14.1875 C93.05347656 15.27417969 93.04445313 16.36085938 93.03515625 17.48046875 C93.02355469 18.31191406 93.01195312 19.14335938 93 20 C93.66 20 94.32 20 95 20 C95.18175781 19.443125 95.36351562 18.88625 95.55078125 18.3125 C100.39546599 3.60453401 100.39546599 3.60453401 102 2 C109.52238806 1.76119403 109.52238806 1.76119403 112 3 C112.6328125 4.84765625 112.6328125 4.84765625 113.125 7.0625 C113.29257812 7.79597656 113.46015625 8.52945313 113.6328125 9.28515625 C113.75398438 9.85105469 113.87515625 10.41695312 114 11 C115.1446875 9.8553125 115.1446875 9.8553125 116.3125 8.6875 C117.6428125 7.3571875 117.6428125 7.3571875 119 6 C119.53625 5.4225 120.0725 4.845 120.625 4.25 C123.49947813 1.63683807 127.12451053 1.61295934 130.859375 1.640625 C134.77476371 2.29795303 137.04965326 4.41844661 140 7 C140 7.66 140 8.32 140 9 C137.1875 9.625 137.1875 9.625 134 10 C133.01 9.34 132.02 8.68 131 8 C127.67759676 8.3241369 126.39223697 8.60776303 124 11 C123.65509678 15.05261287 123.69836118 16.54754176 126 20 C129.08365871 20.2502157 129.08365871 20.2502157 132 20 C132.33 19.34 132.66 18.68 133 18 C131.68 18 130.36 18 129 18 C129 16.35 129 14.7 129 13 C132.96 13 136.92 13 141 13 C141 20.06735014 140.54147136 20.35039837 136 25 C132.93466836 26.53266582 129.73245728 26.10276471 126.375 26.0625 C125.66859375 26.05798828 124.9621875 26.05347656 124.234375 26.04882812 C122.48954725 26.03703875 120.744763 26.01910324 119 26 C118.67 27.32 118.34 28.64 118 30 C103.48 30 88.96 30 74 30 C74.495 28.515 74.495 28.515 75 27 C72.03 27 69.06 27 66 27 C65.67 25.35 65.34 23.7 65 22 C62.36 22 59.72 22 57 22 C56.67 23.32 56.34 24.64 56 26 C51.38 26 46.76 26 42 26 C39 20 39 20 39 18 C38.34 18 37.68 18 37 18 C37 20.64 37 23.28 37 26 C34.69 26 32.38 26 30 26 C30 20.39 30 14.78 30 9 C28.68 9 27.36 9 26 9 C26 14.61 26 20.22 26 26 C23.69 26.33 21.38 26.66 19 27 C18.34 27.99 17.68 28.98 17 30 C14.6171875 30.29296875 14.6171875 30.29296875 11.875 30.1875 C10.96492187 30.16042969 10.05484375 30.13335937 9.1171875 30.10546875 C8.41851562 30.07066406 7.71984375 30.03585938 7 30 C7 29.67 7 29.34 7 29 C3.7 28.34 0.4 27.68 -3 27 C-3.33 25.02 -3.66 23.04 -4 21 C-0.59437148 20.22157062 2.50765756 19.90021879 6 20 C6 19.34 6 18.68 6 18 C1.05 16.02 1.05 16.02 -4 14 C-4 10.7 -4 7.4 -4 4 C-3.01 3.67 -2.02 3.34 -1 3 C-0.67 2.01 -0.34 1.02 0 0 Z " fill="#D9373C" transform="translate(147,26)"/>
<path d="M0 0 C48.18 0 96.36 0 146 0 C146 2.64 146 5.28 146 8 C127.11162119 8.02332783 108.22324529 8.0409786 89.33485508 8.05181217 C80.56527285 8.05697538 71.79569955 8.06401854 63.02612305 8.07543945 C55.38537097 8.08538554 47.74462536 8.09185325 40.10386699 8.09408849 C36.05561615 8.09539573 32.00738381 8.09848238 27.95913887 8.10573006 C24.15319131 8.11248909 20.34726998 8.1146172 16.54131699 8.11310768 C15.14042328 8.11338406 13.73952875 8.11538988 12.33864021 8.11920547 C10.43410492 8.12414083 8.52955574 8.122398 6.62501526 8.12025452 C5.55665719 8.12117631 4.48829912 8.1220981 3.38756657 8.12304783 C1 8 1 8 0 7 C0 4.69 0 2.38 0 0 Z " fill="#2D2C29" transform="translate(143,15)"/>
<path d="M0 0 C1.91015625 0.1328125 1.91015625 0.1328125 3.91015625 1.1328125 C4.54296875 2.98046875 4.54296875 2.98046875 5.03515625 5.1953125 C5.28652344 6.29552734 5.28652344 6.29552734 5.54296875 7.41796875 C5.66414063 7.98386719 5.7853125 8.54976562 5.91015625 9.1328125 C6.67328125 8.3696875 7.43640625 7.6065625 8.22265625 6.8203125 C9.10953125 5.9334375 9.99640625 5.0465625 10.91015625 4.1328125 C11.44640625 3.5553125 11.98265625 2.9778125 12.53515625 2.3828125 C15.40963438 -0.23034943 19.03466678 -0.25422816 22.76953125 -0.2265625 C26.68491996 0.43076553 28.95980951 2.55125911 31.91015625 5.1328125 C31.91015625 5.7928125 31.91015625 6.4528125 31.91015625 7.1328125 C29.09765625 7.7578125 29.09765625 7.7578125 25.91015625 8.1328125 C24.92015625 7.4728125 23.93015625 6.8128125 22.91015625 6.1328125 C19.58775301 6.4569494 18.30239322 6.74057553 15.91015625 9.1328125 C15.56525303 13.18542537 15.60851743 14.68035426 17.91015625 18.1328125 C20.99381496 18.3830282 20.99381496 18.3830282 23.91015625 18.1328125 C24.24015625 17.4728125 24.57015625 16.8128125 24.91015625 16.1328125 C23.59015625 16.1328125 22.27015625 16.1328125 20.91015625 16.1328125 C20.91015625 14.4828125 20.91015625 12.8328125 20.91015625 11.1328125 C24.87015625 11.1328125 28.83015625 11.1328125 32.91015625 11.1328125 C32.91015625 18.20016264 32.45162761 18.48321087 27.91015625 23.1328125 C24.84482461 24.66547832 21.64261353 24.23557721 18.28515625 24.1953125 C17.57875 24.19080078 16.87234375 24.18628906 16.14453125 24.18164062 C14.3997035 24.16985125 12.65491925 24.15191574 10.91015625 24.1328125 C10.58015625 25.4528125 10.25015625 26.7728125 9.91015625 28.1328125 C-4.60984375 28.1328125 -19.12984375 28.1328125 -34.08984375 28.1328125 C-33.75984375 27.1428125 -33.42984375 26.1528125 -33.08984375 25.1328125 C-36.05984375 25.1328125 -39.02984375 25.1328125 -42.08984375 25.1328125 C-42.41984375 23.8128125 -42.74984375 22.4928125 -43.08984375 21.1328125 C-42.42984375 21.4628125 -41.76984375 21.7928125 -41.08984375 22.1328125 C-41.08984375 22.7928125 -41.08984375 23.4528125 -41.08984375 24.1328125 C-37.83883598 24.0517612 -34.5896804 23.93893601 -31.33984375 23.8203125 C-29.95925781 23.78647461 -29.95925781 23.78647461 -28.55078125 23.75195312 C-27.66132813 23.71650391 -26.771875 23.68105469 -25.85546875 23.64453125 C-24.63005371 23.60525513 -24.63005371 23.60525513 -23.37988281 23.56518555 C-20.564996 23.03371811 -19.14575997 22.10990115 -17.08984375 20.1328125 C-16.58973851 17.09050427 -16.58973851 17.09050427 -17.08984375 14.1328125 C-17.74984375 13.4728125 -18.40984375 12.8128125 -19.08984375 12.1328125 C-19.28515625 9.75 -19.28515625 9.75 -19.21484375 7.0078125 C-19.19679687 6.09773438 -19.17875 5.18765625 -19.16015625 4.25 C-19.13695312 3.55132813 -19.11375 2.85265625 -19.08984375 2.1328125 C-18.09984375 2.4628125 -17.10984375 2.7928125 -16.08984375 3.1328125 C-14.99477883 6.41800725 -14.99023767 8.86944665 -15.02734375 12.3203125 C-15.03636719 13.40699219 -15.04539063 14.49367188 -15.0546875 15.61328125 C-15.06628906 16.44472656 -15.07789063 17.27617188 -15.08984375 18.1328125 C-14.42984375 18.1328125 -13.76984375 18.1328125 -13.08984375 18.1328125 C-12.90808594 17.5759375 -12.72632813 17.0190625 -12.5390625 16.4453125 C-7.1306354 0.02588252 -7.1306354 0.02588252 0 0 Z " fill="#FBF3F3" transform="translate(255.08984375,27.8671875)"/>
<path d="M0 0 C47.85 0 95.7 0 145 0 C145 2.31 145 4.62 145 7 C97.15 7 49.3 7 0 7 C0 4.69 0 2.38 0 0 Z " fill="#343331" transform="translate(143,58)"/>
<path d="M0 0 C1.32 0 2.64 0 4 0 C4 5.61 4 11.22 4 17 C6.31 17 8.62 17 11 17 C11 14.36 11 11.72 11 9 C11.66 9 12.32 9 13 9 C15.04169485 11.90548882 16 13.40142046 16 17 C20.62 17 25.24 17 30 17 C30.33 15.68 30.66 14.36 31 13 C33.64 13 36.28 13 39 13 C39.495 15.475 39.495 15.475 40 18 C42.97 18 45.94 18 49 18 C49 18.66 49 19.32 49 20 C49.8224118 20.01030746 50.64482361 20.02061493 51.49215698 20.03123474 C59.23229914 20.12910168 66.97235937 20.23160056 74.71236992 20.33933926 C78.6918445 20.39456799 82.67132644 20.4479879 86.65087891 20.49731445 C90.48939641 20.54495877 94.32782341 20.59730158 98.16623306 20.65294075 C99.63266886 20.67336401 101.09912947 20.69207715 102.56560898 20.70907402 C104.61528265 20.73311876 106.66478482 20.763173 108.71435547 20.79467773 C109.88239716 20.81022202 111.05043884 20.8257663 112.25387573 20.84178162 C115 21 115 21 117 22 C117 24.97 117 27.94 117 31 C68.49 31 19.98 31 -30 31 C-30 30.67 -30 30.34 -30 30 C17.85 30 65.7 30 115 30 C115 27.69 115 25.38 115 23 C67.15 23 19.3 23 -30 23 C-30 22.34 -30 21.68 -30 21 C-19.605 20.505 -19.605 20.505 -9 20 C-8.67 19.01 -8.34 18.02 -8 17 C-5.36 17 -2.72 17 0 17 C0 11.39 0 5.78 0 0 Z " fill="#BEBEBC" transform="translate(173,35)"/>
<path d="M0 0 C1.79206547 0.14084796 3.58364917 0.28783701 5.375 0.4375 C6.87160156 0.55931641 6.87160156 0.55931641 8.3984375 0.68359375 C11 1 11 1 13 2 C15.32416296 2.08586809 17.65083307 2.10711043 19.9765625 2.09765625 C20.66181 2.0962413 21.3470575 2.09482635 22.05307007 2.09336853 C24.24375761 2.08776675 26.4343433 2.07521406 28.625 2.0625 C30.10937352 2.05748522 31.59374865 2.05292228 33.078125 2.04882812 C36.71878315 2.03779677 40.35938164 2.02053099 44 2 C44 2.33 44 2.66 44 3 C39.71 3 35.42 3 31 3 C31 10.59 31 18.18 31 26 C30.67 26 30.34 26 30 26 C30 20.39 30 14.78 30 9 C28.68 9 27.36 9 26 9 C26 14.61 26 20.22 26 26 C23.69 26.33 21.38 26.66 19 27 C18.34 27.99 17.68 28.98 17 30 C14.6171875 30.29296875 14.6171875 30.29296875 11.875 30.1875 C10.96492187 30.16042969 10.05484375 30.13335937 9.1171875 30.10546875 C8.41851562 30.07066406 7.71984375 30.03585938 7 30 C7 29.67 7 29.34 7 29 C3.7 28.34 0.4 27.68 -3 27 C-3.33 25.02 -3.66 23.04 -4 21 C-0.59437148 20.22157062 2.50765756 19.90021879 6 20 C6 19.34 6 18.68 6 18 C1.05 16.02 1.05 16.02 -4 14 C-4 10.7 -4 7.4 -4 4 C-3.01 3.67 -2.02 3.34 -1 3 C-0.67 2.01 -0.34 1.02 0 0 Z " fill="#F9E2E3" transform="translate(147,26)"/>
<path d="M0 0 C12.625 -0.25 12.625 -0.25 16 2 C16.22265625 4.09375 16.22265625 4.09375 16.0625 6.5 C15.87085949 8.85335636 15.87085949 8.85335636 16 11 C16.66 11.66 17.32 12.32 18 13 C18.4375 15.875 18.4375 15.875 18 19 C15.81235324 21.53258691 14.07384838 22.8506728 10.71411133 23.31787109 C8.02778544 23.39369994 5.37298847 23.34868933 2.6875 23.25 C1.75615234 23.23195313 0.82480469 23.21390625 -0.13476562 23.1953125 C-2.42424197 23.14834888 -4.71158184 23.08269475 -7 23 C-7 22.67 -7 22.34 -7 22 C-5.35 22 -3.7 22 -2 22 C-2.66 19.36 -3.32 16.72 -4 14 C-3.34 14.33 -2.68 14.66 -2 15 C-1.67 15.99 -1.34 16.98 -1 18 C-0.505 9.09 -0.505 9.09 0 0 Z " fill="#CE2A31" transform="translate(221,29)"/>
<path d="M0 0 C2.77292298 1.39688601 4.62689346 2.92353177 7 5 C7 5.66 7 6.32 7 7 C4.1875 7.625 4.1875 7.625 1 8 C0.01 7.34 -0.98 6.68 -2 6 C-5.32240324 6.3241369 -6.60776303 6.60776303 -9 9 C-9.34490322 13.05261287 -9.30163882 14.54754176 -7 18 C-3.91634129 18.2502157 -3.91634129 18.2502157 -1 18 C-0.67 17.34 -0.34 16.68 0 16 C-1.32 16 -2.64 16 -4 16 C-4 14.35 -4 12.7 -4 11 C-0.04 11 3.92 11 8 11 C8 18.06735014 7.54147136 18.35039837 3 23 C-1.0273829 25.01369145 -5.64210896 24.72325055 -10 24 C-13.0429989 22.21000065 -14.58352346 20.2156302 -16 17 C-16.90539284 12.7726143 -17.03754978 8.94933595 -14.96875 5.0625 C-10.99819867 0.0266788 -6.17777649 -1.03714496 0 0 Z " fill="#DA5B60" transform="translate(280,28)"/>
<path d="M0 0 C2.97851562 0.24414062 2.97851562 0.24414062 5.95703125 0.48828125 C6.21097656 1.41769531 6.46492188 2.34710937 6.7265625 3.3046875 C8.82496476 11.1244897 8.82496476 11.1244897 11.70703125 18.67578125 C12.95703125 21.48828125 12.95703125 21.48828125 12.95703125 24.48828125 C10.64703125 24.48828125 8.33703125 24.48828125 5.95703125 24.48828125 C5.95703125 23.16828125 5.95703125 21.84828125 5.95703125 20.48828125 C2.65703125 20.48828125 -0.64296875 20.48828125 -4.04296875 20.48828125 C-4.37296875 21.47828125 -4.70296875 22.46828125 -5.04296875 23.48828125 C-6.69296875 23.48828125 -8.34296875 23.48828125 -10.04296875 23.48828125 C-9.48111081 17.16737945 -7.05347674 1.6858214 0 0 Z " fill="#D53539" transform="translate(251.04296875,27.51171875)"/>
<path d="M0 0 C0.66 0 1.32 0 2 0 C2 1.98 2 3.96 2 6 C49.19 6 96.38 6 145 6 C145 4.02 145 2.04 145 0 C145.33 0 145.66 0 146 0 C146 2.64 146 5.28 146 8 C127.11162119 8.02332783 108.22324529 8.0409786 89.33485508 8.05181217 C80.56527285 8.05697538 71.79569955 8.06401854 63.02612305 8.07543945 C55.38537097 8.08538554 47.74462536 8.09185325 40.10386699 8.09408849 C36.05561615 8.09539573 32.00738381 8.09848238 27.95913887 8.10573006 C24.15319131 8.11248909 20.34726998 8.1146172 16.54131699 8.11310768 C15.14042328 8.11338406 13.73952875 8.11538988 12.33864021 8.11920547 C10.43410492 8.12414083 8.52955574 8.122398 6.62501526 8.12025452 C5.55665719 8.12117631 4.48829912 8.1220981 3.38756657 8.12304783 C1 8 1 8 0 7 C-0.04092937 4.66702567 -0.04241723 2.33294775 0 0 Z " fill="#6C6A6A" transform="translate(143,15)"/>
<path d="M0 0 C10.26393816 0.02179325 20.463987 0.49921532 30.70678711 1.1328125 C32.32460141 1.22957289 33.94243993 1.32592913 35.56030273 1.421875 C39.46359124 1.65421694 43.36651538 1.89195207 47.26928711 2.1328125 C47.26928711 3.4528125 47.26928711 4.7728125 47.26928711 6.1328125 C41.91669631 6.42137428 36.5639171 6.70604725 31.2109375 6.98730469 C29.39447614 7.08327233 27.57806807 7.18025489 25.76171875 7.27832031 C2.59838849 8.52729218 2.59838849 8.52729218 -2.73071289 8.1328125 C-3.73071289 7.1328125 -3.73071289 7.1328125 -3.85571289 4.1328125 C-3.69099225 0.17951719 -3.69099225 0.17951719 0 0 Z " fill="#E76129" transform="translate(41.730712890625,14.8671875)"/>
<path d="M0 0 C16.775817 -0.29736245 33.29361532 0.47088592 50 2 C50 2.99 50 3.98 50 5 C33.29361532 6.52911408 16.775817 7.29736245 0 7 C-1.125 2.25 -1.125 2.25 0 0 Z " fill="#E38C66" transform="translate(39,27)"/>
<path d="M0 0 C10.43940475 -0.32449438 20.79388222 0.65826666 31.1875 1.5 C33.01624489 1.64492491 34.84502076 1.78945935 36.67382812 1.93359375 C41.11625552 2.28456127 45.55823004 2.64081178 50 3 C50 3.99 50 4.98 50 6 C44.6474092 6.28856178 39.29462999 6.57323475 33.94165039 6.85449219 C32.12518903 6.95045983 30.30878096 7.04744239 28.49243164 7.14550781 C5.32910138 8.39447968 5.32910138 8.39447968 0 8 C-0.33 7.67 -0.66 7.34 -1 7 C-0.71269945 4.66055264 -0.38063221 2.3260857 0 0 Z " fill="#E2713F" transform="translate(39,38)"/>
<path d="M0 0 C2.97 0 5.94 0 9 0 C10.00526268 3.10255177 11.0043978 6.20684899 12 9.3125 C12.28617188 10.19357422 12.57234375 11.07464844 12.8671875 11.98242188 C13.13789063 12.82998047 13.40859375 13.67753906 13.6875 14.55078125 C13.93886719 15.33106689 14.19023437 16.11135254 14.44921875 16.9152832 C15 19 15 19 15 22 C13.35 22 11.7 22 10 22 C9.64808594 21.03320312 9.64808594 21.03320312 9.2890625 20.046875 C8.18838927 17.7922092 8.18838927 17.7922092 5.8359375 17.390625 C4.61777344 17.32101563 4.61777344 17.32101563 3.375 17.25 C2.55773437 17.19328125 1.74046875 17.1365625 0.8984375 17.078125 C-0.04128906 17.03945313 -0.04128906 17.03945313 -1 17 C-1 17.66 -1 18.32 -1 19 C-1.66 19 -2.32 19 -3 19 C-2.88573491 16.58239124 -2.75900339 14.16652782 -2.625 11.75 C-2.5940625 11.06808594 -2.563125 10.38617188 -2.53125 9.68359375 C-2.30216068 5.75089375 -1.80552897 3.61105794 0 0 Z " fill="#DF2226" transform="translate(204,29)"/>
<path d="M0 0 C0.66 0.66 1.32 1.32 2 2 C1.625 4.125 1.625 4.125 1 6 C-1.31 6 -3.62 6 -6 6 C-5.67 6.99 -5.34 7.98 -5 9 C-2.69747517 10.06902939 -0.3627974 11.07175817 2 12 C3 13 3 13 3.375 16.3125 C3 20 3 20 1.0625 22.4375 C-3.05099921 24.53622409 -6.47180448 24.35515259 -11 24 C-12.0625 22.125 -12.0625 22.125 -13 20 C-12.67 19.34 -12.34 18.68 -12 18 C-9.36 18 -6.72 18 -4 18 C-4 17.34 -4 16.68 -4 16 C-4.56589844 15.72285156 -5.13179687 15.44570313 -5.71484375 15.16015625 C-6.44832031 14.79792969 -7.18179688 14.43570313 -7.9375 14.0625 C-9.03384766 13.52302734 -9.03384766 13.52302734 -10.15234375 12.97265625 C-12 12 -12 12 -13 11 C-13.375 7.6875 -13.375 7.6875 -13 4 C-9.17941405 -0.65633912 -5.62140293 -0.55292488 0 0 Z " fill="#D74045" transform="translate(157,28)"/>
<path d="M0 0 C9.9 0 19.8 0 30 0 C30 0.66 30 1.32 30 2 C25.545 2.495 25.545 2.495 21 3 C23.76605854 4.38302927 26.23409046 4.32662773 29.3203125 4.53515625 C31.20556641 4.66567383 31.20556641 4.66567383 33.12890625 4.79882812 C34.46093144 4.8868106 35.79296277 4.97470002 37.125 5.0625 C38.46487045 5.15390628 39.80471464 5.2456984 41.14453125 5.33789062 C44.42944827 5.56239934 47.71458431 5.78293128 51 6 C51 6.66 51 7.32 51 8 C42.428611 8.13150784 33.98012593 7.74494207 25.4375 7.0625 C24.29603516 6.97548828 23.15457031 6.88847656 21.97851562 6.79882812 C14.97995903 6.25924781 7.988611 5.65554071 1 5 C1 7.31 1 9.62 1 12 C10.24 12 19.48 12 29 12 C29 12.33 29 12.66 29 13 C21.60102225 13.72059609 14.24403243 14.12413833 6.8125 14.1875 C6.07008057 14.20039062 5.32766113 14.21328125 4.56274414 14.2265625 C2.706962 14.23000511 0.85167507 14.123445 -1 14 C-1.66 13.34 -2.32 12.68 -3 12 C-2.52942333 7.88245417 -1.13823156 3.98381046 0 0 Z " fill="#FEF3E3" transform="translate(38,33)"/>
<path d="M0 0 C6.51791392 -0.3540919 11.17521449 -0.03901852 17 3 C16.979375 3.969375 16.95875 4.93875 16.9375 5.9375 C16.64381501 8.87465895 16.64381501 8.87465895 18 10 C18.07205511 11.68608966 18.08386068 13.37500659 18.0625 15.0625 C18.05347656 15.98160156 18.04445313 16.90070312 18.03515625 17.84765625 C18.02355469 18.55792969 18.01195312 19.26820312 18 20 C17.34 20 16.68 20 16 20 C16.33 17.36 16.66 14.72 17 12 C13.04 12 9.08 12 5 12 C5 13.65 5 15.3 5 17 C6.32 17 7.64 17 9 17 C8.67 17.99 8.34 18.98 8 20 C5.1875 20.25 5.1875 20.25 2 20 C-0.56002346 17.781313 -0.94923191 16.34812407 -1.4375 13 C-1 10 -1 10 0.625 7.5625 C3 6 3 6 6 6.1875 C6.99 6.455625 7.98 6.72375 9 7 C11.56594408 7.65981419 13.30497325 8 16 8 C12.04515752 3.4996301 12.04515752 3.4996301 6.6171875 1.90234375 C5.25980469 1.91974609 5.25980469 1.91974609 3.875 1.9375 C2.96492188 1.94652344 2.05484375 1.95554687 1.1171875 1.96484375 C0.06917969 1.98224609 0.06917969 1.98224609 -1 2 C-0.67 1.34 -0.34 0.68 0 0 Z " fill="#F7C3C2" transform="translate(271,27)"/>
<path d="M0 0 C10.05859375 -0.09765625 10.05859375 -0.09765625 13 0 C14 1 14 1 14.02734375 2.99609375 C13.96754002 4.62119521 13.90504815 6.24620002 13.83984375 7.87109375 C13.78376056 10.21847324 13.78376056 10.21847324 16 12 C16.1875 15.0625 16.1875 15.0625 16 18 C15 19 15 19 12.4375 19.0625 C11.633125 19.041875 10.82875 19.02125 10 19 C10.0928125 17.5459375 10.0928125 17.5459375 10.1875 16.0625 C10.1875 11.50673062 9.11033857 7.04698673 7 3 C6.01 2.67 5.02 2.34 4 2 C3.67 7.61 3.34 13.22 3 19 C2.01 19 1.02 19 0 19 C0 12.73 0 6.46 0 0 Z " fill="#D92A2F" transform="translate(223,30)"/>
<path d="M0 0 C5.28 0 10.56 0 16 0 C16 1.65 16 3.3 16 5 C14.02 5 12.04 5 10 5 C10 10.61 10 16.22 10 22 C8.35 22 6.7 22 5 22 C5 16.39 5 10.78 5 5 C3.35 5 1.7 5 0 5 C0 3.35 0 1.7 0 0 Z " fill="#DD353D" transform="translate(161,29)"/>
<path d="M0 0 C1.79206547 0.14084796 3.58364917 0.28783701 5.375 0.4375 C6.87160156 0.55931641 6.87160156 0.55931641 8.3984375 0.68359375 C11 1 11 1 13 2 C15.32416296 2.08586809 17.65083307 2.10711043 19.9765625 2.09765625 C20.66181 2.0962413 21.3470575 2.09482635 22.05307007 2.09336853 C24.24375761 2.08776675 26.4343433 2.07521406 28.625 2.0625 C30.10937352 2.05748522 31.59374865 2.05292228 33.078125 2.04882812 C36.71878315 2.03779677 40.35938164 2.02053099 44 2 C44 2.33 44 2.66 44 3 C39.71 3 35.42 3 31 3 C31 10.59 31 18.18 31 26 C30.67 26 30.34 26 30 26 C30 20.39 30 14.78 30 9 C28.68 9 27.36 9 26 9 C26 14.61 26 20.22 26 26 C23.36 26 20.72 26 18 26 C18 20.06 18 14.12 18 8 C18.33 8 18.66 8 19 8 C19 13.61 19 19.22 19 25 C20.65 25 22.3 25 24 25 C24 19.39 24 13.78 24 8 C25.98 8 27.96 8 30 8 C30 6.35 30 4.7 30 3 C24.72 3 19.44 3 14 3 C14 4.65 14 6.3 14 8 C13.505 7.175 13.01 6.35 12.5 5.5 C9.84779265 2.84779265 9.50274774 2.60455963 6 2.5 C3.46679234 2.68431921 1.86616469 3.05688001 -0.5 4.0625 C-2.76982201 6.99435344 -2.3264586 9.40895535 -2 13 C-1.67 13.66 -1.34 14.32 -1 15 C-1.99 14.67 -2.98 14.34 -4 14 C-4 10.7 -4 7.4 -4 4 C-3.01 3.67 -2.02 3.34 -1 3 C-0.67 2.01 -0.34 1.02 0 0 Z " fill="#F4ACAF" transform="translate(147,26)"/>
<path d="M0 0 C2.76852953 1.40251308 4.62783046 2.92435165 7 5 C7 5.66 7 6.32 7 7 C4.1875 7.625 4.1875 7.625 1 8 C0.01 7.34 -0.98 6.68 -2 6 C-5.32240324 6.3241369 -6.60776303 6.60776303 -9 9 C-9.46290221 11.66242821 -9.46290221 11.66242821 -9.625 14.625 C-9.69976562 15.62789062 -9.77453125 16.63078125 -9.8515625 17.6640625 C-9.90054687 18.43492188 -9.94953125 19.20578125 -10 20 C-10.99 19.67 -11.98 19.34 -13 19 C-15.25908782 13.24959465 -15.07719933 9.68202277 -13.1171875 3.8828125 C-10.37676518 -0.73566149 -4.87946868 -0.91433458 0 0 Z " fill="#D62B34" transform="translate(280,28)"/>
<path d="M0 0 C0.99 0.33 1.98 0.66 3 1 C4.09506492 4.28519475 4.09960608 6.73663415 4.0625 10.1875 C4.05347656 11.27417969 4.04445312 12.36085938 4.03515625 13.48046875 C4.02355469 14.31191406 4.01195312 15.14335938 4 16 C4.66 16.33 5.32 16.66 6 17 C5.67 18.32 5.34 19.64 5 21 C6.98 20.67 8.96 20.34 11 20 C10.505 21.485 10.505 21.485 10 23 C8.02 23 6.04 23 4 23 C3.67 23.99 3.34 24.98 3 26 C-2.94 26 -8.88 26 -15 26 C-14.67 25.01 -14.34 24.02 -14 23 C-16.97 23 -19.94 23 -23 23 C-23.33 21.68 -23.66 20.36 -24 19 C-23.34 19.33 -22.68 19.66 -22 20 C-22 20.66 -22 21.32 -22 22 C-18.74899223 21.9189487 -15.49983665 21.80612351 -12.25 21.6875 C-10.86941406 21.65366211 -10.86941406 21.65366211 -9.4609375 21.61914062 C-8.57148438 21.58369141 -7.68203125 21.54824219 -6.765625 21.51171875 C-5.54020996 21.47244263 -5.54020996 21.47244263 -4.29003906 21.43237305 C-1.47515225 20.90090561 -0.05591622 19.97708865 2 18 C2.50010524 14.95769177 2.50010524 14.95769177 2 12 C1.34 11.34 0.68 10.68 0 10 C-0.1953125 7.6171875 -0.1953125 7.6171875 -0.125 4.875 C-0.10695312 3.96492188 -0.08890625 3.05484375 -0.0703125 2.1171875 C-0.04710937 1.41851563 -0.02390625 0.71984375 0 0 Z " fill="#FCF1F0" transform="translate(236,30)"/>
<path d="M0 0 C1.32 0 2.64 0 4 0 C4 5.61 4 11.22 4 17 C6.31 17 8.62 17 11 17 C10.04296875 18.984375 10.04296875 18.984375 8 21 C5.09705206 21.52039056 2.24999543 21.37530743 -0.6875 21.25 C-1.48478516 21.23195313 -2.28207031 21.21390625 -3.10351562 21.1953125 C-5.06952449 21.14822247 -7.03491494 21.07647899 -9 21 C-8.67 19.68 -8.34 18.36 -8 17 C-5.36 17 -2.72 17 0 17 C0 11.39 0 5.78 0 0 Z " fill="#FCF8F5" transform="translate(173,35)"/>
<path d="M0 0 C5.09066226 0.09341361 10.18084204 0.19947911 15.27099609 0.31738281 C17.00334407 0.35571341 18.73577274 0.39055906 20.46826172 0.421875 C22.95569749 0.46743765 25.44257566 0.52544503 27.9296875 0.5859375 C28.70682098 0.59748871 29.48395447 0.60903992 30.28463745 0.62094116 C35.77225659 0.77225659 35.77225659 0.77225659 38 3 C26.46437417 6.38113171 12.93214097 5.12301176 1 5 C0.67 3.35 0.34 1.7 0 0 Z " fill="#E56129" transform="translate(40,28)"/>
<path d="M0 0 C4.8929813 -0.02477941 9.7859258 -0.04289763 14.67895508 -0.05493164 C16.34237301 -0.05995023 18.00578656 -0.06676652 19.66918945 -0.07543945 C22.06462693 -0.08761357 24.46000591 -0.09325314 26.85546875 -0.09765625 C27.96513252 -0.10539818 27.96513252 -0.10539818 29.09721375 -0.11329651 C32.87503488 -0.11370394 36.31939015 0.17037768 40 1 C42.39544714 1.04301589 44.79200711 1.04038766 47.1875 1 C53.77912867 0.88956434 53.77912867 0.88956434 56 2 C55.67 4.31 55.34 6.62 55 9 C54.01 9.33 53.02 9.66 52 10 C51.34 9.67 50.68 9.34 50 9 C48.6265365 8.84995027 47.2471474 8.75161994 45.8671875 8.68359375 C45.06152344 8.64169922 44.25585938 8.59980469 43.42578125 8.55664062 C42.58402344 8.51732422 41.74226563 8.47800781 40.875 8.4375 C40.02550781 8.39431641 39.17601562 8.35113281 38.30078125 8.30664062 C36.20071777 8.20045764 34.10038052 8.09971503 32 8 C32 7.67 32 7.34 32 7 C38.93 7 45.86 7 53 7 C53 5.68 53 4.36 53 3 C51.98164062 3.01160156 50.96328125 3.02320313 49.9140625 3.03515625 C41.45664358 3.09982469 33.07429276 2.89302706 24.63378906 2.35791016 C17.41590551 1.91964761 10.2295934 1.90403195 3 2 C2.67 3.65 2.34 5.3 2 7 C1.34 7 0.68 7 0 7 C0 4.69 0 2.38 0 0 Z " fill="#FCDDC7" transform="translate(36,14)"/>
<path d="M0 0 C2.31 0 4.62 0 7 0 C7.33 1.32 7.66 2.64 8 4 C10.97 4 13.94 4 17 4 C16.67 4.99 16.34 5.98 16 7 C6.1 7 -3.8 7 -14 7 C-14.33 6.01 -14.66 5.02 -15 4 C-10.38 3.67 -5.76 3.34 -1 3 C-0.67 2.01 -0.34 1.02 0 0 Z " fill="#FCFBF9" transform="translate(205,49)"/>
<path d="M0 0 C2.14576637 -0.02685938 4.29162645 -0.04633088 6.4375 -0.0625 C7.63246094 -0.07410156 8.82742187 -0.08570313 10.05859375 -0.09765625 C13 0 13 0 14 1 C14.14115161 3.67058851 14.04247107 6.32432238 14 9 C12.02090602 9.02686553 10.04171029 9.04633375 8.0625 9.0625 C6.96035156 9.07410156 5.85820313 9.08570312 4.72265625 9.09765625 C2 9 2 9 1 8 C0.54540142 5.34536879 0.29756762 2.67810862 0 0 Z " fill="#EBCFC0" transform="translate(73,57)"/>
<path d="M0 0 C1.37432457 3.81756824 0.67975039 7.07255329 0 11 C0.66 11 1.32 11 2 11 C2 10.34 2 9.68 2 9 C4.97 9 7.94 9 11 9 C11.66 10.32 12.32 11.64 13 13 C9.7 12.34 6.4 11.68 3 11 C2.67 12.32 2.34 13.64 2 15 C-2.62 15 -7.24 15 -12 15 C-12.99 12.69 -13.98 10.38 -15 8 C-14.34 8 -13.68 8 -13 8 C-13 8.66 -13 9.32 -13 10 C-12.34 10 -11.68 10 -11 10 C-11 10.66 -11 11.32 -11 12 C-10.34 12 -9.68 12 -9 12 C-9.33 10.35 -9.66 8.7 -10 7 C-9.01 7.66 -8.02 8.32 -7 9 C-7 9.66 -7 10.32 -7 11 C-5.68 11 -4.36 11 -3 11 C-2.86722656 10.37351562 -2.73445312 9.74703125 -2.59765625 9.1015625 C-2.42105469 8.28429688 -2.24445313 7.46703125 -2.0625 6.625 C-1.88847656 5.81289063 -1.71445313 5.00078125 -1.53515625 4.1640625 C-1 2 -1 2 0 0 Z " fill="#D95F61" transform="translate(201,37)"/>
<path d="M0 0 C1.14984375 -0.00128906 2.2996875 -0.00257812 3.484375 -0.00390625 C5.28648438 0.00189453 5.28648438 0.00189453 7.125 0.0078125 C8.32640625 0.00394531 9.5278125 0.00007813 10.765625 -0.00390625 C11.91546875 -0.00261719 13.0653125 -0.00132813 14.25 0 C15.83167969 0.00169189 15.83167969 0.00169189 17.4453125 0.00341797 C20.125 0.1328125 20.125 0.1328125 23.125 1.1328125 C24.82367188 1.28059186 26.52677489 1.38028316 28.23046875 1.44921875 C29.70483398 1.51206055 29.70483398 1.51206055 31.20898438 1.57617188 C32.74522461 1.63514648 32.74522461 1.63514648 34.3125 1.6953125 C35.86614258 1.76008789 35.86614258 1.76008789 37.45117188 1.82617188 C40.0089819 1.93225616 42.56688845 2.03431396 45.125 2.1328125 C45.62 4.6078125 45.62 4.6078125 46.125 7.1328125 C45.465 7.1328125 44.805 7.1328125 44.125 7.1328125 C44.125 6.1428125 44.125 5.1528125 44.125 4.1328125 C43.46306641 4.10775635 42.80113281 4.0827002 42.11914062 4.05688477 C26.11959029 3.44988187 10.12168541 2.81115572 -5.875 2.1328125 C-6.205 4.1128125 -6.535 6.0928125 -6.875 8.1328125 C-7.535 7.8028125 -8.195 7.4728125 -8.875 7.1328125 C-8.875 5.1528125 -8.875 3.1728125 -8.875 1.1328125 C-5.67587999 0.06643916 -3.3612254 0.00359544 0 0 Z " fill="#FCE7D6" transform="translate(44.875,24.8671875)"/>
<path d="M0 0 C2.97 0 5.94 0 9 0 C11.53747149 6.72981569 12.61117007 12.8267581 13 20 C12.34 20 11.68 20 11 20 C11 17.36 11 14.72 11 12 C10.01 12 9.02 12 8 12 C8 12.99 8 13.98 8 15 C5.69 15 3.38 15 1 15 C1 13.02 1 11.04 1 9 C3.375 7.9375 3.375 7.9375 6 7 C6.66 7.33 7.32 7.66 8 8 C8 5.69 8 3.38 8 1 C5.69 1.33 3.38 1.66 1 2 C0.34 3.98 -0.32 5.96 -1 8 C-1.625 6.25 -1.625 6.25 -2 4 C-1.34 2.68 -0.68 1.36 0 0 Z " fill="#DD525B" transform="translate(204,29)"/>
<path d="M0 0 C1.65 0 3.3 0 5 0 C6.34886782 2.7770808 7.02945279 4.5778434 6.8125 7.6875 C6 10 6 10 3 12 C0.73828125 12.1953125 0.73828125 12.1953125 -1.6875 12.125 C-2.49574219 12.10695313 -3.30398437 12.08890625 -4.13671875 12.0703125 C-5.05904297 12.03550781 -5.05904297 12.03550781 -6 12 C-7.0625 10.125 -7.0625 10.125 -8 8 C-7.67 7.34 -7.34 6.68 -7 6 C-4.36 6 -1.72 6 1 6 C0.67 4.02 0.34 2.04 0 0 Z " fill="#D64246" transform="translate(152,40)"/>
<path d="M0 0 C10.11261606 0.02140236 20.16281531 0.48550312 30.25390625 1.1328125 C30.25390625 1.4628125 30.25390625 1.7928125 30.25390625 2.1328125 C20.02390625 2.1328125 9.79390625 2.1328125 -0.74609375 2.1328125 C-0.74609375 3.4528125 -0.74609375 4.7728125 -0.74609375 6.1328125 C8.16390625 6.1328125 17.07390625 6.1328125 26.25390625 6.1328125 C26.25390625 6.4628125 26.25390625 6.7928125 26.25390625 7.1328125 C3.186437 8.55391072 3.186437 8.55391072 -2.74609375 8.1328125 C-3.74609375 7.1328125 -3.74609375 7.1328125 -3.87109375 4.1328125 C-3.70636219 0.17925507 -3.70636219 0.17925507 0 0 Z " fill="#E08860" transform="translate(41.74609375,14.8671875)"/>
<path d="M0 0 C0.89203125 0.00902344 1.7840625 0.01804688 2.703125 0.02734375 C3.37859375 0.03894531 4.0540625 0.05054688 4.75 0.0625 C4.75 2.0425 4.75 4.0225 4.75 6.0625 C3.615625 6.18625 2.48125 6.31 1.3125 6.4375 C-0.4509375 6.746875 -0.4509375 6.746875 -2.25 7.0625 C-2.58 7.7225 -2.91 8.3825 -3.25 9.0625 C-4.91611905 9.105221 -6.58382885 9.10313832 -8.25 9.0625 C-9.25 8.0625 -9.25 8.0625 -9.3125 4.5 C-9.291875 3.365625 -9.27125 2.23125 -9.25 1.0625 C-6.09493858 0.12630187 -3.28413498 -0.0432123 0 0 Z " fill="#F3DFD1" transform="translate(46.25,56.9375)"/>
<path d="M0 0 C7.42857143 -0.14285714 7.42857143 -0.14285714 11 1 C11 3.64 11 6.28 11 9 C7.37 9 3.74 9 0 9 C0 6.03 0 3.06 0 0 Z " fill="#EBCCBC" transform="translate(21,57)"/>
<path d="M0 0 C3.63 0 7.26 0 11 0 C10.71860476 3.65813817 10.43656214 6.31896306 8.4375 9.4375 C4.7972938 11.77096551 2.29300673 11.34071482 -2 11 C-2.99 10.67 -3.98 10.34 -5 10 C-5 9.34 -5 8.68 -5 8 C-1.7 8 1.6 8 5 8 C5 6.35 5 4.7 5 3 C3.35 3 1.7 3 0 3 C0 2.01 0 1.02 0 0 Z " fill="#CE2F32" transform="translate(277,40)"/>
<path d="M0 0 C0.66 0 1.32 0 2 0 C4.04169485 2.90548882 5 4.40142046 5 8 C9.62 8 14.24 8 19 8 C19.33 6.68 19.66 5.36 20 4 C22.64 4 25.28 4 28 4 C28 4.33 28 4.66 28 5 C25.69 5 23.38 5 21 5 C20.67 6.32 20.34 7.64 20 9 C13.565 9.495 13.565 9.495 7 10 C7 10.66 7 11.32 7 12 C3.7 12 0.4 12 -3 12 C-2.34 11.01 -1.68 10.02 -1 9 C-0.54605448 6.72087062 -0.54605448 6.72087062 -0.375 4.3125 C-0.30023438 3.50425781 -0.22546875 2.69601563 -0.1484375 1.86328125 C-0.09945312 1.24839844 -0.05046875 0.63351563 0 0 Z " fill="#FCEDED" transform="translate(184,44)"/>
<path d="M0 0 C2.01822917 0.06510417 4.03645833 0.13020833 6.0546875 0.1953125 C6.7146875 3.4953125 7.3746875 6.7953125 8.0546875 10.1953125 C6.0546875 9.1953125 6.0546875 9.1953125 4.9296875 6.1328125 C4.6409375 5.1634375 4.3521875 4.1940625 4.0546875 3.1953125 C2.0746875 3.1953125 0.0946875 3.1953125 -1.9453125 3.1953125 C-2.2753125 5.5053125 -2.6053125 7.8153125 -2.9453125 10.1953125 C-1.9553125 9.5353125 -0.9653125 8.8753125 0.0546875 8.1953125 C1.0446875 8.1953125 2.0346875 8.1953125 3.0546875 8.1953125 C3.0546875 10.8353125 3.0546875 13.4753125 3.0546875 16.1953125 C1.0746875 16.1953125 -0.9053125 16.1953125 -2.9453125 16.1953125 C-2.9453125 14.8753125 -2.9453125 13.5553125 -2.9453125 12.1953125 C-3.9353125 11.8653125 -4.9253125 11.5353125 -5.9453125 11.1953125 C-5.66289609 9.73515959 -5.36904636 8.27721457 -5.0703125 6.8203125 C-4.90789062 6.00820313 -4.74546875 5.19609375 -4.578125 4.359375 C-3.76922458 1.5931353 -2.97359843 0.29855406 0 0 Z " fill="#E26C71" transform="translate(250.9453125,27.8046875)"/>
<path d="M0 0 C1.670625 0.061875 1.670625 0.061875 3.375 0.125 C3.705 0.785 4.035 1.445 4.375 2.125 C3.385 2.125 2.395 2.125 1.375 2.125 C1.045 4.435 0.715 6.745 0.375 9.125 C1.695 9.125 3.015 9.125 4.375 9.125 C4.045 10.115 3.715 11.105 3.375 12.125 C0.5625 12.375 0.5625 12.375 -2.625 12.125 C-5.26161642 9.83993243 -5.58994766 8.47552338 -5.9375 5 C-5.45262176 0.5391202 -4.43199855 0.15282754 0 0 Z " fill="#F9DADA" transform="translate(275.625,34.875)"/>
<path d="M0 0 C0.66 0 1.32 0 2 0 C2 1.98 2 3.96 2 6 C5.41751653 7.13917218 8.03487937 7.11338481 11.63671875 7.09765625 C12.93544922 7.09443359 14.23417969 7.09121094 15.57226562 7.08789062 C16.94401108 7.07953531 18.31575587 7.07107037 19.6875 7.0625 C21.07096195 7.05748335 22.45442563 7.05292073 23.83789062 7.04882812 C27.22530395 7.03702529 30.61263033 7.02056019 34 7 C34 7.33 34 7.66 34 8 C33.28972656 8.06058594 32.57945313 8.12117188 31.84765625 8.18359375 C30.92855469 8.26738281 30.00945312 8.35117187 29.0625 8.4375 C28.14597656 8.51871094 27.22945312 8.59992187 26.28515625 8.68359375 C24.03840268 8.76044976 24.03840268 8.76044976 23 10 C21.58672053 10.15620555 20.1664541 10.25056173 18.74609375 10.31640625 C17.46508789 10.37924805 17.46508789 10.37924805 16.15820312 10.44335938 C15.26037109 10.48267578 14.36253906 10.52199219 13.4375 10.5625 C12.53580078 10.60568359 11.63410156 10.64886719 10.70507812 10.69335938 C8.47021515 10.79978142 6.23523692 10.90179988 4 11 C3.67 10.01 3.34 9.02 3 8 C0.99983534 6.79117904 0.99983534 6.79117904 -1 6 C-1.042721 4.33388095 -1.04063832 2.66617115 -1 1 C-0.67 0.67 -0.34 0.34 0 0 Z " fill="#FDF4EB" transform="translate(34,15)"/>
<path d="M0 0 C3.3 0.33 6.6 0.66 10 1 C10 1.33 10 1.66 10 2 C7.03 2 4.06 2 1 2 C1 2.66 1 3.32 1 4 C4.63 4 8.26 4 12 4 C12 4.33 12 4.66 12 5 C8.37 5 4.74 5 1 5 C1 7.31 1 9.62 1 12 C10.24 12 19.48 12 29 12 C29 12.33 29 12.66 29 13 C21.60102225 13.72059609 14.24403243 14.12413833 6.8125 14.1875 C6.07008057 14.20039062 5.32766113 14.21328125 4.56274414 14.2265625 C2.706962 14.23000511 0.85167507 14.123445 -1 14 C-1.66 13.34 -2.32 12.68 -3 12 C-2.53128597 7.8987522 -1.16243456 3.95227751 0 0 Z " fill="#F9D9C4" transform="translate(38,33)"/>
<path d="M0 0 C1.890625 0.23046875 1.890625 0.23046875 4 1 C5.046875 2.92578125 5.046875 2.92578125 5.75 5.3125 C5.99234375 6.09238281 6.2346875 6.87226562 6.484375 7.67578125 C7 10 7 10 7 14 C4.69 14.33 2.38 14.66 0 15 C-0.1875 12.625 -0.1875 12.625 0 10 C0.99 9.34 1.98 8.68 3 8 C2.01 7.67 1.02 7.34 0 7 C0 4.69 0 2.38 0 0 Z " fill="#E15258" transform="translate(227,32)"/>
<path d="M0 0 C0.66 0 1.32 0 2 0 C2 1.98 2 3.96 2 6 C2.99 5.67 3.98 5.34 5 5 C5.73323796 2.98491642 5.73323796 2.98491642 6 1 C7.25955231 4.77865693 6.48087189 6.03411786 5.0625 9.6875 C4.68222656 10.68136719 4.30195313 11.67523438 3.91015625 12.69921875 C3.60980469 13.45847656 3.30945313 14.21773437 3 15 C1.68 15 0.36 15 -1 15 C-2.75 13 -2.75 13 -4 11 C-3.71125 10.484375 -3.4225 9.96875 -3.125 9.4375 C-1.71219973 6.37643275 -0.8751483 3.25055082 0 0 Z " fill="#F9DDDE" transform="translate(195,33)"/>
<path d="M0 0 C3.63 0 7.26 0 11 0 C11 0.33 11 0.66 11 1 C8.69 1.33 6.38 1.66 4 2 C3.67 7.61 3.34 13.22 3 19 C2.01 19 1.02 19 0 19 C0 12.73 0 6.46 0 0 Z " fill="#DE1F2C" transform="translate(223,30)"/>
<path d="M0 0 C1.07507813 0.00257812 2.15015625 0.00515625 3.2578125 0.0078125 C4.32773438 0.00523438 5.39765625 0.00265625 6.5 0 C9.3828125 0.1328125 9.3828125 0.1328125 12.3828125 1.1328125 C12.3828125 1.7928125 12.3828125 2.4528125 12.3828125 3.1328125 C7.4328125 2.8028125 2.4828125 2.4728125 -2.6171875 2.1328125 C-2.6171875 8.7328125 -2.6171875 15.3328125 -2.6171875 22.1328125 C-4.82927367 19.92072633 -6.2179656 17.93125631 -7.6171875 15.1328125 C-7.3046875 12.8203125 -7.3046875 12.8203125 -6.6171875 11.1328125 C-5.9571875 11.1328125 -5.2971875 11.1328125 -4.6171875 11.1328125 C-4.55660156 10.42253906 -4.49601563 9.71226563 -4.43359375 8.98046875 C-4.30791016 7.60181641 -4.30791016 7.60181641 -4.1796875 6.1953125 C-4.09847656 5.27878906 -4.01726562 4.36226562 -3.93359375 3.41796875 C-3.48318363 0.16500677 -3.32399226 0.1686802 0 0 Z " fill="#FCD9D6" transform="translate(223.6171875,26.8671875)"/>
<path d="M0 0 C4.43748574 -0.02939331 8.87494593 -0.04692963 13.3125 -0.0625 C15.17745117 -0.07506836 15.17745117 -0.07506836 17.08007812 -0.08789062 C24.44861031 -0.1072306 31.67757176 0.16096191 39 1 C39 1.66 39 2.32 39 3 C30.1976098 3.14569473 21.52221013 2.7048247 12.75 2 C10.89955078 1.85691406 10.89955078 1.85691406 9.01171875 1.7109375 C6.00746767 1.47804982 3.00360877 1.24100659 0 1 C0 0.67 0 0.34 0 0 Z " fill="#F7CFB9" transform="translate(50,38)"/>
<path d="M0 0 C3.3 0.33 6.6 0.66 10 1 C9.67 2.32 9.34 3.64 9 5 C9.33 5.99 9.66 6.98 10 8 C6.7 8.33 3.4 8.66 0 9 C0 6.03 0 3.06 0 0 Z " fill="#EBCAB6" transform="translate(58,57)"/>
<path d="M0 0 C0.66 0 1.32 0 2 0 C2.66 2.64 3.32 5.28 4 8 C4.66 7.01 5.32 6.02 6 5 C6.66 5.33 7.32 5.66 8 6 C7.95359375 6.65226562 7.9071875 7.30453125 7.859375 7.9765625 C7.60733435 14.07954686 8.03942021 17.2968115 12 22 C10.35 22.33 8.7 22.66 7 23 C5.8226504 19.92064034 4.66002109 16.83592484 3.5 13.75 C3.16613281 12.87730469 2.83226562 12.00460938 2.48828125 11.10546875 C2.01455078 9.83896484 2.01455078 9.83896484 1.53125 8.546875 C1.23798828 7.77182617 0.94472656 6.99677734 0.64257812 6.19824219 C0 4 0 4 0 0 Z " fill="#FEEBEC" transform="translate(257,29)"/>
<path d="M0 0 C2.7641404 1.408147 4.62873991 2.92514742 7 5 C7 5.66 7 6.32 7 7 C1.52667068 8.46845421 -1.11922548 7.44038726 -6 5 C-4.68 4.34 -3.36 3.68 -2 3 C-3.258125 3 -4.51625 3 -5.8125 3 C-8.20833333 3 -10.60416667 3 -13 3 C-8.90057402 -0.07456948 -5.01487814 -1.04082376 0 0 Z " fill="#D74950" transform="translate(280,28)"/>
<path d="M0 0 C4.29 0 8.58 0 13 0 C13 0.33 13 0.66 13 1 C9.04 1 5.08 1 1 1 C1 7.93 1 14.86 1 22 C4.96 22 8.92 22 13 22 C13 22.33 13 22.66 13 23 C6.4 23 -0.2 23 -7 23 C-7 22.67 -7 22.34 -7 22 C-5.35 22 -3.7 22 -2 22 C-2.66 19.36 -3.32 16.72 -4 14 C-3.34 14.33 -2.68 14.66 -2 15 C-1.67 15.99 -1.34 16.98 -1 18 C-0.505 9.09 -0.505 9.09 0 0 Z " fill="#E28788" transform="translate(221,29)"/>
<path d="M0 0 C1.4540625 0.0309375 1.4540625 0.0309375 2.9375 0.0625 C4.79526765 3.19748292 5.13890476 5.43721432 4.9375 9.0625 C3.9475 9.3925 2.9575 9.7225 1.9375 10.0625 C1.9375 8.7425 1.9375 7.4225 1.9375 6.0625 C-0.0425 6.7225 -2.0225 7.3825 -4.0625 8.0625 C-4.10491723 5.72955225 -4.10342937 3.39547433 -4.0625 1.0625 C-3.0625 0.0625 -3.0625 0.0625 0 0 Z " fill="#D72630" transform="translate(252.0625,29.9375)"/>
<path d="M0 0 C0.66 0.33 1.32 0.66 2 1 C2.3125 4.1875 2.3125 4.1875 2 8 C-0.5 10.9375 -0.5 10.9375 -3 13 C-3 11.35 -3 9.7 -3 8 C-4.98 8 -6.96 8 -9 8 C-9 6.02 -9 4.04 -9 2 C-6.03 2.495 -6.03 2.495 -3 3 C-3 4.32 -3 5.64 -3 7 C-2.01 7 -1.02 7 0 7 C0 4.69 0 2.38 0 0 Z " fill="#DA444A" transform="translate(193,31)"/>
<path d="M0 0 C6.93 0.33 13.86 0.66 21 1 C21 1.99 21 2.98 21 4 C7.635 4.495 7.635 4.495 -6 5 C-6 4.67 -6 4.34 -6 4 C0.93 3.01 0.93 3.01 8 2 C5.36 1.67 2.72 1.34 0 1 C0 0.67 0 0.34 0 0 Z " fill="#DD855D" transform="translate(68,40)"/>
<path d="M0 0 C0.99 0.33 1.98 0.66 3 1 C4.09506492 4.28519475 4.09960608 6.73663415 4.0625 10.1875 C4.05347656 11.27417969 4.04445312 12.36085938 4.03515625 13.48046875 C4.02355469 14.31191406 4.01195312 15.14335938 4 16 C4.66 16.33 5.32 16.66 6 17 C5.67 18.32 5.34 19.64 5 21 C6.98 20.67 8.96 20.34 11 20 C11 20.66 11 21.32 11 22 C9.741875 22.04125 8.48375 22.0825 7.1875 22.125 C6.47980469 22.14820312 5.77210938 22.17140625 5.04296875 22.1953125 C3 22 3 22 0 20 C0.66 19.34 1.32 18.68 2 18 C2.33333333 15 2.33333333 15 2 12 C1.34 11.34 0.68 10.68 0 10 C-0.1953125 7.6171875 -0.1953125 7.6171875 -0.125 4.875 C-0.10695312 3.96492188 -0.08890625 3.05484375 -0.0703125 2.1171875 C-0.04710937 1.41851563 -0.02390625 0.71984375 0 0 Z " fill="#F8D5D0" transform="translate(236,30)"/>
<path d="M0 0 C3.96 0 7.92 0 12 0 C12 1.32 12 2.64 12 4 C5.07 4 -1.86 4 -9 4 C-9 3.67 -9 3.34 -9 3 C-6.03 3 -3.06 3 0 3 C0 2.01 0 1.02 0 0 Z " fill="#DC906A" transform="translate(77,17)"/>
<path d="M0 0 C2.7053871 4.05808065 5 8.04889399 5 13 C2.69 13 0.38 13 -2 13 C-2 11.68 -2 10.36 -2 9 C-4.97 9 -7.94 9 -11 9 C-11 8.67 -11 8.34 -11 8 C-9.37509046 7.97301811 -7.75005367 7.95361243 -6.125 7.9375 C-5.22007812 7.92589844 -4.31515625 7.91429687 -3.3828125 7.90234375 C-1 8 -1 8 1 9 C0.67 6.03 0.34 3.06 0 0 Z " fill="#D35B63" transform="translate(259,39)"/>
<path d="M0 0 C3.63 0 7.26 0 11 0 C11 3.96 11 7.92 11 12 C10.34 12 9.68 12 9 12 C9 9.36 9 6.72 9 4 C4.545 3.01 4.545 3.01 0 2 C0 1.34 0 0.68 0 0 Z " fill="#FBF6F4" transform="translate(153,35)"/>
<path d="M0 0 C1.32 0 2.64 0 4 0 C4 2.97 4 5.94 4 9 C9.65305558 7.95813215 9.65305558 7.95813215 15 6 C15 6.99 15 7.98 15 9 C13.56496445 9.36402369 12.12683494 9.71586591 10.6875 10.0625 C9.48673828 10.35833984 9.48673828 10.35833984 8.26171875 10.66015625 C6 11 6 11 3 10 C1.25327015 6.5065403 0 3.93154432 0 0 Z " fill="#F7E6D8" transform="translate(54,57)"/>
<path d="M0 0 C0.88945313 0.04833984 1.77890625 0.09667969 2.6953125 0.14648438 C3.61570312 0.20255859 4.53609375 0.25863281 5.484375 0.31640625 C6.42023437 0.36861328 7.35609375 0.42082031 8.3203125 0.47460938 C10.62536387 0.6039745 12.92994789 0.73892659 15.234375 0.87890625 C15.234375 1.20890625 15.234375 1.53890625 15.234375 1.87890625 C9.44791856 3.13296763 3.74569384 2.99077538 -2.140625 2.94140625 C-3.16285156 2.93689453 -4.18507813 2.93238281 -5.23828125 2.92773438 C-7.74745694 2.91600925 -10.2565099 2.89959801 -12.765625 2.87890625 C-8.37416175 0.52633665 -4.97460257 -0.2869963 0 0 Z " fill="#DA6E37" transform="translate(52.765625,42.12109375)"/>
<path d="M0 0 C2.97 0.495 2.97 0.495 6 1 C5.67 3.31 5.34 5.62 5 8 C4.01 8.33 3.02 8.66 2 9 C1.34 8.67 0.68 8.34 0 8 C-1.3734635 7.84995027 -2.7528526 7.75161994 -4.1328125 7.68359375 C-4.93847656 7.64169922 -5.74414062 7.59980469 -6.57421875 7.55664062 C-7.41597656 7.51732422 -8.25773437 7.47800781 -9.125 7.4375 C-9.97449219 7.39431641 -10.82398437 7.35113281 -11.69921875 7.30664062 C-13.79928223 7.20045764 -15.89961948 7.09971503 -18 7 C-18 6.67 -18 6.34 -18 6 C-11.07 6 -4.14 6 3 6 C3 4.35 3 2.7 3 1 C2.01 0.67 1.02 0.34 0 0 Z " fill="#FCEBDC" transform="translate(86,15)"/>
<path d="M0 0 C0 3.3 0 6.6 0 10 C-0.99 10 -1.98 10 -3 10 C-3 8.35 -3 6.7 -3 5 C-3.99 5.495 -3.99 5.495 -5 6 C-5.309375 5.0409375 -5.309375 5.0409375 -5.625 4.0625 C-6.89538209 1.65074923 -6.89538209 1.65074923 -10.125 1.25 C-11.07375 1.1675 -12.0225 1.085 -13 1 C-13 0.67 -13 0.34 -13 0 C-11.39679026 -0.19551338 -9.79237014 -0.38111983 -8.1875 -0.5625 C-7.29417969 -0.66691406 -6.40085938 -0.77132813 -5.48046875 -0.87890625 C-3 -1 -3 -1 0 0 Z " fill="#DC363F" transform="translate(237,31)"/>
<path d="M0 0 C8 -0.15384615 8 -0.15384615 11 1 C11.33 1.66 11.66 2.32 12 3 C12.99 3 13.98 3 15 3 C14.67 5.31 14.34 7.62 14 10 C12.68 10 11.36 10 10 10 C8.875 4.25 8.875 4.25 10 2 C6.7 1.67 3.4 1.34 0 1 C0 0.67 0 0.34 0 0 Z " fill="#F9F3EA" transform="translate(22,56)"/>
<path d="M0 0 C0.8146875 0.00257812 1.629375 0.00515625 2.46875 0.0078125 C3.2834375 0.00523438 4.098125 0.00265625 4.9375 0 C6.96875 0.1328125 6.96875 0.1328125 7.96875 1.1328125 C8.00955783 3.13239614 8.01129356 5.13326504 7.96875 7.1328125 C7.63875 5.8128125 7.30875 4.4928125 6.96875 3.1328125 C4.32875 3.1328125 1.68875 3.1328125 -1.03125 3.1328125 C-1.03125 4.7828125 -1.03125 6.4328125 -1.03125 8.1328125 C-1.69125 8.1328125 -2.35125 8.1328125 -3.03125 8.1328125 C-3.07366723 5.79986475 -3.07217937 3.46578683 -3.03125 1.1328125 C-2.03125 0.1328125 -2.03125 0.1328125 0 0 Z " fill="#E8BDA6" transform="translate(97.03125,56.8671875)"/>
<path d="M0 0 C8.91 0 17.82 0 27 0 C27 0.99 27 1.98 27 3 C24.03 3 21.06 3 18 3 C18 2.34 18 1.68 18 1 C12.06 1 6.12 1 0 1 C0 0.67 0 0.34 0 0 Z " fill="#DD6A2E" transform="translate(50,17)"/>
<path d="M0 0 C2.64 0 5.28 0 8 0 C8 1.32 8 2.64 8 4 C6.68 4 5.36 4 4 4 C4.33 4.99 4.66 5.98 5 7 C3.35 7 1.7 7 0 7 C0 4.69 0 2.38 0 0 Z " fill="#EAAF90" transform="translate(22,58)"/>
<path d="M0 0 C0.99 0 1.98 0 3 0 C3 2.64 3 5.28 3 8 C4.35618499 6.87465895 4.35618499 6.87465895 4.0625 3.9375 C4.041875 2.968125 4.02125 1.99875 4 1 C6.12508244 4.18762365 6.5020163 6.26512223 7 10 C4.6875 10.3125 4.6875 10.3125 2 10 C0.125 7.8125 0.125 7.8125 -1 5 C-0.6875 2.1875 -0.6875 2.1875 0 0 Z " fill="#DD2220" transform="translate(212,41)"/>
<path d="M0 0 C0.66 0 1.32 0 2 0 C2 1.98 2 3.96 2 6 C3.98 6 5.96 6 8 6 C8.66 9.3 9.32 12.6 10 16 C9.34 16 8.68 16 8 16 C8 15.34 8 14.68 8 14 C7.34 14 6.68 14 6 14 C6.33 12.02 6.66 10.04 7 8 C4.69 7.67 2.38 7.34 0 7 C0 4.69 0 2.38 0 0 Z " fill="#DA3136" transform="translate(182,33)"/>
<path d="M0 0 C0.33 0 0.66 0 1 0 C1.33 4.95 1.66 9.9 2 15 C1.01 14.67 0.02 14.34 -1 14 C-1.765625 12.2578125 -1.765625 12.2578125 -2.25 10.125 C-2.42015625 9.42632812 -2.5903125 8.72765625 -2.765625 8.0078125 C-3 6 -3 6 -2 3 C-1.34 3 -0.68 3 0 3 C0 2.01 0 1.02 0 0 Z " fill="#DA2124" transform="translate(268,33)"/>
<path d="M0 0 C0.33 0.66 0.66 1.32 1 2 C2.65 1.67 4.3 1.34 6 1 C5.67 3.64 5.34 6.28 5 9 C5.66 9 6.32 9 7 9 C7 9.66 7 10.32 7 11 C5.68 10.67 4.36 10.34 3 10 C2.67 8.02 2.34 6.04 2 4 C1.34 5.32 0.68 6.64 0 8 C-0.66 8 -1.32 8 -2 8 C-2 6.35 -2 4.7 -2 3 C-1.34 3 -0.68 3 0 3 C0 2.01 0 1.02 0 0 Z " fill="#FAEDE4" transform="translate(89,56)"/>
<path d="M0 0 C1.65 0 3.3 0 5 0 C6.49821059 3.37097383 7 5.20442119 7 9 C5.35 9 3.7 9 2 9 C2.33 7.02 2.66 5.04 3 3 C2.01 2.67 1.02 2.34 0 2 C0 1.34 0 0.68 0 0 Z " fill="#DB252A" transform="translate(152,40)"/>
<path d="M0 0 C2.31 0.66 4.62 1.32 7 2 C7 3.32 7 4.64 7 6 C4.36 5.67 1.72 5.34 -1 5 C-0.67 3.35 -0.34 1.7 0 0 Z " fill="#FACFD2" transform="translate(146,41)"/>
<path d="M0 0 C1.81325551 0.11351517 3.62563357 0.24112961 5.4375 0.375 C6.95150391 0.47941406 6.95150391 0.47941406 8.49609375 0.5859375 C9.73552734 0.79089844 9.73552734 0.79089844 11 1 C11.33 1.66 11.66 2.32 12 3 C11.32453125 2.96519531 10.6490625 2.93039063 9.953125 2.89453125 C9.06109375 2.86746094 8.1690625 2.84039063 7.25 2.8125 C6.36828125 2.77769531 5.4865625 2.74289063 4.578125 2.70703125 C1.48742356 3.05824732 0.17630748 3.79856195 -2 6 C-2.41955355 10.65397775 -2.41955355 10.65397775 -1 15 C-1.99 14.67 -2.98 14.34 -4 14 C-4 10.7 -4 7.4 -4 4 C-3.01 3.67 -2.02 3.34 -1 3 C-0.67 2.01 -0.34 1.02 0 0 Z " fill="#F7CAC7" transform="translate(147,26)"/>
<path d="M0 0 C3.63 0 7.26 0 11 0 C10.74438677 2.3431213 10.40729228 4.67843403 10 7 C9.01 7.495 9.01 7.495 8 8 C8 6.02 8 4.04 8 2 C6.68 1.67 5.36 1.34 4 1 C4 1.66 4 2.32 4 3 C2.68 3 1.36 3 0 3 C0 2.01 0 1.02 0 0 Z " fill="#D02F3C" transform="translate(277,40)"/>
<path d="M0 0 C2.00809017 0.01068133 4.01421852 0.16016904 6.015625 0.32421875 C6.675625 3.62421875 7.335625 6.92421875 8.015625 10.32421875 C6.015625 9.32421875 6.015625 9.32421875 4.890625 6.26171875 C4.601875 5.29234375 4.313125 4.32296875 4.015625 3.32421875 C2.035625 3.32421875 0.055625 3.32421875 -1.984375 3.32421875 C-2.644375 4.64421875 -3.304375 5.96421875 -3.984375 7.32421875 C-4.314375 6.66421875 -4.644375 6.00421875 -4.984375 5.32421875 C-3.93653829 2.39027595 -3.25458095 0.5317524 0 0 Z " fill="#E88D92" transform="translate(250.984375,27.67578125)"/>
<path d="M0 0 C3.3 0 6.6 0 10 0 C10 0.66 10 1.32 10 2 C7.36 2 4.72 2 2 2 C2 3.32 2 4.64 2 6 C3.65 6 5.3 6 7 6 C7 6.33 7 6.66 7 7 C5.00045254 7.04254356 2.99958364 7.04080783 1 7 C0 6 0 6 -0.0625 2.9375 C-0.041875 1.968125 -0.02125 0.99875 0 0 Z " fill="#D59E88" transform="translate(76,58)"/>
<path d="M0 0 C0.33 0 0.66 0 1 0 C1.10957031 0.67546875 1.21914063 1.3509375 1.33203125 2.046875 C1.49058594 2.93890625 1.64914062 3.8309375 1.8125 4.75 C1.96332031 5.63171875 2.11414063 6.5134375 2.26953125 7.421875 C3.05414248 10.1910911 4.14595359 11.8259401 6 14 C4.35 14.33 2.7 14.66 1 15 C0.01 12.03 -0.98 9.06 -2 6 C-1.34 6 -0.68 6 0 6 C0 4.02 0 2.04 0 0 Z " fill="#F9D7D3" transform="translate(263,37)"/>
<path d="M0 0 C6.51791392 -0.3540919 11.17521449 -0.03901852 17 3 C17 4.98 17 6.96 17 9 C15 8 15 8 14 5 C9.50230427 1.0826521 4.61997238 1.70536067 -1 2 C-0.67 1.34 -0.34 0.68 0 0 Z " fill="#FACFD2" transform="translate(271,27)"/>
<path d="M0 0 C2.97 0.495 2.97 0.495 6 1 C6 4.3 6 7.6 6 11 C4.35 11.66 2.7 12.32 1 13 C1.66 12.01 2.32 11.02 3 10 C3.5486783 5.19792453 3.5486783 5.19792453 1.5 1.0625 C1.005 0.711875 0.51 0.36125 0 0 Z " fill="#F8C7C7" transform="translate(156,38)"/>
<path d="M0 0 C3.63 0 7.26 0 11 0 C11 0.33 11 0.66 11 1 C8.69 1.33 6.38 1.66 4 2 C4 3.65 4 5.3 4 7 C2.68 7.33 1.36 7.66 0 8 C0 5.36 0 2.72 0 0 Z " fill="#D82331" transform="translate(223,30)"/>
<path d="M0 0 C1.70884005 1.62339805 3.37446717 3.29319053 5 5 C5 5.66 5 6.32 5 7 C2.69 7 0.38 7 -2 7 C-2.99 5.02 -3.98 3.04 -5 1 C-4.34 1 -3.68 1 -3 1 C-3 1.66 -3 2.32 -3 3 C-2.34 3 -1.68 3 -1 3 C-1 3.66 -1 4.32 -1 5 C-0.34 5 0.32 5 1 5 C0.67 3.35 0.34 1.7 0 0 Z " fill="#CF4952" transform="translate(191,44)"/>
<path d="M0 0 C0.33 0 0.66 0 1 0 C1 2.31 1 4.62 1 7 C0.01 7 -0.98 7 -2 7 C-2 5.35 -2 3.7 -2 2 C-3.98491642 2.26676204 -3.98491642 2.26676204 -6 3 C-6.33 3.99 -6.66 4.98 -7 6 C-7.66 6 -8.32 6 -9 6 C-9 4.35 -9 2.7 -9 1 C-7.700625 1.020625 -6.40125 1.04125 -5.0625 1.0625 C-3.70834367 1.08399454 -2.35243917 1.07148199 -1 1 C-0.67 0.67 -0.34 0.34 0 0 Z " fill="#F6E7DB" transform="translate(105,59)"/>
<path d="M0 0 C6.27 0 12.54 0 19 0 C19 0.33 19 0.66 19 1 C9.595 1.99 9.595 1.99 0 3 C0 2.01 0 1.02 0 0 Z " fill="#EB5E1D" transform="translate(40,41)"/>
<path d="M0 0 C1.98 0 3.96 0 6 0 C6 0.33 6 0.66 6 1 C4.35 1 2.7 1 1 1 C1.33 2.32 1.66 3.64 2 5 C6.29 5.33 10.58 5.66 15 6 C15 6.33 15 6.66 15 7 C10.05 7 5.1 7 0 7 C-1 2 -1 2 0 0 Z " fill="#D97C5A" transform="translate(39,27)"/>
<path d="M0 0 C5.94 0 11.88 0 18 0 C18 0.33 18 0.66 18 1 C13.05 1 8.1 1 3 1 C2.67 2.98 2.34 4.96 2 7 C1.34 6.67 0.68 6.34 0 6 C0 4.02 0 2.04 0 0 Z " fill="#F7CAB6" transform="translate(36,26)"/>
<path d="M0 0 C0.185625 0.9590625 0.185625 0.9590625 0.375 1.9375 C0.684375 2.9584375 0.684375 2.9584375 1 4 C1.66 4.33 2.32 4.66 3 5 C2.67 6.32 2.34 7.64 2 9 C3.98 8.67 5.96 8.34 8 8 C8 8.66 8 9.32 8 10 C6.741875 10.04125 5.48375 10.0825 4.1875 10.125 C3.47980469 10.14820313 2.77210938 10.17140625 2.04296875 10.1953125 C0 10 0 10 -3 8 C-2.34 7.34 -1.68 6.68 -1 6 C-0.60235737 4.01178687 -0.26224651 2.01055661 0 0 Z " fill="#E89FA5" transform="translate(239,42)"/>
<path d="M0 0 C1.65 0.33 3.3 0.66 5 1 C5 2.65 5 4.3 5 6 C0.545 5.01 0.545 5.01 -4 4 C-2.68 3.67 -1.36 3.34 0 3 C0 2.01 0 1.02 0 0 Z " fill="#DE2127" transform="translate(255,42)"/>
<path d="M0 0 C6.0546875 -0.1953125 6.0546875 -0.1953125 8 0 C8.66 0.66 9.32 1.32 10 2 C9.625 4.125 9.625 4.125 9 6 C6.69 6 4.38 6 2 6 C2.33 5.34 2.66 4.68 3 4 C4.65 4 6.3 4 8 4 C8 3.34 8 2.68 8 2 C5.36 1.67 2.72 1.34 0 1 C0 0.67 0 0.34 0 0 Z " fill="#DB7071" transform="translate(149,28)"/>
<path d="M0 0 C0.33 0.99 0.66 1.98 1 3 C3.01508358 3.73323796 3.01508358 3.73323796 5 4 C4 5 4 5 0.83984375 5.09765625 C-1.09181641 5.08025391 -1.09181641 5.08025391 -3.0625 5.0625 C-4.35285156 5.05347656 -5.64320313 5.04445313 -6.97265625 5.03515625 C-7.97167969 5.02355469 -8.97070312 5.01195312 -10 5 C-10 4.67 -10 4.34 -10 4 C-5.545 3.505 -5.545 3.505 -1 3 C-2.32 2.34 -3.64 1.68 -5 1 C-3.35 0.67 -1.7 0.34 0 0 Z " fill="#D04246" transform="translate(232,46)"/>
<path d="M0 0 C3.63 0 7.26 0 11 0 C11 1.32 11 2.64 11 4 C9.35 4 7.7 4 6 4 C6 3.34 6 2.68 6 2 C3.03 1.505 3.03 1.505 0 1 C0 0.67 0 0.34 0 0 Z " fill="#CF3234" transform="translate(165,30)"/>
<path d="M0 0 C2.475 0.495 2.475 0.495 5 1 C4.67 2.65 4.34 4.3 4 6 C2.68 6 1.36 6 0 6 C0 4.02 0 2.04 0 0 Z " fill="#F5B5B9" transform="translate(184,33)"/>
<path d="M0 0 C1.98 0 3.96 0 6 0 C5.01 0.66 4.02 1.32 3 2 C5.31 2.33 7.62 2.66 10 3 C10 3.33 10 3.66 10 4 C8.72125 4.12375 7.4425 4.2475 6.125 4.375 C2.65209064 4.69042399 2.65209064 4.69042399 0 7 C0 4.69 0 2.38 0 0 Z " fill="#CD9278" transform="translate(40,58)"/>
<path d="M0 0 C1.65 0 3.3 0 5 0 C4.67 2.31 4.34 4.62 4 7 C3.01 7 2.02 7 1 7 C0.67 4.69 0.34 2.38 0 0 Z " fill="#D92327" transform="translate(281,41)"/>
<path d="M0 0 C2.31 0 4.62 0 7 0 C6.67 0.66 6.34 1.32 6 2 C5.401875 2.0825 4.80375 2.165 4.1875 2.25 C0.79196451 3.4141836 -0.22274002 6.01674218 -2 9 C-2.33 8.34 -2.66 7.68 -3 7 C-2.06421005 4.64018187 -1.06652192 2.30368736 0 0 Z " fill="#D13235" transform="translate(205,30)"/>
<path d="M0 0 C0.99 0 1.98 0 3 0 C3 2.64 3 5.28 3 8 C2.01 7.67 1.02 7.34 0 7 C0 4.69 0 2.38 0 0 Z " fill="#F8E5D0" transform="translate(37,58)"/>
<path d="M0 0 C1.32 0.33 2.64 0.66 4 1 C4 2.65 4 4.3 4 6 C2.68 6 1.36 6 0 6 C0 4.02 0 2.04 0 0 Z " fill="#F38F8E" transform="translate(227,32)"/>
<path d="M0 0 C1.65 0.33 3.3 0.66 5 1 C5 1.99 5 2.98 5 4 C2.69 4 0.38 4 -2 4 C-2 3.34 -2 2.68 -2 2 C-1.34 2 -0.68 2 0 2 C0 1.34 0 0.68 0 0 Z " fill="#D92322" transform="translate(250,31)"/>
<path d="M0 0 C2.97 0 5.94 0 9 0 C9 0.33 9 0.66 9 1 C7.02 1.33 5.04 1.66 3 2 C2.67 3.65 2.34 5.3 2 7 C1.34 7 0.68 7 0 7 C0 4.69 0 2.38 0 0 Z " fill="#D49D88" transform="translate(94,58)"/>
<path d="M0 0 C2.97 0.33 5.94 0.66 9 1 C8.01 2.485 8.01 2.485 7 4 C3.875 4.1875 3.875 4.1875 1 4 C1.33 3.34 1.66 2.68 2 2 C1.34 1.34 0.68 0.68 0 0 Z " fill="#F5C1A4" transform="translate(41,57)"/>
<path d="M0 0 C1.32 0.33 2.64 0.66 4 1 C4 2.98 4 4.96 4 7 C3.01 7 2.02 7 1 7 C0.67 4.69 0.34 2.38 0 0 Z " fill="#E02029" transform="translate(245,39)"/>
<path d="M0 0 C2.64 0 5.28 0 8 0 C6.68 0.33 5.36 0.66 4 1 C4.33 1.99 4.66 2.98 5 4 C3.35 4 1.7 4 0 4 C0 2.68 0 1.36 0 0 Z " fill="#D39C7F" transform="translate(22,61)"/>
<path d="M0 0 C2.31 0 4.62 0 7 0 C7 0.99 7 1.98 7 3 C4.69 3 2.38 3 0 3 C0 2.01 0 1.02 0 0 Z " fill="#FDECD7" transform="translate(78,60)"/>
<path d="M0 0 C0.66 0 1.32 0 2 0 C3.6875 2.375 3.6875 2.375 5 5 C4.67 5.66 4.34 6.32 4 7 C3.34 6.67 2.68 6.34 2 6 C1.34 6.66 0.68 7.32 0 8 C0 5.36 0 2.72 0 0 Z " fill="#F4B6B9" transform="translate(184,44)"/>
<path d="M0 0 C2.12508244 3.18762365 2.5020163 5.26512223 3 9 C1.35 9 -0.3 9 -2 9 C-2 8.34 -2 7.68 -2 7 C-1.34 6.67 -0.68 6.34 0 6 C0 4.02 0 2.04 0 0 Z " fill="#CA3740" transform="translate(216,42)"/>
<path d="M0 0 C0.66 0 1.32 0 2 0 C2.33 0.99 2.66 1.98 3 3 C4.32 3.66 5.64 4.32 7 5 C2.545 5.495 2.545 5.495 -2 6 C-2.33 5.34 -2.66 4.68 -3 4 C-1.68 4.33 -0.36 4.66 1 5 C0.67 3.35 0.34 1.7 0 0 Z " fill="#DD3840" transform="translate(149,34)"/>
<path d="M0 0 C0.33 0 0.66 0 1 0 C1 2.64 1 5.28 1 8 C0.01 7.67 -0.98 7.34 -2 7 C-2.125 4.625 -2.125 4.625 -2 2 C-1.34 1.34 -0.68 0.68 0 0 Z " fill="#FDF5E8" transform="translate(20,58)"/>
<path d="M0 0 C0.33 0.66 0.66 1.32 1 2 C2.32 2 3.64 2 5 2 C5 2.99 5 3.98 5 5 C3.35 5.66 1.7 6.32 0 7 C0 4.69 0 2.38 0 0 Z " fill="#C6876C" transform="translate(58,58)"/>
<path d="M0 0 C0.66 0 1.32 0 2 0 C2.33 2.31 2.66 4.62 3 7 C1.68 6.67 0.36 6.34 -1 6 C-1.042721 4.33388095 -1.04063832 2.66617115 -1 1 C-0.67 0.67 -0.34 0.34 0 0 Z " fill="#E12020" transform="translate(147,32)"/>
<path d="M0 0 C0.66 0.33 1.32 0.66 2 1 C1.01 4.3 0.02 7.6 -1 11 C-1.33 11 -1.66 11 -2 11 C-2.25 3.375 -2.25 3.375 0 0 Z " fill="#F9DCD9" transform="translate(246,29)"/>
<path d="M0 0 C1.65 0 3.3 0 5 0 C4.67 1.32 4.34 2.64 4 4 C2.68 4 1.36 4 0 4 C0 2.68 0 1.36 0 0 Z " fill="#FCD0D0" transform="translate(228,43)"/>
<path d="M0 0 C1.65 0 3.3 0 5 0 C3.375 2 3.375 2 1 4 C-2.25 4.25 -2.25 4.25 -5 4 C-4.0409375 3.8453125 -4.0409375 3.8453125 -3.0625 3.6875 C-2.381875 3.460625 -1.70125 3.23375 -1 3 C-0.67 2.01 -0.34 1.02 0 0 Z " fill="#FEF8EF" transform="translate(44,63)"/>
<path d="M0 0 C2.0625 0.4375 2.0625 0.4375 4 1 C3.67 3.31 3.34 5.62 3 8 C1.45428722 5.68143083 0.20381448 3.49361571 -1 1 C-0.67 0.67 -0.34 0.34 0 0 Z " fill="#FEF2E3" transform="translate(54,57)"/>
<path d="M0 0 C-0.33 0.99 -0.66 1.98 -1 3 C-2.98 3 -4.96 3 -7 3 C-7 2.34 -7 1.68 -7 1 C-4 0 -4 0 0 0 Z " fill="#FCD7DB" transform="translate(280,44)"/>
<path d="M0 0 C0.99 0.33 1.98 0.66 3 1 C3 2.65 3 4.3 3 6 C2.01 6 1.02 6 0 6 C0 4.02 0 2.04 0 0 Z " fill="#F9B0BE" transform="translate(207,37)"/>
<path d="M0 0 C0.99 0 1.98 0 3 0 C2.67 1.65 2.34 3.3 2 5 C1.01 5 0.02 5 -1 5 C-0.67 3.35 -0.34 1.7 0 0 Z " fill="#DB241E" transform="translate(224,37)"/>
<path d="M0 0 C1.98 0 3.96 0 6 0 C6.33 0.66 6.66 1.32 7 2 C4.69 2.33 2.38 2.66 0 3 C0 2.01 0 1.02 0 0 Z " fill="#FBF8F8" transform="translate(273,35)"/>
<path d="M0 0 C2.31 0 4.62 0 7 0 C7 0.99 7 1.98 7 3 C4.69 3 2.38 3 0 3 C0 2.01 0 1.02 0 0 Z " fill="#D19472" transform="translate(82,29)"/>
<path d="M0 0 C1.81325551 0.11351517 3.62563357 0.24112961 5.4375 0.375 C6.95150391 0.47941406 6.95150391 0.47941406 8.49609375 0.5859375 C9.73552734 0.79089844 9.73552734 0.79089844 11 1 C11.33 1.66 11.66 2.32 12 3 C8.04 3 4.08 3 0 3 C0 2.01 0 1.02 0 0 Z " fill="#FDDEE2" transform="translate(147,26)"/>
</svg>
