<?xml version="1.0" encoding="UTF-8"?>
<svg version="1.1" xmlns="http://www.w3.org/2000/svg" width="247" height="249">
<path d="M0 0 C81.51 0 163.02 0 247 0 C247 82.17 247 164.34 247 249 C165.49 249 83.98 249 0 249 C0 166.83 0 84.66 0 0 Z " fill="#FCFCFC" transform="translate(0,0)"/>
<path d="M0 0 C0.66 0.66 1.32 1.32 2 2 C1.67 2.66 1.34 3.32 1 4 C2.11375 4.144375 3.2275 4.28875 4.375 4.4375 C8 5 8 5 10 6 C10 6.66 10 7.32 10 8 C10.66 8 11.32 8 12 8 C14.29013653 11.4352048 14.17842973 12.985331 14 17 C13.34 17 12.68 17 12 17 C12 21.29 12 25.58 12 30 C14.64 30 17.28 30 20 30 C20.495 32.475 20.495 32.475 21 35 C21.66 35 22.32 35 23 35 C23 34.01 23 33.02 23 32 C27.31586125 29.83794331 30.55243225 29.93013386 35.3125 30.375 C36.56675781 30.48585938 37.82101563 30.59671875 39.11328125 30.7109375 C40.06589844 30.80632812 41.01851562 30.90171875 42 31 C42 32.98 42 34.96 42 37 C44.31 37 46.62 37 49 37 C49 38.98 49 40.96 49 43 C52.52410485 41.01004762 52.52410485 41.01004762 55.5625 38.375 C58.17141163 35.87951931 60.863823 36.01260898 64.375 35.6875 C68.63954261 36.05513298 70.66678785 37.39846857 74 40 C74 39.01 74 38.02 74 37 C76.31 37 78.62 37 81 37 C81 46.9 81 56.8 81 67 C78.36 67 75.72 67 73 67 C72.67 66.34 72.34 65.68 72 65 C71.24976563 65.49113281 71.24976563 65.49113281 70.484375 65.9921875 C67.08207896 67.3723642 63.85649349 67.21362838 60.25 67.125 C59.20392578 67.11146484 59.20392578 67.11146484 58.13671875 67.09765625 C56.42433042 67.07419888 54.71211996 67.03833104 53 67 C53 65.35 53 63.7 53 62 C52.34 62 51.68 62 51 62 C50.67 61.34 50.34 60.68 50 60 C49.505 60.99 49.505 60.99 49 62 C48.01 62.495 48.01 62.495 47 63 C46.67 63.66 46.34 64.32 46 65 C45.34 64.67 44.68 64.34 44 64 C44.33 65.32 44.66 66.64 45 68 C41.7 68 38.4 68 35 68 C35.2475 69.6396875 35.2475 69.6396875 35.5 71.3125 C36 75 36 75 36 78 C42.27 78.33 48.54 78.66 55 79 C55 79.66 55 80.32 55 81 C53.35 81 51.7 81 50 81 C50 82.32 50 83.64 50 85 C51.98 85.495 51.98 85.495 54 86 C51.6875 86.625 51.6875 86.625 49 87 C47.515 86.01 47.515 86.01 46 85 C45.67 85.66 45.34 86.32 45 87 C45 85.02 45 83.04 45 81 C44.34 81 43.68 81 43 81 C42.67 82.65 42.34 84.3 42 86 C31.44191344 87.33257403 31.44191344 87.33257403 27 86 C26.67 85.01 26.34 84.02 26 83 C25.505 84.485 25.505 84.485 25 86 C24.34 86 23.68 86 23 86 C22.67 85.34 22.34 84.68 22 84 C21.505 85.485 21.505 85.485 21 87 C19.02 87 17.04 87 15 87 C15 85.35 15 83.7 15 82 C14.34 82 13.68 82 13 82 C13 83.65 13 85.3 13 87 C9.04 87 5.08 87 1 87 C1.03255208 84.78645833 1.06510417 82.57291667 1.09765625 80.359375 C1.00385306 78.09308998 0.63241063 76.1711105 0 74 C-1.32 73.67 -2.64 73.34 -4 73 C-4 71.68 -4 70.36 -4 69 C-5.32 68.34 -6.64 67.68 -8 67 C-8 57.43 -8 47.86 -8 38 C-9.98 38.495 -9.98 38.495 -12 39 C-12.17015625 38.15695313 -12.3403125 37.31390625 -12.515625 36.4453125 C-12.75796875 35.34960938 -13.0003125 34.25390625 -13.25 33.125 C-13.48203125 32.03445312 -13.7140625 30.94390625 -13.953125 29.8203125 C-14.68345457 26.86405203 -14.68345457 26.86405203 -17.0546875 25.984375 C-17.69664063 25.65953125 -18.33859375 25.3346875 -19 25 C-19.6796875 22.3203125 -19.6796875 22.3203125 -19.875 19.125 C-19.95492187 18.07570313 -20.03484375 17.02640625 -20.1171875 15.9453125 C-20.0001351 13.00339551 -19.53793282 11.46784568 -18 9 C-17.01 9 -16.02 9 -15 9 C-14.01 7.02 -13.02 5.04 -12 3 C-11.34 3 -10.68 3 -10 3 C-10 2.34 -10 1.68 -10 1 C-6.47940432 -0.17353189 -3.693507 -0.20146402 0 0 Z " fill="#F8F9FA" transform="translate(133,83)"/>
<path d="M0 0 C1.32 0 2.64 0 4 0 C4 0.66 4 1.32 4 2 C5.65 1.67 7.3 1.34 9 1 C9 6.28 9 11.56 9 17 C10.32 16.34 11.64 15.68 13 15 C18.73081869 14.36324237 21.52825672 15.42260538 26 19 C26.7115625 19.54914063 27.423125 20.09828125 28.15625 20.6640625 C30.69236442 23.87719051 30.48099075 26.7160145 30.3125 30.625 C30.30283203 31.305625 30.29316406 31.98625 30.28320312 32.6875 C30.17020089 37.65959821 30.17020089 37.65959821 29 40 C28.34 40 27.68 40 27 40 C26.773125 40.556875 26.54625 41.11375 26.3125 41.6875 C24.64697681 44.62199324 22.37778824 46.62221176 20 49 C19.67 49.99 19.34 50.98 19 52 C18.01 52.33 17.02 52.66 16 53 C16.33 53.66 16.66 54.32 17 55 C17.99 55 18.98 55 20 55 C20.33 55.66 20.66 56.32 21 57 C24.04581269 57.46954261 24.04581269 57.46954261 27.5625 57.625 C28.76003906 57.69976562 29.95757812 57.77453125 31.19140625 57.8515625 C32.11824219 57.90054688 33.04507813 57.94953125 34 58 C33.67 60.31 33.34 62.62 33 65 C31.35 65.33 29.7 65.66 28 66 C28.495 64.515 28.495 64.515 29 63 C27.02463255 63.34786708 27.02463255 63.34786708 25 64 C24.67 64.66 24.34 65.32 24 66 C21.35139573 66.59355614 18.70802678 66.74209269 16 67 C16 66.01 16 65.02 16 64 C15.01 64.33 14.02 64.66 13 65 C13 63.35 13 61.7 13 60 C10.48916886 61.25541557 10.12874554 62.50063488 9 65 C8.67 64.34 8.34 63.68 8 63 C8.33 62.01 8.66 61.02 9 60 C8.01 60.33 7.02 60.66 6 61 C5.67 62.65 5.34 64.3 5 66 C3.5629191 66.05422947 2.12524538 66.09289723 0.6875 66.125 C-0.51326172 66.15980469 -0.51326172 66.15980469 -1.73828125 66.1953125 C-4 66 -4 66 -7 64 C-7.33 64.66 -7.66 65.32 -8 66 C-11.3 65.67 -14.6 65.34 -18 65 C-18 65.66 -18 66.32 -18 67 C-18.78375 66.979375 -19.5675 66.95875 -20.375 66.9375 C-22.98114961 66.81315937 -22.98114961 66.81315937 -25 68 C-25.66 67.67 -26.32 67.34 -27 67 C-28.53668865 66.77532169 -30.07968054 66.59203195 -31.625 66.4375 C-32.85089844 66.31181641 -32.85089844 66.31181641 -34.1015625 66.18359375 C-34.72804687 66.12300781 -35.35453125 66.06242187 -36 66 C-35.44271087 62.65626525 -34.64826111 59.96687001 -33 57 C-29.625 57.3125 -29.625 57.3125 -26 58 C-25.34 58.99 -24.68 59.98 -24 61 C-23.01 60.505 -23.01 60.505 -22 60 C-22 59.34 -22 58.68 -22 58 C-21.34 58 -20.68 58 -20 58 C-20.020625 57.05125 -20.04125 56.1025 -20.0625 55.125 C-20 52 -20 52 -19 50 C-18.01 50 -17.02 50 -16 50 C-16 50.66 -16 51.32 -16 52 C-15.34 52 -14.68 52 -14 52 C-14.33 50.02 -14.66 48.04 -15 46 C-18.3 46 -21.6 46 -25 46 C-25 36.1 -25 26.2 -25 16 C-22.03 16 -19.06 16 -16 16 C-15.67 16.66 -15.34 17.32 -15 18 C-14.34 17.505 -13.68 17.01 -13 16.5 C-9.03366759 14.51683379 -6.39696738 14.77642539 -2 15 C-2.02320313 14.15695313 -2.04640625 13.31390625 -2.0703125 12.4453125 C-2.08835938 11.34960938 -2.10640625 10.25390625 -2.125 9.125 C-2.14820313 8.03445312 -2.17140625 6.94390625 -2.1953125 5.8203125 C-2 3 -2 3 0 1 C0 0.67 0 0.34 0 0 Z " fill="#F7FAF8" transform="translate(89,104)"/>
<path d="M0 0 C1.25425781 0.11085938 2.50851563 0.22171875 3.80078125 0.3359375 C4.75339844 0.43132812 5.70601562 0.52671875 6.6875 0.625 C6.6875 2.605 6.6875 4.585 6.6875 6.625 C8.9975 6.625 11.3075 6.625 13.6875 6.625 C13.6875 8.605 13.6875 10.585 13.6875 12.625 C17.21160485 10.63504762 17.21160485 10.63504762 20.25 8 C22.85891163 5.50451931 25.551323 5.63760898 29.0625 5.3125 C33.32704261 5.68013298 35.35428785 7.02346857 38.6875 9.625 C38.6875 8.635 38.6875 7.645 38.6875 6.625 C40.9975 6.625 43.3075 6.625 45.6875 6.625 C45.6875 16.525 45.6875 26.425 45.6875 36.625 C43.0475 36.625 40.4075 36.625 37.6875 36.625 C37.3575 35.965 37.0275 35.305 36.6875 34.625 C36.18734375 34.95242187 35.6871875 35.27984375 35.171875 35.6171875 C31.76957896 36.9973642 28.54399349 36.83862838 24.9375 36.75 C24.24011719 36.74097656 23.54273438 36.73195312 22.82421875 36.72265625 C21.11183042 36.69919888 19.39961996 36.66333104 17.6875 36.625 C17.6875 34.975 17.6875 33.325 17.6875 31.625 C17.0275 31.625 16.3675 31.625 15.6875 31.625 C15.3575 30.965 15.0275 30.305 14.6875 29.625 C14.3575 30.285 14.0275 30.945 13.6875 31.625 C12.6975 32.12 12.6975 32.12 11.6875 32.625 C11.3575 33.285 11.0275 33.945 10.6875 34.625 C10.0275 34.295 9.3675 33.965 8.6875 33.625 C9.0175 34.945 9.3475 36.265 9.6875 37.625 C6.3875 37.625 3.0875 37.625 -0.3125 37.625 C0.0175 39.935 0.3475 42.245 0.6875 44.625 C-0.6325 45.285 -1.9525 45.945 -3.3125 46.625 C-3.3125 45.965 -3.3125 45.305 -3.3125 44.625 C-4.405625 44.645625 -5.49875 44.66625 -6.625 44.6875 C-10.3125 44.625 -10.3125 44.625 -13.3125 43.625 C-14.40814584 37.70851245 -14.25016323 32.17717508 -13.875 26.1875 C-13.82279297 25.26517578 -13.77058594 24.34285156 -13.71679688 23.39257812 C-13.58819984 21.13628464 -13.4532929 18.88055971 -13.3125 16.625 C-12.6525 16.625 -11.9925 16.625 -11.3125 16.625 C-11.3125 15.965 -11.3125 15.305 -11.3125 14.625 C-10.6525 14.625 -9.9925 14.625 -9.3125 14.625 C-9.3125 11.985 -9.3125 9.345 -9.3125 6.625 C-11.2925 6.625 -13.2725 6.625 -15.3125 6.625 C-15.3125 4.645 -15.3125 2.665 -15.3125 0.625 C-14.9825 1.945 -14.6525 3.265 -14.3125 4.625 C-13.6525 4.625 -12.9925 4.625 -12.3125 4.625 C-12.3125 3.635 -12.3125 2.645 -12.3125 1.625 C-7.99663875 -0.53705669 -4.76006775 -0.44486614 0 0 Z " fill="#F9FBF9" transform="translate(168.3125,113.375)"/>
<path d="M0 0 C2.25 2.4375 2.25 2.4375 4 5 C4.7734375 5.7115625 4.7734375 5.7115625 5.5625 6.4375 C9.19648958 10.38748867 10.49068216 14.4898512 10.3046875 19.83203125 C9.75704292 23.7287331 8.4212272 27.34541577 7 31 C6.34 31 5.68 31 5 31 C5 31.66 5 32.32 5 33 C0.54035217 37.34703046 -3.8996083 39.42921076 -10.125 39.5625 C-15.12562728 39.28256667 -18.70923973 38.59233433 -23 36 C-25.3125 33.375 -25.3125 33.375 -27 31 C-27.66 30.67 -28.32 30.34 -29 30 C-31.3627957 23.8304779 -32.33597749 17.07679729 -30.2421875 10.6875 C-28.48957761 6.93387882 -26.76381453 4.00736775 -23 2 C-22.34 2 -21.68 2 -21 2 C-20.67 1.01 -20.34 0.02 -20 -1 C-13.1634949 -2.70912628 -6.55141134 -2.64576227 0 0 Z " fill="#374C88" transform="translate(49,111)"/>
<path d="M0 0 C2.64 0 5.28 0 8 0 C8 4.62 8 9.24 8 14 C9.65 13.01 11.3 12.02 13 11 C17.27747948 10.45559352 19.38721032 10.66356645 23.1875 12.75 C24.115625 13.4925 25.04375 14.235 26 15 C26.7115625 15.54914063 27.423125 16.09828125 28.15625 16.6640625 C30.69236442 19.87719051 30.48099075 22.7160145 30.3125 26.625 C30.30283203 27.305625 30.29316406 27.98625 30.28320312 28.6875 C30.17020089 33.65959821 30.17020089 33.65959821 29 36 C28.34 36 27.68 36 27 36 C26.731875 36.61875 26.46375 37.2375 26.1875 37.875 C25 40 25 40 22 42 C17.240321 42.52588214 12.65873604 42.01909851 8 41 C7.505 41.495 7.505 41.495 7 42 C4.69 42 2.38 42 0 42 C0 28.14 0 14.28 0 0 Z " fill="#364E8D" transform="translate(89,108)"/>
<path d="M0 0 C0 -0.99 0 -1.98 0 -3 C2.31 -3 4.62 -3 7 -3 C7 6.9 7 16.8 7 27 C4.36 27 1.72 27 -1 27 C-1.33 26.34 -1.66 25.68 -2 25 C-2.56847656 25.32226562 -3.13695312 25.64453125 -3.72265625 25.9765625 C-7.43651686 27.64557018 -11.00759308 27.57850619 -15 27 C-18.88513973 24.7195919 -21.20766389 22.12237305 -23 18 C-24.44479026 11.46510254 -24.37435758 6.81785789 -21 1 C-15.13935784 -6.18401297 -7.00455842 -5.46697243 0 0 Z " fill="#304C8C" transform="translate(207,123)"/>
<path d="M0 0 C0.66 0.66 1.32 1.32 2 2 C1.67 2.66 1.34 3.32 1 4 C2.11375 4.144375 3.2275 4.28875 4.375 4.4375 C8 5 8 5 10 6 C10 6.66 10 7.32 10 8 C10.66 8 11.32 8 12 8 C14.29013653 11.4352048 14.17842973 12.985331 14 17 C13.34 17 12.68 17 12 17 C12.02320313 17.60328125 12.04640625 18.2065625 12.0703125 18.828125 C12.08835938 19.62734375 12.10640625 20.4265625 12.125 21.25 C12.14820313 22.03890625 12.17140625 22.8278125 12.1953125 23.640625 C11.97711178 26.27648974 11.42967069 27.78448383 10 30 C7 32 7 32 4 32 C4.16113281 31.44441406 4.32226562 30.88882813 4.48828125 30.31640625 C5.04434722 27.79925267 5.16807052 25.5138488 5.1875 22.9375 C5.20876953 21.65166016 5.20876953 21.65166016 5.23046875 20.33984375 C5.15846085 17.72801691 5.15846085 17.72801691 3 15 C3 14.01 3 13.02 3 12 C2.36191406 12.01160156 1.72382813 12.02320312 1.06640625 12.03515625 C0.24011719 12.04417969 -0.58617187 12.05320312 -1.4375 12.0625 C-2.67306641 12.07990234 -2.67306641 12.07990234 -3.93359375 12.09765625 C-6 12 -6 12 -7 11 C-7.99 14.63 -8.98 18.26 -10 22 C-8.576875 22.2165625 -8.576875 22.2165625 -7.125 22.4375 C-4 23 -4 23 -2 24 C-2 23.34 -2 22.68 -2 22 C-0.35 21.67 1.3 21.34 3 21 C3.60550459 28.26605505 3.60550459 28.26605505 0.9375 31.5 C-2.72431906 33.36986505 -4.93214595 33.50848176 -9 33 C-12.90061416 31.26639371 -14.23646887 29.77899527 -16 26 C-16.99 25.67 -17.98 25.34 -19 25 C-19.22281874 23.08496326 -19.42771076 21.16783494 -19.625 19.25 C-19.74101563 18.18265625 -19.85703125 17.1153125 -19.9765625 16.015625 C-20.00029475 12.96207601 -19.61420985 11.53837579 -18 9 C-17.01 9 -16.02 9 -15 9 C-14.01 7.02 -13.02 5.04 -12 3 C-11.34 3 -10.68 3 -10 3 C-10 2.34 -10 1.68 -10 1 C-6.47940432 -0.17353189 -3.693507 -0.20146402 0 0 Z " fill="#EBA989" transform="translate(133,83)"/>
<path d="M0 0 C3.15221029 1.57295923 5.35729836 3.62278221 6.875 6.875 C6.91625 7.57625 6.9575 8.2775 7 9 C7.144375 10.0725 7.28875 11.145 7.4375 12.25 C6.9244157 16.64786546 5.82718949 19.04605012 3.04296875 22.4453125 C-0.2946122 24.98519246 -3.28703872 24.91675179 -7.36328125 24.56640625 C-11.8841931 23.59524741 -13.24792594 22.86777976 -16 19 C-16.95702968 13.61199826 -17.16563464 8.05773285 -14.125 3.3125 C-10.15636818 -1.00630522 -5.5894643 -0.77037027 0 0 Z " fill="#EDF2F6" transform="translate(43,118)"/>
<path d="M0 0 C2.64 0 5.28 0 8 0 C8 4.62 8 9.24 8 14 C8.66 13.67 9.32 13.34 10 13 C11.87379605 12.92966231 13.75001102 12.9156978 15.625 12.9375 C17.12933594 12.95103516 17.12933594 12.95103516 18.6640625 12.96484375 C19.43492188 12.97644531 20.20578125 12.98804687 21 13 C21.33 13.99 21.66 14.98 22 16 C18.34543185 16.75241109 14.68266103 17.40049704 11 18 C9.24591085 22.49485346 8.38629765 26.17805298 9 31 C11.1727422 33.63016161 12.94673788 35.47336894 16 37 C15.505 39.475 15.505 39.475 15 42 C13.2984375 41.7215625 13.2984375 41.7215625 11.5625 41.4375 C10.386875 41.293125 9.21125 41.14875 8 41 C7.505 41.495 7.505 41.495 7 42 C4.69 42 2.38 42 0 42 C0 28.14 0 14.28 0 0 Z " fill="#28458E" transform="translate(89,108)"/>
<path d="M0 0 C2.97 0 5.94 0 9 0 C9 1.98 9 3.96 9 6 C10.98 6 12.96 6 15 6 C15 8.31 15 10.62 15 13 C13.02 13 11.04 13 9 13 C9 20.59 9 28.18 9 36 C6.03 36 3.06 36 0 36 C0 28.74 0 21.48 0 14 C-1.65 14 -3.3 14 -5 14 C-5 11.03 -5 8.06 -5 5 C-3.35 5 -1.7 5 0 5 C0 3.35 0 1.7 0 0 Z " fill="#61779F" transform="translate(166,114)"/>
<path d="M0 0 C-3 1 -3 1 -5 1 C-4.1028125 1.6496875 -4.1028125 1.6496875 -3.1875 2.3125 C-1.27774598 3.78573882 0.41897819 5.18182492 2 7 C2 7.66 2 8.32 2 9 C2.66 9 3.32 9 4 9 C3.67 10.32 3.34 11.64 3 13 C2.34 12.67 1.68 12.34 1 12 C1.495 13.485 1.495 13.485 2 15 C2.12781786 17.67394964 2.04391871 20.32095857 2 23 C1.67 23 1.34 23 1 23 C0.91363281 22.25234375 0.82726562 21.5046875 0.73828125 20.734375 C-0.09909998 14.62701037 -0.09909998 14.62701037 -3 9.3125 C-7.38440376 7.39432336 -11.29333079 7.25139271 -16 8 C-18.70558862 9.20495919 -18.70558862 9.20495919 -20 12 C-20.57717078 14.51663435 -21.01562588 17.03367021 -21.4296875 19.58203125 C-22.18259021 22.77413248 -23.70394978 24.70394978 -26 27 C-25.34 27 -24.68 27 -24 27 C-24.33 27.99 -24.66 28.98 -25 30 C-26.32 30 -27.64 30 -29 30 C-31.48899062 22.84415197 -32.5517079 15.6338744 -29.25 8.5625 C-27.59524432 5.65787567 -26.01177986 3.60628259 -23 2 C-22.34 2 -21.68 2 -21 2 C-20.67 1.01 -20.34 0.02 -20 -1 C-12.88319978 -2.77920006 -6.83658271 -2.2788609 0 0 Z " fill="#3C5691" transform="translate(49,111)"/>
<path d="M0 0 C2.64 0 5.28 0 8 0 C8 1.98 8 3.96 8 6 C9.98 6 11.96 6 14 6 C14 8.31 14 10.62 14 13 C12.02 13 10.04 13 8 13 C8 20.59 8 28.18 8 36 C5.36 36 2.72 36 0 36 C0 28.41 0 20.82 0 13 C-1.98 13 -3.96 13 -6 13 C-6 10.69 -6 8.38 -6 6 C-4.02 6 -2.04 6 0 6 C0 4.02 0 2.04 0 0 Z " fill="#4A6293" transform="translate(145,114)"/>
<path d="M0 0 C0.125 6.75 0.125 6.75 -1 9 C-5.455 9.495 -5.455 9.495 -10 10 C-10.33 16.93 -10.66 23.86 -11 31 C-13.97 31 -16.94 31 -20 31 C-20 21.1 -20 11.2 -20 1 C-17.03 1 -14.06 1 -11 1 C-10.67 1.66 -10.34 2.32 -10 3 C-8.9171875 2.2575 -8.9171875 2.2575 -7.8125 1.5 C-4.85151341 -0.07919285 -3.28746971 -0.28178312 0 0 Z " fill="#556C96" transform="translate(84,119)"/>
<path d="M0 0 C2.64 0 5.28 0 8 0 C8 13.86 8 27.72 8 42 C5.36 42 2.72 42 0 42 C0 28.14 0 14.28 0 0 Z " fill="#3C548E" transform="translate(222,108)"/>
<path d="M0 0 C2.31 0.33 4.62 0.66 7 1 C7 2.65 7 4.3 7 6 C7.99 6 8.98 6 10 6 C10.33 6.66 10.66 7.32 11 8 C12.03833984 7.24783203 12.03833984 7.24783203 13.09765625 6.48046875 C16.6293314 4.6789817 18.53434846 4.85736219 22.4375 5.3125 C26.66123565 5.77626318 30.74855346 6.07053682 35 6 C35 6.33 35 6.66 35 7 C34.37351563 7.20496094 33.74703125 7.40992187 33.1015625 7.62109375 C32.28429687 7.89050781 31.46703125 8.15992187 30.625 8.4375 C29.81289062 8.70433594 29.00078125 8.97117187 28.1640625 9.24609375 C25.98968201 9.95179729 25.98968201 9.95179729 24 11 C24 10.01 24 9.02 24 8 C21.03 8 18.06 8 15 8 C15 17.9 15 27.8 15 38 C14.67 38 14.34 38 14 38 C13.67 36.35 13.34 34.7 13 33 C11.68 34.98 10.36 36.96 9 39 C7.0625 38.6875 7.0625 38.6875 5 38 C4.505 36.515 4.505 36.515 4 35 C2.02 35.495 2.02 35.495 0 36 C1.375 34 1.375 34 3 32 C3.66 32 4.32 32 5 32 C5 31.34 5 30.68 5 30 C5.66 29.67 6.32 29.34 7 29 C9.08920499 22.38418421 10.41672102 16.1876223 7.5 9.625 C7.005 8.75875 6.51 7.8925 6 7 C6 6.34 6 5.68 6 5 C5.38125 4.731875 4.7625 4.46375 4.125 4.1875 C2 3 2 3 0 0 Z " fill="#F0F8F9" transform="translate(49,112)"/>
<path d="M0 0 C2.64 0 5.28 0 8 0 C8 9.9 8 19.8 8 30 C5.69 30 3.38 30 1 30 C0 29 0 29 -0.11352539 26.22436523 C-0.10828857 25.01466064 -0.10305176 23.80495605 -0.09765625 22.55859375 C-0.09443359 21.25341797 -0.09121094 19.94824219 -0.08789062 18.60351562 C-0.07953401 17.2148431 -0.07106905 15.82617123 -0.0625 14.4375 C-0.05748666 13.04492344 -0.05292347 11.65234519 -0.04882812 10.25976562 C-0.03699434 6.8398013 -0.0205088 3.41992156 0 0 Z " fill="#3D568E" transform="translate(126,120)"/>
<path d="M0 0 C0 0.66 0 1.32 0 2 C0.66 2 1.32 2 2 2 C4.29013653 5.4352048 4.17842973 6.985331 4 11 C3.34 11 2.68 11 2 11 C2.02320313 11.60328125 2.04640625 12.2065625 2.0703125 12.828125 C2.09738281 14.02695313 2.09738281 14.02695313 2.125 15.25 C2.14820313 16.03890625 2.17140625 16.8278125 2.1953125 17.640625 C1.97711178 20.27648974 1.42967069 21.78448383 0 24 C-3 26 -3 26 -6 26 C-5.83886719 25.44441406 -5.67773438 24.88882813 -5.51171875 24.31640625 C-4.95565278 21.79925267 -4.83192948 19.5138488 -4.8125 16.9375 C-4.79123047 15.65166016 -4.79123047 15.65166016 -4.76953125 14.33984375 C-4.84153915 11.72801691 -4.84153915 11.72801691 -7 9 C-7 8.01 -7 7.02 -7 6 C-9.64 5.67 -12.28 5.34 -15 5 C-14.8125 2.625 -14.8125 2.625 -14 0 C-9.60504256 -2.84379599 -4.59532236 -2.29766118 0 0 Z " fill="#4FB3C2" transform="translate(143,89)"/>
<path d="M0 0 C2.4375 1.5 2.4375 1.5 4 4 C4.4827109 8.34439813 4.42711218 10.88476263 2.875 14.9375 C1 17 1 17 -2.0625 17.875 C-5 18 -5 18 -7 17 C-7 16.34 -7 15.68 -7 15 C-8.32 14.67 -9.64 14.34 -11 14 C-11.61593211 5.03476595 -11.61593211 5.03476595 -9.4375 1.375 C-6.03897329 -0.54211763 -3.84031465 -0.54861638 0 0 Z " fill="#F4F7F8" transform="translate(202,126)"/>
<path d="M0 0 C0.99 -0.33 1.98 -0.66 3 -1 C5.1875 -0.0625 5.1875 -0.0625 7 1 C7 3.64 7 6.28 7 9 C5.68 8.34 4.36 7.68 3 7 C2.67 7.66 2.34 8.32 2 9 C1.34 9 0.68 9 0 9 C0 9.66 0 10.32 0 11 C0.66 11 1.32 11 2 11 C1.67 11.99 1.34 12.98 1 14 C0.01 13.67 -0.98 13.34 -2 13 C-2.33 14.98 -2.66 16.96 -3 19 C-2.34 19.33 -1.68 19.66 -1 20 C-2.32 20 -3.64 20 -5 20 C-5.33 18.68 -5.66 17.36 -6 16 C-7.32 16 -8.64 16 -10 16 C-12 14 -12 14 -12.4375 10.8125 C-11.90384799 6.16210394 -10.30344457 3.29413909 -7 0 C-3.75370153 -1.08209949 -3.12563502 -0.78140875 0 0 Z " fill="#FAFAF9" transform="translate(40,121)"/>
<path d="M0 0 C0.33 0 0.66 0 1 0 C1 1.98 1 3.96 1 6 C1.99 6 2.98 6 4 6 C3.89300781 6.71285156 3.78601563 7.42570312 3.67578125 8.16015625 C2.79934151 15.1622501 2.91277147 19.87758802 7.31640625 25.7578125 C8.50065334 27.20859953 9.74531829 28.60967702 11 30 C9.02 30 7.04 30 5 30 C5 28.35 5 26.7 5 25 C4.34 25 3.68 25 3 25 C2.67 24.34 2.34 23.68 2 23 C1.67 23.66 1.34 24.32 1 25 C0.34 25.33 -0.32 25.66 -1 26 C-1.33 26.66 -1.66 27.32 -2 28 C-2.66 27.67 -3.32 27.34 -4 27 C-3.67 28.32 -3.34 29.64 -3 31 C-6.96 31 -10.92 31 -15 31 C-15 30.67 -15 30.34 -15 30 C-12.03 30 -9.06 30 -6 30 C-6 22.41 -6 14.82 -6 7 C-4.02 7 -2.04 7 0 7 C0 4.69 0 2.38 0 0 Z " fill="#F5F5F7" transform="translate(181,120)"/>
<path d="M0 0 C0.66 0 1.32 0 2 0 C2 0.99 2 1.98 2 3 C2.639375 3.144375 3.27875 3.28875 3.9375 3.4375 C6 4 6 4 7 5 C7.33 4.34 7.66 3.68 8 3 C10.64 3 13.28 3 16 3 C16.33 3.66 16.66 4.32 17 5 C17.66 3.35 18.32 1.7 19 0 C21.97 0 24.94 0 28 0 C27.34 3.3 26.68 6.6 26 10 C25.34 10 24.68 10 24 10 C23.67 9.01 23.34 8.02 23 7 C22.67 7.99 22.34 8.98 22 10 C21.34 10 20.68 10 20 10 C19.67 9.34 19.34 8.68 19 8 C18.67 8.99 18.34 9.98 18 11 C16.02 11 14.04 11 12 11 C12 9.35 12 7.7 12 6 C11.34 6 10.68 6 10 6 C10 7.65 10 9.3 10 11 C6.04 11 2.08 11 -2 11 C-1.125 1.125 -1.125 1.125 0 0 Z " fill="#8C8C8B" transform="translate(136,159)"/>
<path d="M0 0 C2.52336407 0.03823279 3.67366285 0.26353448 5.73046875 1.75390625 C7.33630589 3.96254995 7.37188992 5.22840586 7.3125 7.9375 C7.30863281 8.69933594 7.30476563 9.46117187 7.30078125 10.24609375 C6.96409711 12.76903854 6.41208281 14.38187579 5 16.5 C1.6875 17.5625 1.6875 17.5625 -2 17.5 C-4.9375 15.5 -4.9375 15.5 -7 12.5 C-7.54727757 8.66905699 -7.24207353 6.21109098 -6 2.5625 C-3.71440695 0.20548217 -3.1525647 0.13328858 0 0 Z " fill="#EDF6F6" transform="translate(104,126.5)"/>
<path d="M0 0 C2.31 0 4.62 0 7 0 C7 4.62 7 9.24 7 14 C7.66 13.67 8.32 13.34 9 13 C10.87379605 12.92966231 12.75001102 12.9156978 14.625 12.9375 C16.12933594 12.95103516 16.12933594 12.95103516 17.6640625 12.96484375 C18.43492188 12.97644531 19.20578125 12.98804687 20 13 C20.33 13.99 20.66 14.98 21 16 C20.360625 16.12375 19.72125 16.2475 19.0625 16.375 C15.02988724 17.1979822 11.01576093 18.09885975 7 19 C7 19.66 7 20.32 7 21 C6.34 21 5.68 21 5 21 C5 20.34 5 19.68 5 19 C4.34 19 3.68 19 3 19 C2.67 19.99 2.34 20.98 2 22 C1.34 22 0.68 22 0 22 C0 14.74 0 7.48 0 0 Z " fill="#375694" transform="translate(90,108)"/>
<path d="M0 0 C-3 1 -3 1 -5 1 C-4.1028125 1.6496875 -4.1028125 1.6496875 -3.1875 2.3125 C-1.27774598 3.78573882 0.41897819 5.18182492 2 7 C2 7.66 2 8.32 2 9 C2.66 9 3.32 9 4 9 C3.67 10.32 3.34 11.64 3 13 C2.34 12.67 1.68 12.34 1 12 C1.33 12.99 1.66 13.98 2 15 C2.12781786 17.67394964 2.04391871 20.32095857 2 23 C1.67 23 1.34 23 1 23 C0.91363281 22.25234375 0.82726562 21.5046875 0.73828125 20.734375 C-0.11128593 14.66994075 -0.11128593 14.66994075 -2.875 9.3125 C-7.10252372 7.53694004 -10.73586884 7.93605789 -15.2578125 8.34765625 C-18 8 -18 8 -19.88671875 5.640625 C-21 3 -21 3 -20.6875 0.6875 C-20.460625 0.130625 -20.23375 -0.42625 -20 -1 C-12.88319978 -2.77920006 -6.83658271 -2.2788609 0 0 Z " fill="#3B5994" transform="translate(49,111)"/>
<path d="M0 0 C0.33 1.32 0.66 2.64 1 4 C3.64 4 6.28 4 9 4 C9 4.33 9 4.66 9 5 C6.36 5 3.72 5 1 5 C1 6.98 1 8.96 1 11 C-0.98 11 -2.96 11 -5 11 C-5 13.31 -5 15.62 -5 18 C-5.33 18 -5.66 18 -6 18 C-6.33 22.95 -6.66 27.9 -7 33 C-5.515 32.505 -5.515 32.505 -4 32 C-4 36 -4 36 -5.3125 37.484375 C-6.875 38.65625 -8.4375 39.828125 -10 41 C-10.0247636 36.65836985 -10.04289015 32.3167774 -10.05493164 27.97509766 C-10.05995288 26.49885339 -10.06677116 25.02261408 -10.07543945 23.54638672 C-10.08760189 21.42153702 -10.09325046 19.29675322 -10.09765625 17.171875 C-10.10289307 15.8940918 -10.10812988 14.61630859 -10.11352539 13.29980469 C-9.94 8.256 -9.94 8.256 -9 6 C-6.0625 4.8125 -6.0625 4.8125 -3 4 C-2.34 3.67 -1.68 3.34 -1 3 C-0.67 2.01 -0.34 1.02 0 0 Z " fill="#ECF8FA" transform="translate(144,109)"/>
<path d="M0 0 C0.5775 0.226875 1.155 0.45375 1.75 0.6875 C1.09 2.6675 0.43 4.6475 -0.25 6.6875 C-1.57 6.6875 -2.89 6.6875 -4.25 6.6875 C-4.87529897 11.7122239 -5.38012092 16.61278427 -5.25 21.6875 C-4.321875 21.7803125 -4.321875 21.7803125 -3.375 21.875 C-1.25 22.6875 -1.25 22.6875 0 25.25 C0.2475 26.054375 0.495 26.85875 0.75 27.6875 C-4.19816714 30.49146138 -8.86682285 29.46100507 -14.25 28.6875 C-13.04618552 26.19388429 -11.79571278 24.00606917 -10.25 21.6875 C-10.25 19.73426389 -10.25465172 17.78050428 -10.3125 15.828125 C-10.21679958 12.55038547 -9.28344784 9.78784351 -8.25 6.6875 C-7.59 6.6875 -6.93 6.6875 -6.25 6.6875 C-6.25 5.3675 -6.25 4.0475 -6.25 2.6875 C-4.0985146 0.45917583 -3.1311405 -0.43488062 0 0 Z " fill="#F9F9ED" transform="translate(119.25,86.3125)"/>
<path d="M0 0 C0.845625 0.66 1.69125 1.32 2.5625 2 C1.5725 2.495 1.5725 2.495 0.5625 3 C0.8925 4.98 1.2225 6.96 1.5625 9 C1.046875 8.505 0.53125 8.01 0 7.5 C-3.30471204 5.46633105 -5.62203778 5.6531398 -9.4375 6 C-10.4275 6.66 -11.4175 7.32 -12.4375 8 C-13.0975 7.67 -13.7575 7.34 -14.4375 7 C-14.4375 8.32 -14.4375 9.64 -14.4375 11 C-15.365625 11.12375 -15.365625 11.12375 -16.3125 11.25 C-18.62187567 11.81258459 -18.62187567 11.81258459 -19.6875 14.0625 C-19.935 14.701875 -20.1825 15.34125 -20.4375 16 C-20.7675 16 -21.0975 16 -21.4375 16 C-21.03020499 9.55350305 -20.18629496 5.34635908 -16 0.25 C-11.33600533 -3.48119574 -4.87492647 -2.83632085 0 0 Z " fill="#425B95" transform="translate(204.4375,121)"/>
<path d="M0 0 C1.67542976 0.28604898 3.34385343 0.61781233 5 1 C4.67 1.66 4.34 2.32 4 3 C4.33 3.66 4.66 4.32 5 5 C7.52733235 5.65555119 7.52733235 5.65555119 10 6 C10.33 7.32 10.66 8.64 11 10 C9.35 10.33 7.7 10.66 6 11 C4.77100654 17.06815522 3.72439786 22.79895188 4 29 C2.68 28.67 1.36 28.34 0 28 C0 22.39 0 16.78 0 11 C-2.97 10.505 -2.97 10.505 -6 10 C-6 8.35 -6 6.7 -6 5 C-3.525 5.495 -3.525 5.495 -1 6 C-1.020625 5.195625 -1.04125 4.39125 -1.0625 3.5625 C-1 1 -1 1 0 0 Z " fill="#274487" transform="translate(147,116)"/>
<path d="M0 0 C1.65 0 3.3 0 5 0 C5 0.66 5 1.32 5 2 C4.01 2 3.02 2 2 2 C2 2.66 2 3.32 2 4 C2.99 4.33 3.98 4.66 5 5 C4.67 6.32 4.34 7.64 4 9 C3.34 9 2.68 9 2 9 C2 9.66 2 10.32 2 11 C1.21625 10.979375 0.4325 10.95875 -0.375 10.9375 C-2.98114961 10.81315937 -2.98114961 10.81315937 -5 12 C-5.66 11.67 -6.32 11.34 -7 11 C-8.53668865 10.77532169 -10.07968054 10.59203195 -11.625 10.4375 C-12.44226562 10.35371094 -13.25953125 10.26992187 -14.1015625 10.18359375 C-14.72804687 10.12300781 -15.35453125 10.06242188 -16 10 C-15.44271087 6.65626525 -14.64826111 3.96687001 -13 1 C-9.625 1.3125 -9.625 1.3125 -6 2 C-5.01 3.485 -5.01 3.485 -4 5 C-3.34 4.67 -2.68 4.34 -2 4 C-2 3.34 -2 2.68 -2 2 C-1.34 2 -0.68 2 0 2 C0 1.34 0 0.68 0 0 Z " fill="#F6E1DD" transform="translate(69,160)"/>
<path d="M0 0 C0.33 0 0.66 0 1 0 C1 13.86 1 27.72 1 42 C3.64 42 6.28 42 9 42 C9 42.33 9 42.66 9 43 C5.7 43 2.4 43 -1 43 C-1.33 43.99 -1.66 44.98 -2 46 C-2.99 46 -3.98 46 -5 46 C-4.67 44.68 -4.34 43.36 -4 42 C-4.99 42 -5.98 42 -7 42 C-7 32.1 -7 22.2 -7 12 C-6.34 12 -5.68 12 -5 12 C-4.67 19.92 -4.34 27.84 -4 36 C-3.34 36.33 -2.68 36.66 -2 37 C-2 36.01 -2 35.02 -2 34 C-1.34 34 -0.68 34 0 34 C0 22.78 0 11.56 0 0 Z " fill="#CBD6E9" transform="translate(221,108)"/>
<path d="M0 0 C2.22855574 -0.0814222 4.45797655 -0.13938079 6.6875 -0.1875 C8.54955078 -0.23970703 8.54955078 -0.23970703 10.44921875 -0.29296875 C16.55813585 0.21106731 20.04738575 3.49841155 24 8 C25.3262098 11.60205132 25.13299124 15.262665 25.125 19.0625 C25.12886719 20.90521484 25.12886719 20.90521484 25.1328125 22.78515625 C25 26 25 26 24 29 C23.34 29 22.68 29 22 29 C21.34 28.01 20.68 27.02 20 26 C19.34 26 18.68 26 18 26 C18 21.38 18 16.76 18 12 C18.66 12 19.32 12 20 12 C20.33 11.01 20.66 10.02 21 9 C20.34 9 19.68 9 19 9 C17.97971135 7.68212715 16.98028616 6.34789347 16 5 C15.34 4.67 14.68 4.34 14 4 C13.34 3.34 12.68 2.68 12 2 C9.10776497 1.53603307 9.10776497 1.53603307 5.875 1.375 C4.23144531 1.26285156 4.23144531 1.26285156 2.5546875 1.1484375 C1.71164063 1.09945312 0.86859375 1.05046875 0 1 C0 0.67 0 0.34 0 0 Z " fill="#2D497F" transform="translate(32,111)"/>
<path d="M0 0 C4.55555556 0.55555556 4.55555556 0.55555556 6 2 C6.33 1.34 6.66 0.68 7 0 C13.27 0.33 19.54 0.66 26 1 C26 2.65 26 4.3 26 6 C25.01 6.495 25.01 6.495 24 7 C24 5.35 24 3.7 24 2 C21.48916886 3.25541557 21.12874554 4.50063488 20 7 C19.67 6.34 19.34 5.68 19 5 C19.33 4.01 19.66 3.02 20 2 C19.01 2.33 18.02 2.66 17 3 C16.67 4.65 16.34 6.3 16 8 C14.5629191 8.05422947 13.12524538 8.09289723 11.6875 8.125 C10.88699219 8.14820313 10.08648437 8.17140625 9.26171875 8.1953125 C7 8 7 8 4 6 C3.67 6.66 3.34 7.32 3 8 C0.03 7.505 0.03 7.505 -3 7 C-2.25 2.25 -2.25 2.25 0 0 Z " fill="#8E918F" transform="translate(78,162)"/>
<path d="M0 0 C1.65 0.33 3.3 0.66 5 1 C6.43628457 1.06266512 7.8750555 1.08686347 9.3125 1.0625 C10.529375 1.041875 11.74625 1.02125 13 1 C12.01 1.495 12.01 1.495 11 2 C11.495 2.825 11.99 3.65 12.5 4.5 C14.32352081 8.75488188 14.23673689 11.42308671 14 16 C13.67 16 13.34 16 13 16 C12.67 14.02 12.34 12.04 12 10 C11.34 10 10.68 10 10 10 C9.67 10.66 9.34 11.32 9 12 C8.01 12 7.02 12 6 12 C6 12.66 6 13.32 6 14 C3.36 13.34 0.72 12.68 -2 12 C-1.34 8.04 -0.68 4.08 0 0 Z " fill="#F3F6DB" transform="translate(125,93)"/>
<path d="M0 0 C0.99 0.33 1.98 0.66 3 1 C4.42857143 9.57142857 4.42857143 9.57142857 2 13 C1.34 13 0.68 13 0 13 C-0.33 14.65 -0.66 16.3 -1 18 C-3.64 18 -6.28 18 -9 18 C-8.67 27.57 -8.34 37.14 -8 47 C-5.69 47.33 -3.38 47.66 -1 48 C-1 48.33 -1 48.66 -1 49 C-7.15234375 49.09765625 -7.15234375 49.09765625 -9 49 C-10 48 -10 48 -10.11352539 45.22436523 C-10.10828857 44.01466064 -10.10305176 42.80495605 -10.09765625 41.55859375 C-10.09443359 40.25341797 -10.09121094 38.94824219 -10.08789062 37.60351562 C-10.07953401 36.2148431 -10.07106905 34.82617123 -10.0625 33.4375 C-10.05748666 32.04492344 -10.05292347 30.65234519 -10.04882812 29.25976562 C-10.03699434 25.8398013 -10.0205088 22.41992156 -10 19 C-11.32 19.33 -12.64 19.66 -14 20 C-14.33 17.36 -14.66 14.72 -15 12 C-14.484375 12.165 -13.96875 12.33 -13.4375 12.5 C-9.30189485 13.34832926 -5.57023635 13.66115215 -1.625 12 C0.90243766 8.88930749 0.74053312 5.9568699 1 2 C0.34 1.67 -0.32 1.34 -1 1 C-0.67 0.67 -0.34 0.34 0 0 Z " fill="#D2D2DF" transform="translate(135,102)"/>
<path d="M0 0 C0.91120605 0.01047363 1.82241211 0.02094727 2.76123047 0.03173828 C3.74736328 0.03818359 4.73349609 0.04462891 5.74951172 0.05126953 C7.29832031 0.07640625 7.29832031 0.07640625 8.87841797 0.10205078 C9.91869141 0.11107422 10.95896484 0.12009766 12.03076172 0.12939453 C14.60520889 0.15301331 17.17920009 0.18594929 19.75341797 0.22705078 C19.75341797 0.88705078 19.75341797 1.54705078 19.75341797 2.22705078 C18.10341797 2.22705078 16.45341797 2.22705078 14.75341797 2.22705078 C14.75341797 3.54705078 14.75341797 4.86705078 14.75341797 6.22705078 C16.07341797 6.55705078 17.39341797 6.88705078 18.75341797 7.22705078 C16.44091797 7.85205078 16.44091797 7.85205078 13.75341797 8.22705078 C12.76341797 7.56705078 11.77341797 6.90705078 10.75341797 6.22705078 C10.42341797 6.88705078 10.09341797 7.54705078 9.75341797 8.22705078 C9.75341797 6.24705078 9.75341797 4.26705078 9.75341797 2.22705078 C9.09341797 2.22705078 8.43341797 2.22705078 7.75341797 2.22705078 C7.42341797 3.87705078 7.09341797 5.52705078 6.75341797 7.22705078 C5.10834579 7.42111556 3.46232203 7.60713014 1.81591797 7.78955078 C0.44113281 7.94617188 0.44113281 7.94617188 -0.96142578 8.10595703 C-1.71552734 8.14591797 -2.46962891 8.18587891 -3.24658203 8.22705078 C-4.24658203 7.22705078 -4.24658203 7.22705078 -4.43408203 4.78955078 C-4.18828718 1.43035453 -3.40902613 0.34453318 0 0 Z " fill="#A1A1A1" transform="translate(168.24658203125,161.77294921875)"/>
<path d="M0 0 C5.74665235 -0.45973219 8.50591552 0.40473242 13 4 C13.71027344 4.54914063 14.42054687 5.09828125 15.15234375 5.6640625 C17.69004217 8.87240004 17.51732987 11.71467421 17.375 15.625 C17.37371094 16.305625 17.37242188 16.98625 17.37109375 17.6875 C17.28161154 22.71838846 17.28161154 22.71838846 15 25 C15 24.34 15 23.68 15 23 C14.01 22.67 13.02 22.34 12 22 C12.66 21.67 13.32 21.34 14 21 C15.0317435 18.06699331 15.10790988 15.33787164 15.0625 12.25 C15.05347656 11.45078125 15.04445313 10.6515625 15.03515625 9.828125 C15.02355469 9.22484375 15.01195313 8.6215625 15 8 C13.35 8 11.7 8 10 8 C10.33 8.70125 10.66 9.4025 11 10.125 C12.12396756 13.35640675 12.36155025 15.60142766 12 19 C10.5 21.375 10.5 21.375 9 23 C8.34 22.67 7.68 22.34 7 22 C7.33 21.34 7.66 20.68 8 20 C8.12005453 18.50350638 8.17531451 17.00125207 8.1875 15.5 C8.20876953 14.30890625 8.20876953 14.30890625 8.23046875 13.09375 C8.19666303 10.77966683 8.19666303 10.77966683 6 9 C3.34462628 8.43479997 0.70855287 8.26211802 -2 8 C1.00617269 4.99382731 3.82381598 5.40414684 8 5 C8 4.01 8 3.02 8 2 C5.03 2 2.06 2 -1 2 C-0.67 1.34 -0.34 0.68 0 0 Z " fill="#4F6596" transform="translate(102,119)"/>
<path d="M0 0 C2.64 0 5.28 0 8 0 C8.19491452 1.45736087 8.38069358 2.91594593 8.5625 4.375 C8.66691406 5.18710938 8.77132812 5.99921875 8.87890625 6.8359375 C9 9 9 9 8 11 C7.34 11 6.68 11 6 11 C6 11.66 6 12.32 6 13 C2.37 12.67 -1.26 12.34 -5 12 C-5 10.02 -5 8.04 -5 6 C-3.35 6 -1.7 6 0 6 C0 4.02 0 2.04 0 0 Z " fill="#26449A" transform="translate(167,114)"/>
<path d="M0 0 C0.66 0.66 1.32 1.32 2 2 C1.67 2.99 1.34 3.98 1 5 C-0.65 5.33 -2.3 5.66 -4 6 C-4.33 7.65 -4.66 9.3 -5 11 C-4.34 11.33 -3.68 11.66 -3 12 C-4.32 11.67 -5.64 11.34 -7 11 C-7.66 12.98 -8.32 14.96 -9 17 C-10.32 16.34 -11.64 15.68 -13 15 C-13.34518199 9.36202751 -12.63930407 5.88760013 -10 1 C-6.47940432 -0.17353189 -3.693507 -0.20146402 0 0 Z " fill="#E7BC25" transform="translate(133,83)"/>
<path d="M0 0 C0.99 0 1.98 0 3 0 C3.33 0.66 3.66 1.32 4 2 C7.04581269 2.46954261 7.04581269 2.46954261 10.5625 2.625 C11.76003906 2.69976562 12.95757812 2.77453125 14.19140625 2.8515625 C15.11824219 2.90054688 16.04507813 2.94953125 17 3 C16.67 5.31 16.34 7.62 16 10 C14.35 10.33 12.7 10.66 11 11 C11.33 10.01 11.66 9.02 12 8 C10.02463255 8.34786708 10.02463255 8.34786708 8 9 C7.67 9.66 7.34 10.32 7 11 C4.35139573 11.59355614 1.70802678 11.74209269 -1 12 C-0.67 8.04 -0.34 4.08 0 0 Z " fill="#B7B8B7" transform="translate(106,159)"/>
<path d="M0 0 C10.16236162 -0.39852399 10.16236162 -0.39852399 14 2 C15.167333 5.23035548 15.10304515 8.34420751 15.0625 11.75 C15.05347656 12.73484375 15.04445312 13.7196875 15.03515625 14.734375 C15.02355469 15.48203125 15.01195312 16.2296875 15 17 C14.01 17 13.02 17 12 17 C12 19.64 12 22.28 12 25 C11.34 25 10.68 25 10 25 C10 22.03 10 19.06 10 16 C10.66 16 11.32 16 12 16 C11.34 13.03 10.68 10.06 10 7 C9.34 7 8.68 7 8 7 C8 6.34 8 5.68 8 5 C3.545 4.01 3.545 4.01 -1 3 C-0.67 2.01 -0.34 1.02 0 0 Z " fill="#E9FCF9" transform="translate(135,84)"/>
<path d="M0 0 C0 0.66 0 1.32 0 2 C0.66 2 1.32 2 2 2 C3.35439668 4.70879335 3.06501451 7.00933268 3 10 C2.01 9.67 1.02 9.34 0 9 C0 8.34 0 7.68 0 7 C-7.425 6.01 -7.425 6.01 -15 5 C-14.67 3.35 -14.34 1.7 -14 0 C-9.60504256 -2.84379599 -4.59532236 -2.29766118 0 0 Z " fill="#2C976D" transform="translate(143,89)"/>
<path d="M0 0 C0.33 0 0.66 0 1 0 C1.86140345 11.65766007 1.86140345 11.65766007 -1.5 16.25 C-2.325 17.1575 -3.15 18.065 -4 19 C-5.9375 18.6875 -5.9375 18.6875 -8 18 C-8.33 17.01 -8.66 16.02 -9 15 C-10.32 15.33 -11.64 15.66 -13 16 C-11.625 14 -11.625 14 -10 12 C-9.34 12 -8.68 12 -8 12 C-8 11.34 -8 10.68 -8 10 C-7.34 9.67 -6.68 9.34 -6 9 C-4.97388051 7.34928604 -3.97691857 5.68029994 -3 4 C-2.04175747 2.63634717 -1.05278825 1.29205831 0 0 Z " fill="#F8F7FC" transform="translate(62,132)"/>
<path d="M0 0 C2.625 2 2.625 2 4 4 C3.0925 3.835 2.185 3.67 1.25 3.5 C-2.61346002 2.90562154 -6.37136306 2.41247134 -10 4 C-12.60481232 7.11130361 -13.9137761 9.12051623 -14.3125 13.1875 C-14.09094144 16.07639081 -14.09094144 16.07639081 -13 19 C-11.68 18.67 -10.36 18.34 -9 18 C-8.67 19.65 -8.34 21.3 -8 23 C-5.03 23 -2.06 23 1 23 C1 23.33 1 23.66 1 24 C-9.69607681 24.85644743 -9.69607681 24.85644743 -13.6875 22.25 C-17.17129727 17.35385248 -16.94385545 12.82044195 -16 7 C-12.94620879 -0.52137466 -7.36936334 -0.91522738 0 0 Z " fill="#E1E9F5" transform="translate(43,118)"/>
<path d="M0 0 C1.32 0 2.64 0 4 0 C4 0.66 4 1.32 4 2 C5.65 1.67 7.3 1.34 9 1 C9.33 6.61 9.66 12.22 10 18 C9.34 18 8.68 18 8 18 C8 13.38 8 8.76 8 4 C5.36 4 2.72 4 0 4 C0 17.53 0 31.06 0 45 C-0.33 45 -0.66 45 -1 45 C-1.33 36.42 -1.66 27.84 -2 19 C-2.99 19.33 -3.98 19.66 -5 20 C-5 18.35 -5 16.7 -5 15 C-4.01 15 -3.02 15 -2 15 C-2.02320312 14.15695313 -2.04640625 13.31390625 -2.0703125 12.4453125 C-2.08835937 11.34960938 -2.10640625 10.25390625 -2.125 9.125 C-2.14820312 8.03445312 -2.17140625 6.94390625 -2.1953125 5.8203125 C-2 3 -2 3 0 1 C0 0.67 0 0.34 0 0 Z " fill="#D5DEF1" transform="translate(89,104)"/>
<path d="M0 0 C0.33 1.65 0.66 3.3 1 5 C0.01 5 -0.98 5 -2 5 C-1.67 7.64 -1.34 10.28 -1 13 C-1.33 12.34 -1.66 11.68 -2 11 C-3.31403276 10.29605388 -4.6520257 9.63654342 -6 9 C-6.763125 8.46375 -7.52625 7.9275 -8.3125 7.375 C-11.72164258 5.63078752 -14.21524138 5.78973563 -18 6 C-18.99 6 -19.98 6 -21 6 C-21 5.34 -21 4.68 -21 4 C-19.865625 3.855625 -18.73125 3.71125 -17.5625 3.5625 C-14.19222799 3.38828522 -14.19222799 3.38828522 -13 2 C-11.38482177 1.6034419 -9.75720057 1.25684359 -8.125 0.9375 C-6.79855469 0.67259766 -6.79855469 0.67259766 -5.4453125 0.40234375 C-3 0 -3 0 0 0 Z " fill="#ECEFF8" transform="translate(120,114)"/>
<path d="M0 0 C0.66 0 1.32 0 2 0 C2.60550459 7.26605505 2.60550459 7.26605505 -0.0625 10.5 C-3.72431906 12.36986505 -5.93214595 12.50848176 -10 12 C-12.9375 10.625 -12.9375 10.625 -15 9 C-15 8.34 -15 7.68 -15 7 C-14.11248047 6.96132812 -14.11248047 6.96132812 -13.20703125 6.921875 C-7.95018101 6.54454807 -4.82251643 5.94197007 -1 2 C-0.67 1.34 -0.34 0.68 0 0 Z " fill="#C84B2F" transform="translate(134,104)"/>
<path d="M0 0 C0.125 6.75 0.125 6.75 -1 9 C-3.50390625 9.6328125 -3.50390625 9.6328125 -6.5625 10.125 C-8.08037109 10.37636719 -8.08037109 10.37636719 -9.62890625 10.6328125 C-10.80259766 10.81457031 -10.80259766 10.81457031 -12 11 C-12 9.02 -12 7.04 -12 5 C-11.34 5 -10.68 5 -10 5 C-9.731875 4.360625 -9.46375 3.72125 -9.1875 3.0625 C-7.07129989 -0.61300545 -3.8426845 -0.10385634 0 0 Z " fill="#30477D" transform="translate(84,119)"/>
<path d="M0 0 C0.99 1.485 0.99 1.485 2 3 C2 2.34 2 1.68 2 1 C2.99 1 3.98 1 5 1 C5.33 7.6 5.66 14.2 6 21 C4.02 21 2.04 21 0 21 C0 14.07 0 7.14 0 0 Z " fill="#234792" transform="translate(168,128)"/>
<path d="M0 0 C0.66 0 1.32 0 2 0 C1.96519531 0.81984375 1.93039063 1.6396875 1.89453125 2.484375 C1.85392578 4.10085937 1.85392578 4.10085937 1.8125 5.75 C1.77769531 6.81734375 1.74289063 7.8846875 1.70703125 8.984375 C2.03305233 12.34021866 2.85112023 13.49579366 5 16 C5 16.66 5 17.32 5 18 C2.25851328 17.62952882 0.41406801 17.31412056 -1.8125 15.625 C-3 14 -3 14 -3 11 C-3.99 11 -4.98 11 -6 11 C-5.67 7.7 -5.34 4.4 -5 1 C-4.67 2.32 -4.34 3.64 -4 5 C-2.68 4.67 -1.36 4.34 0 4 C0 2.68 0 1.36 0 0 Z " fill="#27498A" transform="translate(190,128)"/>
<path d="M0 0 C2.64 0 5.28 0 8 0 C8 1.98 8 3.96 8 6 C9.98 6 11.96 6 14 6 C14 8.31 14 10.62 14 13 C12.02 13 10.04 13 8 13 C8 12.67 8 12.34 8 12 C9.65 12 11.3 12 13 12 C13 11.34 13 10.68 13 10 C11.05416667 8.91041667 11.05416667 8.91041667 8.9375 8.625 C8.298125 8.41875 7.65875 8.2125 7 8 C6.67 7.01 6.34 6.02 6 5 C5.34 4.67 4.68 4.34 4 4 C4.66 3.67 5.32 3.34 6 3 C4.68 3 3.36 3 2 3 C2 4.65 2 6.3 2 8 C0.125 8.625 0.125 8.625 -2 9 C-2.66 8.34 -3.32 7.68 -4 7 C-4 8.65 -4 10.3 -4 12 C-2.68 12.33 -1.36 12.66 0 13 C-1.98 13 -3.96 13 -6 13 C-6 10.69 -6 8.38 -6 6 C-4.02 6 -2.04 6 0 6 C0 4.02 0 2.04 0 0 Z " fill="#4B5B8B" transform="translate(145,114)"/>
<path d="M0 0 C0 1.65 0 3.3 0 5 C-1.65 5 -3.3 5 -5 5 C-5 7.64 -5 10.28 -5 13 C-5.66 13 -6.32 13 -7 13 C-7 10.69 -7 8.38 -7 6 C-8.98 6 -10.96 6 -13 6 C-13 4.02 -13 2.04 -13 0 C-12.67 1.32 -12.34 2.64 -12 4 C-11.34 4 -10.68 4 -10 4 C-10 3.01 -10 2.02 -10 1 C-6.21812119 -0.83691257 -4.05431692 -1.15837626 0 0 Z " fill="#F1FBF8" transform="translate(166,114)"/>
<path d="M0 0 C0.66 0.33 1.32 0.66 2 1 C4.39657011 8.18971032 2.64784597 14.19125322 0 21 C-0.66 21 -1.32 21 -2 21 C-2 21.66 -2 22.32 -2 23 C-2.99 23.33 -3.98 23.66 -5 24 C-5.33 21.69 -5.66 19.38 -6 17 C-7.32 17.99 -8.64 18.98 -10 20 C-10.66 19.67 -11.32 19.34 -12 19 C-10.35 17.02 -8.7 15.04 -7 13 C-6.67 13.99 -6.34 14.98 -6 16 C-5.01 15.67 -4.02 15.34 -3 15 C-2.67 16.32 -2.34 17.64 -2 19 C-1.34 19 -0.68 19 0 19 C0 12.73 0 6.46 0 0 Z " fill="#576F9E" transform="translate(56,121)"/>
<path d="M0 0 C1.485 0.99 1.485 0.99 3 2 C2.34 2 1.68 2 1 2 C1 8.6 1 15.2 1 22 C1.99 21.01 2.98 20.02 4 19 C4.66 19 5.32 19 6 19 C5.34 21.64 4.68 24.28 4 27 C3.01 26.67 2.02 26.34 1 26 C1.66 27.65 2.32 29.3 3 31 C2.34 31 1.68 31 1 31 C1 32.65 1 34.3 1 36 C1.66 36 2.32 36 3 36 C2.01 38.475 2.01 38.475 1 41 C2.98 41 4.96 41 7 41 C7 41.33 7 41.66 7 42 C4.69 42 2.38 42 0 42 C0 28.14 0 14.28 0 0 Z " fill="#44568E" transform="translate(89,108)"/>
<path d="M0 0 C0.18451025 9.41002278 0.18451025 9.41002278 -1 14 C-1.33 14 -1.66 14 -2 14 C-2.33 16.64 -2.66 19.28 -3 22 C-3.66 22 -4.32 22 -5 22 C-5 15.07 -5 8.14 -5 1 C-1 0 -1 0 0 0 Z " fill="#284495" transform="translate(72,121)"/>
<path d="M0 0 C1.98 0 3.96 0 6 0 C6 13.53 6 27.06 6 41 C4.02 41 2.04 41 0 41 C0.33 40.34 0.66 39.68 1 39 C1.66 39 2.32 39 3 39 C3 38.01 3 37.02 3 36 C3.66 36 4.32 36 5 36 C5 25.44 5 14.88 5 4 C3.68 3.67 2.36 3.34 1 3 C0.67 3.66 0.34 4.32 0 5 C0 3.35 0 1.7 0 0 Z " fill="#314B75" transform="translate(223,108)"/>
<path d="M0 0 C0.99 0 1.98 0 3 0 C3.33 1.65 3.66 3.3 4 5 C6.31 5.66 8.62 6.32 11 7 C11 6.34 11 5.68 11 5 C10.34 4.67 9.68 4.34 9 4 C9 3.34 9 2.68 9 2 C9.66 2 10.32 2 11 2 C11 2.66 11 3.32 11 4 C11.66 4.33 12.32 4.66 13 5 C13.28875 5.66 13.5775 6.32 13.875 7 C14.8234856 9.20005805 14.8234856 9.20005805 17.125 9.75 C17.74375 9.8325 18.3625 9.915 19 10 C15.53512745 11.73243627 11.78856385 11.47274974 8 11 C4.09963849 8.71065737 2.01226919 6.02453837 0 2 C0 1.34 0 0.68 0 0 Z " fill="#415489" transform="translate(184,139)"/>
<path d="M0 0 C1.89952346 -0.08521741 3.79663573 -0.23729084 5.6875 -0.4375 C6.68136719 -0.53933594 7.67523438 -0.64117187 8.69921875 -0.74609375 C9.45847656 -0.82988281 10.21773437 -0.91367188 11 -1 C10.01 0.65 9.02 2.3 8 4 C7.03320312 3.855625 6.06640625 3.71125 5.0703125 3.5625 C-2.34387176 2.50542819 -9.48993256 1.68192656 -17 2 C-17 2.66 -17 3.32 -17 4 C-17.66 4 -18.32 4 -19 4 C-18.67 2.68 -18.34 1.36 -18 0 C-11.99690429 -1.00051595 -5.88018669 -1.96006223 0 0 Z " fill="#FAFAF2" transform="translate(140,82)"/>
<path d="M0 0 C1.98 0 3.96 0 6 0 C6 7.59 6 15.18 6 23 C3.53861381 19.30792071 3.11420044 15.7893499 2.4375 11.5 C1.5285945 5.67984314 1.5285945 5.67984314 0 0 Z " fill="#DCEAF8" transform="translate(139,127)"/>
<path d="M0 0 C2.23205112 0.09164713 4.46152721 0.24909478 6.6875 0.4375 C11.14477272 0.80933162 15.52654199 1.06184504 20 1 C20 1.33 20 1.66 20 2 C19.06027344 2.30744141 19.06027344 2.30744141 18.1015625 2.62109375 C17.28429687 2.89050781 16.46703125 3.15992187 15.625 3.4375 C14.81289062 3.70433594 14.00078125 3.97117187 13.1640625 4.24609375 C10.98968201 4.95179729 10.98968201 4.95179729 9 6 C9 5.01 9 4.02 9 3 C6.03 3 3.06 3 0 3 C0 12.9 0 22.8 0 33 C-0.33 33 -0.66 33 -1 33 C-1.02465392 28.46102295 -1.04283789 23.92208457 -1.05493164 19.38305664 C-1.0599714 17.83780234 -1.0668032 16.29255284 -1.07543945 14.74731445 C-1.08752076 12.53074971 -1.09323173 10.31424782 -1.09765625 8.09765625 C-1.10281754 7.4028566 -1.10797882 6.70805695 -1.11329651 5.99220276 C-1.11349277 4.3277067 -1.06189129 2.66334501 -1 1 C-0.67 0.67 -0.34 0.34 0 0 Z " fill="#E3EEF9" transform="translate(64,117)"/>
<path d="M0 0 C2.31 0 4.62 0 7 0 C7 9.9 7 19.8 7 30 C4.36 30 1.72 30 -1 30 C-1.33 29.34 -1.66 28.68 -2 28 C-2.66 28 -3.32 28 -4 28 C-4 27.01 -4 26.02 -4 25 C-2.35 24.34 -0.7 23.68 1 23 C1 24.65 1 26.3 1 28 C2.65 28 4.3 28 6 28 C6 19.09 6 10.18 6 1 C4.02 1 2.04 1 0 1 C0 0.67 0 0.34 0 0 Z " fill="#435682" transform="translate(207,120)"/>
<path d="M0 0 C4.57032573 6.09376765 5.25456074 10.61773857 5 18 C3.35 18 1.7 18 0 18 C0 12.06 0 6.12 0 0 Z " fill="#FDFDF9" transform="translate(137,124)"/>
<path d="M0 0 C0.5775 0.226875 1.155 0.45375 1.75 0.6875 C1.09 2.6675 0.43 4.6475 -0.25 6.6875 C-1.57 6.6875 -2.89 6.6875 -4.25 6.6875 C-4.31058594 7.29078125 -4.37117188 7.8940625 -4.43359375 8.515625 C-4.55927734 9.71445313 -4.55927734 9.71445313 -4.6875 10.9375 C-4.76871094 11.72640625 -4.84992188 12.5153125 -4.93359375 13.328125 C-5.22634993 15.51114639 -5.67064419 17.5648182 -6.25 19.6875 C-6.91 19.3575 -7.57 19.0275 -8.25 18.6875 C-8.25 14.7275 -8.25 10.7675 -8.25 6.6875 C-7.59 6.6875 -6.93 6.6875 -6.25 6.6875 C-6.25 5.3675 -6.25 4.0475 -6.25 2.6875 C-4.0985146 0.45917583 -3.1311405 -0.43488062 0 0 Z " fill="#FBEED9" transform="translate(119.25,86.3125)"/>
<path d="M0 0 C0.845625 0.66 1.69125 1.32 2.5625 2 C1.5725 2.495 1.5725 2.495 0.5625 3 C0.8925 4.98 1.2225 6.96 1.5625 9 C1.02625 8.525625 0.49 8.05125 -0.0625 7.5625 C-2.86592836 5.71813924 -5.13370258 5.37543153 -8.4375 5 C-7.4475 3.68 -6.4575 2.36 -5.4375 1 C-7.7475 0.67 -10.0575 0.34 -12.4375 0 C-12.4375 0.66 -12.4375 1.32 -12.4375 2 C-13.7575 1.67 -15.0775 1.34 -16.4375 1 C-11.93980218 -3.49769782 -5.24300095 -3.05047328 0 0 Z " fill="#455987" transform="translate(204.4375,121)"/>
<path d="M0 0 C2.64 0 5.28 0 8 0 C8 1.98 8 3.96 8 6 C7.67 5.34 7.34 4.68 7 4 C5.35 4 3.7 4 2 4 C2 4.99 2 5.98 2 7 C0.68 7.33 -0.64 7.66 -2 8 C-1.67 9.32 -1.34 10.64 -1 12 C-2.32 12 -3.64 12 -5 12 C-5 10.02 -5 8.04 -5 6 C-3.35 6 -1.7 6 0 6 C0 4.02 0 2.04 0 0 Z " fill="#3C547E" transform="translate(167,114)"/>
<path d="M0 0 C0.66 0 1.32 0 2 0 C3.58177926 4.15217057 4.40478458 7.54736965 4 12 C3.34 12.66 2.68 13.32 2 14 C2 12.35 2 10.7 2 9 C-1.3 9 -4.6 9 -8 9 C-8 8.34 -8 7.68 -8 7 C-6.35 7 -4.7 7 -3 7 C-2.690625 6.030625 -2.38125 5.06125 -2.0625 4.0625 C-1 1 -1 1 0 0 Z " fill="#FAFAF6" transform="translate(102,154)"/>
<path d="M0 0 C1.98 0 3.96 0 6 0 C5.01 0.495 5.01 0.495 4 1 C4 1.66 4 2.32 4 3 C3.34 3 2.68 3 2 3 C2.00523682 3.60062256 2.01047363 4.20124512 2.01586914 4.82006836 C2.03658014 7.52586838 2.04964125 10.23165177 2.0625 12.9375 C2.07087891 13.88302734 2.07925781 14.82855469 2.08789062 15.80273438 C2.09111328 16.70185547 2.09433594 17.60097656 2.09765625 18.52734375 C2.10289307 19.35999756 2.10812988 20.19265137 2.11352539 21.05053711 C2 23 2 23 1 24 C-0.51928038 24.07179964 -2.04167482 24.08392007 -3.5625 24.0625 C-4.38878906 24.05347656 -5.21507812 24.04445312 -6.06640625 24.03515625 C-7.02353516 24.01775391 -7.02353516 24.01775391 -8 24 C-8 23.67 -8 23.34 -8 23 C-5.36 23 -2.72 23 0 23 C0 15.41 0 7.82 0 0 Z " fill="#D9E8F8" transform="translate(153,127)"/>
<path d="M0 0 C2.79705825 1.39852912 2.90914993 3.13651858 4 6 C4.99 7.485 4.99 7.485 6 9 C4.35 9 2.7 9 1 9 C1 9.66 1 10.32 1 11 C5.29 11 9.58 11 14 11 C12 13 12 13 9.25 13.0625 C8.1775 13.041875 7.105 13.02125 6 13 C3.99430341 13.29714023 1.99177741 13.62061383 0 14 C-0.99 12.35 -1.98 10.7 -3 9 C-2.01 8.01 -1.02 7.02 0 6 C-0.66 6 -1.32 6 -2 6 C-1.34 4.02 -0.68 2.04 0 0 Z " fill="#2B4A83" transform="translate(25,132)"/>
<path d="M0 0 C0.66 0 1.32 0 2 0 C2 0.99 2 1.98 2 3 C3.32 3.33 4.64 3.66 6 4 C5.67 5.98 5.34 7.96 5 10 C2.69 10.33 0.38 10.66 -2 11 C-1.85957123 9.35369672 -1.71250671 7.70795821 -1.5625 6.0625 C-1.48128906 5.14597656 -1.40007812 4.22945312 -1.31640625 3.28515625 C-1 1 -1 1 0 0 Z " fill="#999A99" transform="translate(136,159)"/>
<path d="M0 0 C1.0828125 0.37125 1.0828125 0.37125 2.1875 0.75 C2.1875 4.3434292 1.60132509 5.16970421 -0.8125 7.75 C-3.3125 8.875 -3.3125 8.875 -5.8125 9.75 C-6.8025 10.41 -7.7925 11.07 -8.8125 11.75 C-8.44872975 4.47459499 -8.44872975 4.47459499 -5.5625 1.1875 C-2.8125 -0.25 -2.8125 -0.25 0 0 Z " fill="#25447E" transform="translate(28.8125,113.25)"/>
<path d="M0 0 C1.32 0.33 2.64 0.66 4 1 C4.33 2.65 4.66 4.3 5 6 C5.66 6 6.32 6 7 6 C7 6.99 7 7.98 7 9 C7.66 9 8.32 9 9 9 C9 9.99 9 10.98 9 12 C5.26512223 11.5020163 3.18762365 11.12508244 0 9 C-0.29296875 6.8359375 -0.29296875 6.8359375 -0.1875 4.375 C-0.16042969 3.55773437 -0.13335937 2.74046875 -0.10546875 1.8984375 C-0.05326172 0.95871094 -0.05326172 0.95871094 0 0 Z " fill="#D98447" transform="translate(115,97)"/>
<path d="M0 0 C0.99 0 1.98 0 3 0 C3.33 1.32 3.66 2.64 4 4 C4.66 4 5.32 4 6 4 C6.33 5.65 6.66 7.3 7 9 C3.7 9 0.4 9 -3 9 C-2.44271087 5.65626525 -1.64826111 2.96687001 0 0 Z " fill="#B9655F" transform="translate(56,161)"/>
<path d="M0 0 C0 0.66 0 1.32 0 2 C-0.99 2 -1.98 2 -3 2 C-3.99 4.97 -4.98 7.94 -6 11 C-3.03 11 -0.06 11 3 11 C3 11.66 3 12.32 3 13 C-0.63 13 -4.26 13 -8 13 C-9.21082913 8.15668347 -9.325975 5.4193525 -7 1 C-4.50523949 -0.04618989 -2.73143089 0 0 0 Z " fill="#FAE2DF" transform="translate(59,159)"/>
<path d="M0 0 C2.55687669 0.34552388 4.57501375 0.75087013 6.8125 2.0625 C8.73191549 5.1941779 8.57242665 8.43162611 8 12 C6.5625 14 6.5625 14 5 15 C4.67 15 4.34 15 4 15 C4 11.7 4 8.4 4 5 C3.01 4.67 2.02 4.34 1 4 C0.3125 1.9375 0.3125 1.9375 0 0 Z " fill="#25AACE" transform="translate(136,96)"/>
<path d="M0 0 C8.1 -0.62307692 8.1 -0.62307692 11.4375 1.6875 C14.92003646 6.84165396 15.15854692 10.16863773 14.125 16.3125 C13.92132813 17.56675781 13.71765625 18.82101563 13.5078125 20.11328125 C13.25644531 21.54220703 13.25644531 21.54220703 13 23 C12.34 23 11.68 23 11 23 C11 20.03 11 17.06 11 14 C11.66 14 12.32 14 13 14 C12.34 11.03 11.68 8.06 11 5 C10.34 5 9.68 5 9 5 C9 4.34 9 3.68 9 3 C4.545 2.01 4.545 2.01 0 1 C0 0.67 0 0.34 0 0 Z " fill="#B6EEE7" transform="translate(134,86)"/>
<path d="M0 0 C3 1 3 1 4.8125 3.4375 C9.05553864 8.40791669 14.86574765 8.32479847 21.0234375 8.8515625 C21.67570312 8.90054688 22.32796875 8.94953125 23 9 C23 9.33 23 9.66 23 10 C14.585 10.495 14.585 10.495 6 11 C5.67 9.68 5.34 8.36 5 7 C2.00384054 5.6954344 2.00384054 5.6954344 -1 5 C-0.67 3.35 -0.34 1.7 0 0 Z " fill="#D2E0EE" transform="translate(20,141)"/>
<path d="M0 0 C0.33 0 0.66 0 1 0 C1 1.98 1 3.96 1 6 C1.99 6 2.98 6 4 6 C3.85816304 7.75032844 3.71136571 9.50025534 3.5625 11.25 C3.48128906 12.22453125 3.40007812 13.1990625 3.31640625 14.203125 C3.04925416 16.56461753 2.64628032 18.71901065 2 21 C1.03929566 18.11788698 0.89418117 16.30149956 0.9375 13.3125 C0.94652344 12.50425781 0.95554688 11.69601563 0.96484375 10.86328125 C0.98224609 9.94095703 0.98224609 9.94095703 1 9 C-1.97 8.505 -1.97 8.505 -5 8 C-5 15.26 -5 22.52 -5 30 C-5.33 30 -5.66 30 -6 30 C-6 22.41 -6 14.82 -6 7 C-4.02 7 -2.04 7 0 7 C0 4.69 0 2.38 0 0 Z " fill="#CCDAED" transform="translate(181,120)"/>
<path d="M0 0 C1.23556641 0.01740234 1.23556641 0.01740234 2.49609375 0.03515625 C3.32238281 0.04417969 4.14867188 0.05320312 5 0.0625 C5.63808594 0.07410156 6.27617188 0.08570312 6.93359375 0.09765625 C7.26359375 1.08765625 7.59359375 2.07765625 7.93359375 3.09765625 C7.29421875 3.22140625 6.65484375 3.34515625 5.99609375 3.47265625 C1.96348099 4.29563845 -2.05064532 5.196516 -6.06640625 6.09765625 C-6.06640625 6.75765625 -6.06640625 7.41765625 -6.06640625 8.09765625 C-6.72640625 8.09765625 -7.38640625 8.09765625 -8.06640625 8.09765625 C-8.06640625 6.44765625 -8.06640625 4.79765625 -8.06640625 3.09765625 C-7.26203125 2.78828125 -6.45765625 2.47890625 -5.62890625 2.16015625 C-0.47303276 0.02235505 -0.47303276 0.02235505 0 0 Z " fill="#2D438A" transform="translate(103.06640625,120.90234375)"/>
<path d="M0 0 C3 2 3 2 4 4 C3.360625 4.226875 2.72125 4.45375 2.0625 4.6875 C-0.27193661 5.85250896 -0.27193661 5.85250896 -0.75 8.625 C-0.8325 9.40875 -0.915 10.1925 -1 11 C-1.66 10.67 -2.32 10.34 -3 10 C-2.34 7.03 -1.68 4.06 -1 1 C-5.455 1.495 -5.455 1.495 -10 2 C-10.66 3.98 -11.32 5.96 -12 8 C-12.33 6.68 -12.66 5.36 -13 4 C-13.66 4 -14.32 4 -15 4 C-15 3.01 -15 2.02 -15 1 C-9.82965043 -1.25374212 -5.41320135 -1.27854661 0 0 Z " fill="#E2E1E2" transform="translate(165,158)"/>
<path d="M0 0 C0.99 0.33 1.98 0.66 3 1 C4.42857143 9.57142857 4.42857143 9.57142857 2 13 C1.34 13 0.68 13 0 13 C-0.33 14.32 -0.66 15.64 -1 17 C-1 16.34 -1 15.68 -1 15 C-1.77085937 15.03480469 -2.54171875 15.06960937 -3.3359375 15.10546875 C-4.33882812 15.13253906 -5.34171875 15.15960938 -6.375 15.1875 C-7.87160156 15.23970703 -7.87160156 15.23970703 -9.3984375 15.29296875 C-10.25695312 15.19628906 -11.11546875 15.09960938 -12 15 C-12.66 14.01 -13.32 13.02 -14 12 C-13.01 12.33 -12.02 12.66 -11 13 C-7.50840951 13.25393385 -4.8748961 13.36837731 -1.625 12 C0.90243766 8.88930749 0.74053312 5.9568699 1 2 C0.34 1.67 -0.32 1.34 -1 1 C-0.67 0.67 -0.34 0.34 0 0 Z " fill="#A1929A" transform="translate(135,102)"/>
<path d="M0 0 C1.67542976 0.28604898 3.34385343 0.61781233 5 1 C4.67 1.66 4.34 2.32 4 3 C4.33 3.66 4.66 4.32 5 5 C5.99 5.33 6.98 5.66 8 6 C7.01 6.495 7.01 6.495 6 7 C6 7.66 6 8.32 6 9 C3.36 9 0.72 9 -2 9 C-2.33 8.34 -2.66 7.68 -3 7 C-2.34 6.67 -1.68 6.34 -1 6 C-1.0309375 4.7934375 -1.0309375 4.7934375 -1.0625 3.5625 C-1 1 -1 1 0 0 Z " fill="#224995" transform="translate(147,116)"/>
<path d="M0 0 C2.64 1.98 5.28 3.96 8 6 C7.67 7.65 7.34 9.3 7 11 C4.36 10.67 1.72 10.34 -1 10 C-1 9.01 -1 8.02 -1 7 C-0.01 6.67 0.98 6.34 2 6 C0.35 4.68 -1.3 3.36 -3 2 C-2.01 2 -1.02 2 0 2 C0 1.34 0 0.68 0 0 Z " fill="#415995" transform="translate(97,139)"/>
<path d="M0 0 C1.65 0 3.3 0 5 0 C6.98384711 3.96769422 6.32630565 8.85529486 5 13 C4.34 13 3.68 13 3 13 C2.01 8.71 1.02 4.42 0 0 Z " fill="#2C4296" transform="translate(112,127)"/>
<path d="M0 0 C0.99 0.33 1.98 0.66 3 1 C3.765625 2.77734375 3.765625 2.77734375 4.25 4.9375 C4.42015625 5.64777344 4.5903125 6.35804687 4.765625 7.08984375 C5 9 5 9 4 11 C2.02 10.34 0.04 9.68 -2 9 C-2 7.02 -2 5.04 -2 3 C-1.34 3 -0.68 3 0 3 C0 2.01 0 1.02 0 0 Z " fill="#FCF5ED" transform="translate(127,96)"/>
<path d="M0 0 C0.99 0.495 0.99 0.495 2 1 C1.98839844 2.14597656 1.97679687 3.29195313 1.96484375 4.47265625 C1.95545758 6.00260252 1.94635827 7.53255058 1.9375 9.0625 C1.92912109 9.81466797 1.92074219 10.56683594 1.91210938 11.34179688 C1.89191659 16.00633118 2.22404041 20.39923173 3 25 C3.99 25.33 4.98 25.66 6 26 C6 26.66 6 27.32 6 28 C4.02 28 2.04 28 0 28 C0 18.76 0 9.52 0 0 Z " fill="#32447E" transform="translate(127,121)"/>
<path d="M0 0 C0.78375 0.04125 1.5675 0.0825 2.375 0.125 C2.519375 0.888125 2.66375 1.65125 2.8125 2.4375 C3.3382594 5.20672908 3.3382594 5.20672908 4.375 8.125 C3.385 8.125 2.395 8.125 1.375 8.125 C1.375 6.475 1.375 4.825 1.375 3.125 C0.715 3.125 0.055 3.125 -0.625 3.125 C-0.625 4.775 -0.625 6.425 -0.625 8.125 C-2.275 7.795 -3.925 7.465 -5.625 7.125 C-4.53409091 0.21590909 -4.53409091 0.21590909 0 0 Z " fill="#9F9F9F" transform="translate(146.625,161.875)"/>
<path d="M0 0 C2.26598448 3.39897673 2.23742654 4.56319173 2.1953125 8.54296875 C2.18886719 9.61611328 2.18242188 10.68925781 2.17578125 11.79492188 C2.15902344 12.91447266 2.14226562 14.03402344 2.125 15.1875 C2.11597656 16.31865234 2.10695313 17.44980469 2.09765625 18.61523438 C2.07406862 21.41036828 2.041153 24.20507845 2 27 C1.67 27 1.34 27 1 27 C0.96261719 25.87980469 0.92523438 24.75960937 0.88671875 23.60546875 C0.82105743 22.1327791 0.75461014 20.66012434 0.6875 19.1875 C0.66494141 18.44951172 0.64238281 17.71152344 0.61914062 16.95117188 C0.44442045 12.66892961 0.44442045 12.66892961 -1.54296875 8.98828125 C-2.02378906 8.66214844 -2.50460938 8.33601562 -3 8 C-2.690625 7.236875 -2.38125 6.47375 -2.0625 5.6875 C-1.32106407 3.81210323 -0.63771783 1.91315348 0 0 Z " fill="#EBF4FC" transform="translate(86,120)"/>
<path d="M0 0 C0.66 0.66 1.32 1.32 2 2 C1.67 2.99 1.34 3.98 1 5 C-0.65 5.33 -2.3 5.66 -4 6 C-4.33 7.65 -4.66 9.3 -5 11 C-4.34 11.33 -3.68 11.66 -3 12 C-4.32 11.67 -5.64 11.34 -7 11 C-7 7 -7 7 -5 5 C-4.01 5 -3.02 5 -2 5 C-2 4.01 -2 3.02 -2 2 C-4.64 2 -7.28 2 -10 2 C-6.32653229 -0.44897847 -4.33643601 -0.31537716 0 0 Z " fill="#D8D273" transform="translate(133,83)"/>
<path d="M0 0 C0 3.66666667 0 7.33333333 0 11 C1.65 11 3.3 11 5 11 C5 11.66 5 12.32 5 13 C8.465 12.505 8.465 12.505 12 12 C10.375 14.0625 10.375 14.0625 8 16 C4.75 15.75 4.75 15.75 2 15 C2 14.34 2 13.68 2 13 C0.68 12.67 -0.64 12.34 -2 12 C-2.05395478 10.37536158 -2.09277195 8.75021459 -2.125 7.125 C-2.14820313 6.22007812 -2.17140625 5.31515625 -2.1953125 4.3828125 C-2 2 -2 2 0 0 Z " fill="#ACC5D4" transform="translate(193,128)"/>
<path d="M0 0 C1.4540625 0.0309375 1.4540625 0.0309375 2.9375 0.0625 C2.9375 2.0425 2.9375 4.0225 2.9375 6.0625 C-0.19599732 7.10699911 -1.05218256 6.99673645 -4.0625 6.0625 C-4.105221 4.39638095 -4.10313832 2.72867115 -4.0625 1.0625 C-3.0625 0.0625 -3.0625 0.0625 0 0 Z " fill="#939393" transform="translate(168.0625,162.9375)"/>
<path d="M0 0 C2.97 0 5.94 0 9 0 C8.34 3.3 7.68 6.6 7 10 C6.34 10 5.68 10 5 10 C4.67 8.02 4.34 6.04 4 4 C3.01 4.33 2.02 4.66 1 5 C0.67 3.35 0.34 1.7 0 0 Z " fill="#B1B4AF" transform="translate(155,159)"/>
<path d="M0 0 C2.29633824 3.44450737 2.54016485 5.93812283 3 10 C0.69 10.33 -1.62 10.66 -4 11 C-4.33 10.01 -4.66 9.02 -5 8 C-3.6875 6.0625 -3.6875 6.0625 -2 4 C-1.30419733 2.68163705 -0.62775567 1.35208914 0 0 Z " fill="#F5FBF9" transform="translate(202,130)"/>
<path d="M0 0 C0.99 0.33 1.98 0.66 3 1 C3 1.99 3 2.98 3 4 C4.32 3.67 5.64 3.34 7 3 C7.33 4.65 7.66 6.3 8 8 C10.97 8 13.94 8 17 8 C17 8.33 17 8.66 17 9 C6.25945238 9.86000826 6.25945238 9.86000826 2.3125 6.75 C0 4 0 4 0 0 Z " fill="#BCCDE2" transform="translate(27,133)"/>
<path d="M0 0 C2.625 0.375 2.625 0.375 5 1 C4.67 2.98 4.34 4.96 4 7 C2.34385343 7.38218767 0.67542976 7.71395102 -1 8 C-2 7 -2 7 -2.1875 4.5625 C-2 2 -2 2 0 0 Z " fill="#888888" transform="translate(191,162)"/>
<path d="M0 0 C-0.33 0.33 -0.66 0.66 -1 1 C-1.04080783 2.99958364 -1.04254356 5.00045254 -1 7 C-3.70879335 8.35439668 -6.00933268 8.06501451 -9 8 C-8.01 7.34 -7.02 6.68 -6 6 C-6.66 5.67 -7.32 5.34 -8 5 C-8 3.68 -8 2.36 -8 1 C-2.25 -1.125 -2.25 -1.125 0 0 Z " fill="#DCDCDC" transform="translate(191,163)"/>
<path d="M0 0 C2.64 0 5.28 0 8 0 C7.01 0.495 7.01 0.495 6 1 C6.495 1.825 6.99 2.65 7.5 3.5 C9.32352081 7.75488188 9.23673689 10.42308671 9 15 C8.67 15 8.34 15 8 15 C7.67 13.02 7.34 11.04 7 9 C6.01 8.67 5.02 8.34 4 8 C3.896875 7.236875 3.79375 6.47375 3.6875 5.6875 C2.95635961 2.82940576 2.23048087 1.84257115 0 0 Z " fill="#B0EAF2" transform="translate(130,94)"/>
<path d="M0 0 C1.65 0 3.3 0 5 0 C5 0.66 5 1.32 5 2 C4.01 2 3.02 2 2 2 C2 2.66 2 3.32 2 4 C2.99 4.33 3.98 4.66 5 5 C4.67 6.32 4.34 7.64 4 9 C2.35 9.33 0.7 9.66 -1 10 C-1.33 9.01 -1.66 8.02 -2 7 C-0.68 7.33 0.64 7.66 2 8 C2 7.01 2 6.02 2 5 C1.01 4.67 0.02 4.34 -1 4 C-0.67 2.68 -0.34 1.36 0 0 Z " fill="#837D82" transform="translate(69,160)"/>
<path d="M0 0 C3.6875 0.3125 3.6875 0.3125 6.125 1.8125 C8.39779038 5.44896461 7.97031164 8.07032535 7.6875 12.3125 C6.6975 12.3125 5.7075 12.3125 4.6875 12.3125 C4.6875 9.6725 4.6875 7.0325 4.6875 4.3125 C1.86415424 3.3248202 1.86415424 3.3248202 -0.375 2.8125 C-2.3125 2.3125 -2.3125 2.3125 -4.3125 1.3125 C-3.3125 0.3125 -3.3125 0.3125 0 0 Z " fill="#D2DBEE" transform="translate(198.3125,125.6875)"/>
<path d="M0 0 C0.66 0.33 1.32 0.66 2 1 C1.67 1.515625 1.34 2.03125 1 2.5625 C-0.35374004 5.86224134 -0.32683936 8.47013492 0 12 C0.99 12.66 1.98 13.32 3 14 C2.67 15.32 2.34 16.64 2 18 C-1 17 -1 17 -2.25 14.9375 C-3.45161712 10.23116626 -2.82962386 5.95205615 -0.9375 1.5 C-0.628125 1.005 -0.31875 0.51 0 0 Z " fill="#F3C365" transform="translate(121,86)"/>
<path d="M0 0 C0.33 0 0.66 0 1 0 C1 6.27 1 12.54 1 19 C-0.98 19 -2.96 19 -5 19 C-5 18.01 -5 17.02 -5 16 C-3.68 15.67 -2.36 15.34 -1 15 C-0.67 10.05 -0.34 5.1 0 0 Z " fill="#2F4878" transform="translate(151,130)"/>
<path d="M0 0 C0.33 0 0.66 0 1 0 C1.33 5.94 1.66 11.88 2 18 C3.32 18 4.64 18 6 18 C6 18.99 6 19.98 6 21 C4.02 21 2.04 21 0 21 C0 14.07 0 7.14 0 0 Z " fill="#314779" transform="translate(168,128)"/>
<path d="M0 0 C0.33 1.32 0.66 2.64 1 4 C3.64 4 6.28 4 9 4 C9 4.33 9 4.66 9 5 C6.36 5 3.72 5 1 5 C1 6.98 1 8.96 1 11 C-0.98 11 -2.96 11 -5 11 C-5 10.67 -5 10.34 -5 10 C-3.35 10 -1.7 10 0 10 C0 8.68 0 7.36 0 6 C-2.64 6.33 -5.28 6.66 -8 7 C-7.401875 6.71125 -6.80375 6.4225 -6.1875 6.125 C-2.02297418 4.04797494 -2.02297418 4.04797494 0 0 Z " fill="#B8D8EA" transform="translate(144,109)"/>
<path d="M0 0 C1.4540625 0.0309375 1.4540625 0.0309375 2.9375 0.0625 C2.32472388 3.02425123 1.68377478 4.44308783 -0.0625 7.0625 C-1.3825 6.7325 -2.7025 6.4025 -4.0625 6.0625 C-4.105221 4.39638095 -4.10313832 2.72867115 -4.0625 1.0625 C-3.0625 0.0625 -3.0625 0.0625 0 0 Z " fill="#808080" transform="translate(113.0625,162.9375)"/>
<path d="M0 0 C0.33 0 0.66 0 1 0 C1.33 2.64 1.66 5.28 2 8 C0.125 8.625 0.125 8.625 -2 9 C-2.66 8.34 -3.32 7.68 -4 7 C-4 8.65 -4 10.3 -4 12 C-2.68 12.33 -1.36 12.66 0 13 C-1.98 13 -3.96 13 -6 13 C-6 10.69 -6 8.38 -6 6 C-4.02 6 -2.04 6 0 6 C0 4.02 0 2.04 0 0 Z " fill="#576898" transform="translate(145,114)"/>
<path d="M0 0 C0.33 1.32 0.66 2.64 1 4 C3.97 4 6.94 4 10 4 C9.01 4.495 9.01 4.495 8 5 C8 7.64 8 10.28 8 13 C7.34 13 6.68 13 6 13 C6 10.69 6 8.38 6 6 C4.02 6 2.04 6 0 6 C0 4.02 0 2.04 0 0 Z " fill="#CFD7F1" transform="translate(153,114)"/>
<path d="M0 0 C1.98 0 3.96 0 6 0 C6 4.29 6 8.58 6 13 C5.67 13 5.34 13 5 13 C4.67 10.03 4.34 7.06 4 4 C2.02 4.99 2.02 4.99 0 6 C0 4.02 0 2.04 0 0 Z " fill="#344779" transform="translate(90,108)"/>
<path d="M0 0 C0.99 0 1.98 0 3 0 C3 1.32 3 2.64 3 4 C3.66 2.68 4.32 1.36 5 0 C5.66 0 6.32 0 7 0 C7.66 1.98 8.32 3.96 9 6 C6.36 6 3.72 6 1 6 C1 5.01 1 4.02 1 3 C0.34 3 -0.32 3 -1 3 C-0.67 2.01 -0.34 1.02 0 0 Z " fill="#D6D6D6" transform="translate(95,164)"/>
<path d="M0 0 C2.19510603 0.25361783 4.38228739 0.57765908 6.5625 0.9375 C8.35880859 1.22947266 8.35880859 1.22947266 10.19140625 1.52734375 C11.11824219 1.68332031 12.04507813 1.83929688 13 2 C13 2.33 13 2.66 13 3 C5.78194245 3.7938642 -0.80827843 4.07875823 -8 3 C-8 2.67 -8 2.34 -8 2 C-6.865625 1.855625 -5.73125 1.71125 -4.5625 1.5625 C-1.19222799 1.38828522 -1.19222799 1.38828522 0 0 Z " fill="#D2E1F0" transform="translate(97,148)"/>
<path d="M0 0 C0.66 0 1.32 0 2 0 C2.33 2.31 2.66 4.62 3 7 C0.69 7.33 -1.62 7.66 -4 8 C-3.40312566 4.65750371 -2.26396123 2.53563658 0 0 Z " fill="#224889" transform="translate(48,138)"/>
<path d="M0 0 C0.33 0.99 0.66 1.98 1 3 C1.66 3 2.32 3 3 3 C3.33 2.34 3.66 1.68 4 1 C8 6.75 8 6.75 8 9 C5.3364031 8.64005447 3.41816548 8.28838998 1.1875 6.75 C-0.39364795 4.41988723 -0.22337696 2.75498245 0 0 Z " fill="#2C458D" transform="translate(187,137)"/>
<path d="M0 0 C0.99 0.33 1.98 0.66 3 1 C2.34 1 1.68 1 1 1 C1 6.94 1 12.88 1 19 C-0.98 19 -2.96 19 -5 19 C-5 18.34 -5 17.68 -5 17 C-4.01 17 -3.02 17 -2 17 C-2 16.34 -2 15.68 -2 15 C-1.34 15 -0.68 15 0 15 C0 10.05 0 5.1 0 0 Z " fill="#354F74" transform="translate(71,130)"/>
<path d="M0 0 C0.125 6.75 0.125 6.75 -1 9 C-3.64860427 9.59355614 -6.29197322 9.74209269 -9 10 C-9 9.34 -9 8.68 -9 8 C-6.69 8 -4.38 8 -2 8 C-1.67 5.69 -1.34 3.38 -1 1 C-1.66 1 -2.32 1 -3 1 C-3 1.66 -3 2.32 -3 3 C-5.31 3.33 -7.62 3.66 -10 4 C-7.16124653 -0.25813021 -4.8137938 -0.13010254 0 0 Z " fill="#5D6E90" transform="translate(84,119)"/>
<path d="M0 0 C2 3 2 3 2 5 C2.66 5 3.32 5 4 5 C4 6.32 4 7.64 4 9 C2.0625 8.6875 2.0625 8.6875 0 8 C-0.33 7.01 -0.66 6.02 -1 5 C-2.32 5.33 -3.64 5.66 -5 6 C-3.625 4 -3.625 4 -2 2 C-1.34 2 -0.68 2 0 2 C0 1.34 0 0.68 0 0 Z " fill="#DBE6E8" transform="translate(54,142)"/>
<path d="M0 0 C0.74056641 0.09990234 1.48113281 0.19980469 2.24414062 0.30273438 C4.05959637 0.54869935 5.87370071 0.80460374 7.6875 1.0625 C7.6875 1.3925 7.6875 1.7225 7.6875 2.0625 C5.3775 2.0625 3.0675 2.0625 0.6875 2.0625 C0.6875 3.0525 0.6875 4.0425 0.6875 5.0625 C-1.3125 4.0625 -3.3125 3.0625 -5.3125 2.0625 C-6.85273996 1.99299459 -8.39584988 1.97797643 -9.9375 2 C-10.75476563 2.00902344 -11.57203125 2.01804687 -12.4140625 2.02734375 C-13.04054687 2.03894531 -13.66703125 2.05054687 -14.3125 2.0625 C-13.3125 0.0625 -13.3125 0.0625 -11.26953125 -0.62109375 C-7.38716501 -1.03651207 -3.84885104 -0.55376677 0 0 Z " fill="#C7D1E8" transform="translate(206.3125,117.9375)"/>
<path d="M0 0 C2.00906655 -0.00711174 4.01716741 0.14055932 6.01953125 0.3046875 C5.68953125 0.9646875 5.35953125 1.6246875 5.01953125 2.3046875 C3.03953125 2.3046875 1.05953125 2.3046875 -0.98046875 2.3046875 C-1.10421875 2.8409375 -1.22796875 3.3771875 -1.35546875 3.9296875 C-2.10252891 6.7685161 -3.03350239 9.52691952 -3.98046875 12.3046875 C-4.31046875 12.3046875 -4.64046875 12.3046875 -4.98046875 12.3046875 C-5.19407701 8.67334713 -5.15838808 5.82732552 -3.98046875 2.3671875 C-1.98046875 0.3046875 -1.98046875 0.3046875 0 0 Z " fill="#DCEDF6" transform="translate(101.98046875,126.6953125)"/>
<path d="M0 0 C0.33 0.99 0.66 1.98 1 3 C3.64 3 6.28 3 9 3 C9 3.33 9 3.66 9 4 C8.07767578 3.98259766 8.07767578 3.98259766 7.13671875 3.96484375 C5.92435547 3.95130859 5.92435547 3.95130859 4.6875 3.9375 C3.88699219 3.92589844 3.08648437 3.91429687 2.26171875 3.90234375 C-0.16861334 3.90342145 -0.16861334 3.90342145 -3 5 C-4.73324119 4.91538508 -6.46392812 4.76395645 -8.1875 4.5625 C-9.08855469 4.46066406 -9.98960937 4.35882813 -10.91796875 4.25390625 C-11.60503906 4.17011719 -12.29210937 4.08632812 -13 4 C-13 3.67 -13 3.34 -13 3 C-12.39671875 2.95101562 -11.7934375 2.90203125 -11.171875 2.8515625 C-10.37265625 2.77679688 -9.5734375 2.70203125 -8.75 2.625 C-7.56664062 2.52058594 -7.56664062 2.52058594 -6.359375 2.4140625 C-3.914123 1.98492887 -2.15163097 1.21399362 0 0 Z " fill="#CDD9EE" transform="translate(205,147)"/>
<path d="M0 0 C1.32 0.66 2.64 1.32 4 2 C2.68 2.33 1.36 2.66 0 3 C0 3.99 0 4.98 0 6 C-1.98 6 -3.96 6 -6 6 C-5.67 4.68 -5.34 3.36 -5 2 C-3.35 1.67 -1.7 1.34 0 1 C0 0.67 0 0.34 0 0 Z " fill="#2E4781" transform="translate(96,143)"/>
<path d="M0 0 C0.99 0 1.98 0 3 0 C3 1.65 3 3.3 3 5 C2.01 5 1.02 5 0 5 C0 7.31 0 9.62 0 12 C-2 10 -2 10 -2.01171875 7.87109375 C-1.90472656 7.06800781 -1.79773438 6.26492187 -1.6875 5.4375 C-1.58824219 4.63183594 -1.48898438 3.82617188 -1.38671875 2.99609375 C-1 1 -1 1 0 0 Z " fill="#CDA071" transform="translate(115,92)"/>
<path d="M0 0 C1.98 0 3.96 0 6 0 C6 2.31 6 4.62 6 7 C4.02 7 2.04 7 0 7 C0 6.67 0 6.34 0 6 C1.65 6 3.3 6 5 6 C5 5.34 5 4.68 5 4 C3.35 4 1.7 4 0 4 C0 2.68 0 1.36 0 0 Z " fill="#4C6398" transform="translate(175,120)"/>
<path d="M0 0 C0.66 0 1.32 0 2 0 C2.33 1.65 2.66 3.3 3 5 C-0.3 5 -3.6 5 -7 5 C-7 4.01 -7 3.02 -7 2 C-5.02 2 -3.04 2 -1 2 C-0.67 1.34 -0.34 0.68 0 0 Z " fill="#C17C7F" transform="translate(60,165)"/>
<path d="M0 0 C1.99954746 -0.04254356 4.00041636 -0.04080783 6 0 C6.33 0.33 6.66 0.66 7 1 C8.34747084 1.23075082 9.70377565 1.41153063 11.0625 1.5625 C12.361875 1.706875 13.66125 1.85125 15 2 C15 2.33 15 2.66 15 3 C10.05 3.33 5.1 3.66 0 4 C0 2.68 0 1.36 0 0 Z " fill="#3B5B99" transform="translate(26,140)"/>
<path d="M0 0 C1.9375 1.5 1.9375 1.5 3 3 C2.01 3.495 2.01 3.495 1 4 C1 3.34 1 2.68 1 2 C-2.3 2 -5.6 2 -9 2 C-9 2.66 -9 3.32 -9 4 C-10.32 3.67 -11.64 3.34 -13 3 C-9.33660683 -0.66339317 -5.01622369 -0.36481627 0 0 Z " fill="#5D6C92" transform="translate(201,119)"/>
<path d="M0 0 C0.99 0 1.98 0 3 0 C2.814375 0.556875 2.62875 1.11375 2.4375 1.6875 C1.92448835 4.399133 2.3359276 6.34371039 3 9 C1.35 9 -0.3 9 -2 9 C-1.34 7.35 -0.68 5.7 0 4 C-0.66 3.67 -1.32 3.34 -2 3 C-1.34 2.01 -0.68 1.02 0 0 Z " fill="#E2EAEC" transform="translate(116,144)"/>
<path d="M0 0 C1.65 0 3.3 0 5 0 C5 1.65 5 3.3 5 5 C4.34 5 3.68 5 3 5 C2.67 5.99 2.34 6.98 2 8 C1.34 8 0.68 8 0 8 C0 5.36 0 2.72 0 0 Z " fill="#2A428A" transform="translate(90,122)"/>
<path d="M0 0 C0.33 0.99 0.66 1.98 1 3 C-2.96 3 -6.92 3 -11 3 C-11 3.66 -11 4.32 -11 5 C-11.66 5 -12.32 5 -13 5 C-12.67 3.68 -12.34 2.36 -12 1 C-7.95858806 0.36605303 -4.0934693 -0.12404452 0 0 Z " fill="#F8FACE" transform="translate(134,81)"/>
<path d="M0 0 C0.78375 0.04125 1.5675 0.0825 2.375 0.125 C2.375 0.785 2.375 1.445 2.375 2.125 C0.725 2.125 -0.925 2.125 -2.625 2.125 C-2.625 3.445 -2.625 4.765 -2.625 6.125 C-1.305 6.455 0.015 6.785 1.375 7.125 C-0.28114657 7.50718767 -1.94957024 7.83895102 -3.625 8.125 C-4.625 7.125 -4.625 7.125 -4.8125 4.6875 C-4.54653904 1.05270021 -3.63803315 0.17323967 0 0 Z " fill="#888888" transform="translate(185.625,161.875)"/>
<path d="M0 0 C1.32 0 2.64 0 4 0 C4 2.33333333 4 4.66666667 4 7 C2.35 7.33 0.7 7.66 -1 8 C-1 7.34 -1 6.68 -1 6 C-0.34 5.67 0.32 5.34 1 5 C0.34 4.67 -0.32 4.34 -1 4 C-0.67 2.68 -0.34 1.36 0 0 Z " fill="#858585" transform="translate(125,162)"/>
<path d="M0 0 C0 0.33 0 0.66 0 1 C-0.93972656 1.30744141 -0.93972656 1.30744141 -1.8984375 1.62109375 C-2.71570313 1.89050781 -3.53296875 2.15992187 -4.375 2.4375 C-5.18710938 2.70433594 -5.99921875 2.97117187 -6.8359375 3.24609375 C-9.01031799 3.95179729 -9.01031799 3.95179729 -11 5 C-11 4.01 -11 3.02 -11 2 C-13.64 2 -16.28 2 -19 2 C-19 1.67 -19 1.34 -19 1 C-12.65758005 -0.15316726 -6.43311296 -0.09507063 0 0 Z " fill="#CDD9EB" transform="translate(84,118)"/>
<path d="M0 0 C0.33 0 0.66 0 1 0 C1 1.98 1 3.96 1 6 C1.66 6 2.32 6 3 6 C3 6.66 3 7.32 3 8 C-2.75 8.125 -2.75 8.125 -5 7 C-4.67 5.68 -4.34 4.36 -4 3 C-3.67 3.99 -3.34 4.98 -3 6 C-2.34 6 -1.68 6 -1 6 C-0.67 4.02 -0.34 2.04 0 0 Z " fill="#E1E1E1" transform="translate(159,163)"/>
<path d="M0 0 C0.66 0 1.32 0 2 0 C2.33 2.31 2.66 4.62 3 7 C2.01 7 1.02 7 0 7 C-0.93423645 3.98968256 -1.04449911 3.13349732 0 0 Z M-5 3 C-4.67 3.66 -4.34 4.32 -4 5 C-3.01 5.33 -2.02 5.66 -1 6 C-4.75 7.125 -4.75 7.125 -7 6 C-6.34 5.01 -5.68 4.02 -5 3 Z " fill="#DCDCDC" transform="translate(176,164)"/>
<path d="M0 0 C0.66 0.33 1.32 0.66 2 1 C2 2.32 2 3.64 2 5 C4.97 5.495 4.97 5.495 8 6 C8 6.33 8 6.66 8 7 C5.36 7 2.72 7 0 7 C-0.33 6.34 -0.66 5.68 -1 5 C-1.66 5 -2.32 5 -3 5 C-3 4.01 -3 3.02 -3 2 C-2.01 1.34 -1.02 0.68 0 0 Z " fill="#546AA5" transform="translate(206,143)"/>
<path d="M0 0 C2.64 0 5.28 0 8 0 C5.16569547 3.2542015 3.31392226 4.5206753 -1 5 C-1 2 -1 2 0 0 Z " fill="#445789" transform="translate(43,145)"/>
<path d="M0 0 C0 1.32 0 2.64 0 4 C-2.64 4 -5.28 4 -8 4 C-8 3.01 -8 2.02 -8 1 C-5.23735711 0.40267181 -2.83967231 0 0 0 Z " fill="#DCF7FE" transform="translate(144,115)"/>
<path d="M0 0 C1.65 0 3.3 0 5 0 C5.33 1.32 5.66 2.64 6 4 C7.98 3.67 9.96 3.34 12 3 C12 3.66 12 4.32 12 5 C7.04230204 5.29162929 3.97193147 5.12940055 0 2 C0 1.34 0 0.68 0 0 Z " fill="#BB5E49" transform="translate(119,111)"/>
<path d="M0 0 C0.66 0 1.32 0 2 0 C2 1.65 2 3.3 2 5 C2.66 5.33 3.32 5.66 4 6 C0.37 6 -3.26 6 -7 6 C-7 5.34 -7 4.68 -7 4 C-3.535 3.505 -3.535 3.505 0 3 C0 2.01 0 1.02 0 0 Z " fill="#DBE7F0" transform="translate(226,102)"/>
<path d="M0 0 C0.66 0.33 1.32 0.66 2 1 C1.67 1.99 1.34 2.98 1 4 C1.99 4.33 2.98 4.66 4 5 C3.01 5.33 2.02 5.66 1 6 C1 6.66 1 7.32 1 8 C-0.32 7.67 -1.64 7.34 -3 7 C-2.34 7 -1.68 7 -1 7 C-1 5.68 -1 4.36 -1 3 C-1.99 2.67 -2.98 2.34 -4 2 C-2.68 2 -1.36 2 0 2 C0 1.34 0 0.68 0 0 Z " fill="#D8D8D8" transform="translate(123,162)"/>
<path d="M0 0 C0 0.66 0 1.32 0 2 C-0.99 2 -1.98 2 -3 2 C-3.33 2.99 -3.66 3.98 -4 5 C-4.99 5 -5.98 5 -7 5 C-7.33 5.66 -7.66 6.32 -8 7 C-8 4 -8 4 -7 1 C-4.52260646 0.09162237 -2.66420516 0 0 0 Z " fill="#F8F0E0" transform="translate(59,159)"/>
<path d="M0 0 C0.33 0.99 0.66 1.98 1 3 C3.97 3 6.94 3 10 3 C10 3.33 10 3.66 10 4 C6.7 4 3.4 4 0 4 C-0.33 4.99 -0.66 5.98 -1 7 C-1.99 7 -2.98 7 -4 7 C-3.34 5.68 -2.68 4.36 -2 3 C-1.34 3 -0.68 3 0 3 C0 2.01 0 1.02 0 0 Z " fill="#EBEFEB" transform="translate(220,147)"/>
<path d="M0 0 C-0.66 0 -1.32 0 -2 0 C-2 0.99 -2 1.98 -2 3 C-3.32 3 -4.64 3 -6 3 C-6 2.34 -6 1.68 -6 1 C-6.99 0.67 -7.98 0.34 -9 0 C-9 -0.33 -9 -0.66 -9 -1 C-5.22102349 -2.0497157 -3.35080929 -2.10976881 0 0 Z " fill="#314679" transform="translate(205,145)"/>
<path d="M0 0 C2.31 0 4.62 0 7 0 C6.34 1.32 5.68 2.64 5 4 C3.68 4 2.36 4 1 4 C0.67 4.66 0.34 5.32 0 6 C0 4.02 0 2.04 0 0 Z " fill="#F2F9F8" transform="translate(176,128)"/>
<path d="M0 0 C0.66 0 1.32 0 2 0 C1.566875 0.928125 1.566875 0.928125 1.125 1.875 C-0.41711805 6.15866124 -1.18398547 10.52928212 -2 15 C-2.33 15 -2.66 15 -3 15 C-3 11.04 -3 7.08 -3 3 C-2.34 3 -1.68 3 -1 3 C-0.67 2.01 -0.34 1.02 0 0 Z " fill="#4D6794" transform="translate(29,118)"/>
<path d="M0 0 C-0.99 0.33 -1.98 0.66 -3 1 C-3 1.66 -3 2.32 -3 3 C-5.31 3.33 -7.62 3.66 -10 4 C-9.01 3.34 -8.02 2.68 -7 2 C-7.66 1.34 -8.32 0.68 -9 0 C-5.67465243 -1.10844919 -3.37817425 -0.84454356 0 0 Z " fill="#D7D7D7" transform="translate(120,167)"/>
<path d="M0 0 C1.65 0 3.3 0 5 0 C4.67 1.98 4.34 3.96 4 6 C2.35 6.33 0.7 6.66 -1 7 C-0.67 4.69 -0.34 2.38 0 0 Z " fill="#808080" transform="translate(118,163)"/>
<path d="M0 0 C0.66 0 1.32 0 2 0 C2 0.66 2 1.32 2 2 C1.34 2 0.68 2 0 2 C0.33 4.97 0.66 7.94 1 11 C0.34 11 -0.32 11 -1 11 C-2.50662097 7.98675805 -2.17770373 5.31713623 -2 2 C-1.34 1.34 -0.68 0.68 0 0 Z " fill="#214293" transform="translate(23,125)"/>
<path d="M0 0 C0.66 0 1.32 0 2 0 C4.48063781 9.41002278 4.48063781 9.41002278 3 14 C2.67 14 2.34 14 2 14 C1.66179834 12.4176994 1.32964061 10.83410625 1 9.25 C0.814375 8.36828125 0.62875 7.4865625 0.4375 6.578125 C0 4 0 4 0 0 Z " fill="#2D417A" transform="translate(205,124)"/>
<path d="M0 0 C0 0.99 0 1.98 0 3 C-1.65 3.33 -3.3 3.66 -5 4 C-5 4.66 -5 5.32 -5 6 C-5.66 6 -6.32 6 -7 6 C-7 4.35 -7 2.7 -7 1 C-4.50935112 0.31292445 -2.62113708 0 0 0 Z " fill="#2B477C" transform="translate(102,123)"/>
<path d="M0 0 C0.99 0.33 1.98 0.66 3 1 C6.84283684 1.13973952 10.3171369 1.17851619 14 0 C14 1.65 14 3.3 14 5 C13.67 4.34 13.34 3.68 13 3 C12.22914063 3.03480469 11.45828125 3.06960937 10.6640625 3.10546875 C9.66117188 3.13253906 8.65828125 3.15960938 7.625 3.1875 C6.12839844 3.23970703 6.12839844 3.23970703 4.6015625 3.29296875 C3.74304688 3.19628906 2.88453125 3.09960938 2 3 C1.34 2.01 0.68 1.02 0 0 Z " fill="#E8AFA5" transform="translate(121,114)"/>
<path d="M0 0 C0.66 0 1.32 0 2 0 C2 0.66 2 1.32 2 2 C2.66 2.33 3.32 2.66 4 3 C2.68 4.65 1.36 6.3 0 8 C-0.33 7.01 -0.66 6.02 -1 5 C-1.66 4.67 -2.32 4.34 -3 4 C-3 3.34 -3 2.68 -3 2 C-2.01 2 -1.02 2 0 2 C0 1.34 0 0.68 0 0 Z " fill="#E2DBDC" transform="translate(74,160)"/>
<path d="M0 0 C-1 3 -1 3 -2 4 C-1.34 4.66 -0.68 5.32 0 6 C-1.65 6.33 -3.3 6.66 -5 7 C-4.67 5.35 -4.34 3.7 -4 2 C-4.66 1.67 -5.32 1.34 -6 1 C-3 0 -3 0 0 0 Z " fill="#304E75" transform="translate(109,143)"/>
<path d="M0 0 C3.96 0.33 7.92 0.66 12 1 C12 1.33 12 1.66 12 2 C11.09507812 2.09087891 11.09507812 2.09087891 10.171875 2.18359375 C8.97304687 2.30927734 8.97304687 2.30927734 7.75 2.4375 C6.96109375 2.51871094 6.1721875 2.59992188 5.359375 2.68359375 C3.17635361 2.97634993 1.1226818 3.42064419 -1 4 C-0.67 2.68 -0.34 1.36 0 0 Z " fill="#DDE5E7" transform="translate(122,118)"/>
<path d="M0 0 C2.23551759 3.35327639 2.17283528 3.90743657 1.625 7.6875 C1.51414063 8.49574219 1.40328125 9.30398437 1.2890625 10.13671875 C1.19367188 10.75160156 1.09828125 11.36648437 1 12 C0.01 12 -0.98 12 -2 12 C-2 10.68 -2 9.36 -2 8 C-1.34 8 -0.68 8 0 8 C0 5.36 0 2.72 0 0 Z " fill="#E2FBFE" transform="translate(147,101)"/>
<path d="M0 0 C0.99 0.33 1.98 0.66 3 1 C2.5359375 1.7734375 2.5359375 1.7734375 2.0625 2.5625 C0.70940713 5.66665423 0.38640576 8.65115007 0 12 C-0.33 12 -0.66 12 -1 12 C-1.33 8.7 -1.66 5.4 -2 2 C-1.34 2 -0.68 2 0 2 C0 1.34 0 0.68 0 0 Z " fill="#5A719A" transform="translate(97,127)"/>
<path d="M0 0 C2.0625 0.4375 2.0625 0.4375 4 1 C3.67 2.32 3.34 3.64 3 5 C1.68 5.33 0.36 5.66 -1 6 C-1.042721 4.33388095 -1.04063832 2.66617115 -1 1 C-0.67 0.67 -0.34 0.34 0 0 Z " fill="#2644A4" transform="translate(187,127)"/>
<path d="M0 0 C2.4375 0.6875 2.4375 0.6875 5 2 C6.55555148 6.0683654 6.07296545 10.69503828 6 15 C5.67 15 5.34 15 5 15 C4.83564453 13.87851563 4.83564453 13.87851563 4.66796875 12.734375 C4.50941406 11.74953125 4.35085937 10.7646875 4.1875 9.75 C3.96126953 8.28820312 3.96126953 8.28820312 3.73046875 6.796875 C2.96781736 3.87677662 1.96225899 2.25794185 0 0 Z " fill="#4E6398" transform="translate(45,119)"/>
<path d="M0 0 C0.66 0.33 1.32 0.66 2 1 C2 2.65 2 4.3 2 6 C1.34 6 0.68 6 0 6 C0 7.98 0 9.96 0 12 C-0.66 12 -1.32 12 -2 12 C-1.34 8.04 -0.68 4.08 0 0 Z " fill="#F8F0AD" transform="translate(125,93)"/>
<path d="M0 0 C2.31 0 4.62 0 7 0 C5.1875 2 5.1875 2 3 4 C2.01 4 1.02 4 0 4 C0 2.68 0 1.36 0 0 Z " fill="#F6FEF0" transform="translate(205,151)"/>
<path d="M0 0 C0.86625 1.11375 0.86625 1.11375 1.75 2.25 C3.72253526 4.66087643 5.76044282 6.84042701 8 9 C6.02 9 4.04 9 2 9 C2 7.35 2 5.7 2 4 C1.34 4 0.68 4 0 4 C0 2.68 0 1.36 0 0 Z " fill="#C5D3EA" transform="translate(184,141)"/>
<path d="M0 0 C0.1875 2.375 0.1875 2.375 0 5 C-0.99 5.66 -1.98 6.32 -3 7 C-3 6.34 -3 5.68 -3 5 C-3.66 5 -4.32 5 -5 5 C-5 3 -5 3 -3.625 1.375 C-2 0 -2 0 0 0 Z " fill="#FBFAEE" transform="translate(61,142)"/>
<path d="M0 0 C0.33 0.66 0.66 1.32 1 2 C1.66 2 2.32 2 3 2 C3.33 1.34 3.66 0.68 4 0 C3.67 2.64 3.34 5.28 3 8 C2.34 8 1.68 8 1 8 C0.67 5.36 0.34 2.72 0 0 Z " fill="#284488" transform="translate(114,132)"/>
<path d="M0 0 C2.31 0 4.62 0 7 0 C7.33 0.66 7.66 1.32 8 2 C8.99 2.66 9.98 3.32 11 4 C8.36 4.33 5.72 4.66 3 5 C3.33 4.01 3.66 3.02 4 2 C2.68 1.34 1.36 0.68 0 0 Z " fill="#2D447A" transform="translate(192,121)"/>
<path d="M0 0 C0.66 1.32 1.32 2.64 2 4 C-0.64738916 5.4606285 -1.89448334 6 -5 6 C-3.63016497 2.83884224 -3.0109362 2.0072908 0 0 Z " fill="#4C638A" transform="translate(26,113)"/>
<path d="M0 0 C2.125 0.375 2.125 0.375 4 1 C2.515 3.475 2.515 3.475 1 6 C0.01 5.67 -0.98 5.34 -2 5 C-2 2 -2 2 0 0 Z " fill="#F1F9F8" transform="translate(191,114)"/>
<path d="M0 0 C1.65 0 3.3 0 5 0 C5.144375 0.763125 5.28875 1.52625 5.4375 2.3125 C5.9632594 5.08172908 5.9632594 5.08172908 7 8 C6.01 8 5.02 8 4 8 C4 6.35 4 4.7 4 3 C2.68 2.34 1.36 1.68 0 1 C0 0.67 0 0.34 0 0 Z " fill="#C5C5C5" transform="translate(144,162)"/>
<path d="M0 0 C0 0.33 0 0.66 0 1 C-3.3 1 -6.6 1 -10 1 C-10 0.34 -10 -0.32 -10 -1 C-5.94568308 -2.15837626 -3.78187881 -1.83691257 0 0 Z " fill="#C9CBCA" transform="translate(104,162)"/>
<path d="M0 0 C0.33 0.66 0.66 1.32 1 2 C2.65 2 4.3 2 6 2 C4.6875 4 4.6875 4 3 6 C2.01 6 1.02 6 0 6 C0 4.02 0 2.04 0 0 Z " fill="#E9F4F2" transform="translate(182,120)"/>
<path d="M0 0 C2.97 0.33 5.94 0.66 9 1 C7.35 2.32 5.7 3.64 4 5 C3.67 4.34 3.34 3.68 3 3 C2.01 2.67 1.02 2.34 0 2 C0 1.34 0 0.68 0 0 Z " fill="#DEE6EC" transform="translate(19,111)"/>
<path d="M0 0 C2.475 0.99 2.475 0.99 5 2 C4.67 2.99 4.34 3.98 4 5 C2.35 4.67 0.7 4.34 -1 4 C-0.67 2.68 -0.34 1.36 0 0 Z " fill="#F0F5EC" transform="translate(20,146)"/>
<path d="M0 0 C0.33 0.99 0.66 1.98 1 3 C0.01 3.495 0.01 3.495 -1 4 C-1 4.66 -1 5.32 -1 6 C-1.99 6.33 -2.98 6.66 -4 7 C-4 5.02 -4 3.04 -4 1 C-2.68 0.67 -1.36 0.34 0 0 Z " fill="#334B95" transform="translate(71,121)"/>
<path d="M0 0 C0.33 1.32 0.66 2.64 1 4 C1.99 4 2.98 4 4 4 C4 6.64 4 9.28 4 12 C3.67 12 3.34 12 3 12 C3 10.02 3 8.04 3 6 C1.68 5.67 0.36 5.34 -1 5 C-0.67 3.35 -0.34 1.7 0 0 Z " fill="#F4F1F5" transform="translate(135,115)"/>
<path d="M0 0 C2.35953094 2.35953094 2.49141413 3.77895617 3 7 C1.68 7 0.36 7 -1 7 C-0.67 4.69 -0.34 2.38 0 0 Z " fill="#ECFAF7" transform="translate(177,112)"/>
<path d="M0 0 C0.66 0 1.32 0 2 0 C2 2.64 2 5.28 2 8 C1.67 7.01 1.34 6.02 1 5 C-1.01508358 4.26676204 -1.01508358 4.26676204 -3 4 C-1.625 2 -1.625 2 0 0 Z " fill="#B45A4E" transform="translate(134,104)"/>
<path d="M0 0 C0.66 0.33 1.32 0.66 2 1 C2.625 3.5625 2.625 3.5625 3 6 C1.68 6.33 0.36 6.66 -1 7 C-0.67 4.69 -0.34 2.38 0 0 Z " fill="#E58438" transform="translate(117,97)"/>
<path d="M0 0 C0.99 0.33 1.98 0.66 3 1 C2.34 1 1.68 1 1 1 C0.67 2.65 0.34 4.3 0 6 C0.66 6.33 1.32 6.66 2 7 C0.68 6.67 -0.64 6.34 -2 6 C-2 2 -2 2 0 0 Z " fill="#C6D57F" transform="translate(128,88)"/>
<path d="M0 0 C2.64 0 5.28 0 8 0 C8 0.99 8 1.98 8 3 C3.25 2.125 3.25 2.125 1 1 C1 1.66 1 2.32 1 3 C0.34 2.67 -0.32 2.34 -1 2 C-0.67 1.34 -0.34 0.68 0 0 Z " fill="#EDB92F" transform="translate(123,85)"/>
<path d="M0 0 C2 1.3125 2 1.3125 4 3 C4 3.99 4 4.98 4 6 C2.68 5.67 1.36 5.34 0 5 C-0.33 5.66 -0.66 6.32 -1 7 C-1.33 5.35 -1.66 3.7 -2 2 C-1.34 2 -0.68 2 0 2 C0 1.34 0 0.68 0 0 Z " fill="#D2D5D7" transform="translate(67,162)"/>
<path d="M0 0 C1.65 0 3.3 0 5 0 C4.01 0.495 4.01 0.495 3 1 C3.33 2.32 3.66 3.64 4 5 C3.34 5 2.68 5 2 5 C1.67 5.66 1.34 6.32 1 7 C0.67 4.69 0.34 2.38 0 0 Z " fill="#ECF6EF" transform="translate(64,161)"/>
<path d="M0 0 C0.99 0.33 1.98 0.66 3 1 C3.125 3.875 3.125 3.875 3 7 C2.34 7.66 1.68 8.32 1 9 C0.67 6.03 0.34 3.06 0 0 Z " fill="#E9EBEB" transform="translate(103,159)"/>
<path d="M0 0 C2.31 0.33 4.62 0.66 7 1 C7 2.98 7 4.96 7 7 C6.67 6.34 6.34 5.68 6 5 C5.0409375 4.5359375 5.0409375 4.5359375 4.0625 4.0625 C2 3 2 3 0 0 Z " fill="#B6C2D6" transform="translate(49,112)"/>
<path d="M0 0 C0.66 0.33 1.32 0.66 2 1 C1.34 2.98 0.68 4.96 0 7 C-1.32 6.67 -2.64 6.34 -4 6 C-3.0022242 3.00667261 -2.2477975 2.05233685 0 0 Z " fill="#FDF2C4" transform="translate(119,86)"/>
<path d="M0 0 C0.99 0 1.98 0 3 0 C3.33 1.98 3.66 3.96 4 6 C3.01 6 2.02 6 1 6 C1 5.01 1 4.02 1 3 C0.34 3 -0.32 3 -1 3 C-0.67 2.01 -0.34 1.02 0 0 Z " fill="#C9C9C9" transform="translate(95,164)"/>
<path d="M0 0 C0.33 0 0.66 0 1 0 C1.33 3.3 1.66 6.6 2 10 C1.01 10 0.02 10 -1 10 C-0.67 6.7 -0.34 3.4 0 0 Z " fill="#284B7B" transform="translate(185,129)"/>
<path d="M0 0 C1.66611905 -0.042721 3.33382885 -0.04063832 5 0 C6 1 6 1 6.0625 3.5625 C6.041875 4.366875 6.02125 5.17125 6 6 C5.67 5.34 5.34 4.68 5 4 C4.34 3.67 3.68 3.34 3 3 C1 2 1 2 0 0 Z " fill="#CDDEEB" transform="translate(113,121)"/>
<path d="M0 0 C1.32 0.33 2.64 0.66 4 1 C4 2.32 4 3.64 4 5 C2.68 5 1.36 5 0 5 C0 3.35 0 1.7 0 0 Z " fill="#304583" transform="translate(141,121)"/>
</svg>
